<svg width="16" height="17" viewBox="0 0 16 17" fill="none" xmlns="http://www.w3.org/2000/svg">
<path d="M13.0131 5.83571L8.32499 10.7287C8.1438 10.9179 7.9211 11.0583 7.67615 11.1378L6.67999 11.4851C6.44358 11.5547 6.19365 11.5573 5.95594 11.4927C5.71823 11.4282 5.50135 11.2987 5.32764 11.1178C5.15394 10.9368 5.02969 10.7109 4.9677 10.4633C4.90572 10.2157 4.90823 9.95536 4.975 9.70909L5.30846 8.67144C5.38451 8.41636 5.51902 8.18439 5.70038 7.99556L10.3977 3.11136C10.4407 3.06656 10.4701 3.00946 10.482 2.94729C10.4939 2.88513 10.4878 2.82068 10.4646 2.7621C10.4413 2.70351 10.4019 2.65343 10.3513 2.61819C10.3007 2.58294 10.2412 2.56412 10.1804 2.56409H2.15384C1.58261 2.56409 1.03477 2.80046 0.630847 3.22122C0.226922 3.64197 0 4.21263 0 4.80767V14.423C0 15.0181 0.226922 15.5887 0.630847 16.0095C1.03477 16.4302 1.58261 16.6666 2.15384 16.6666H11.3846C11.9558 16.6666 12.5037 16.4302 12.9076 16.0095C13.3115 15.5887 13.5385 15.0181 13.5385 14.423V6.06207C13.5384 5.99868 13.5203 5.93672 13.4865 5.88402C13.4527 5.83133 13.4046 5.79027 13.3484 5.76604C13.2921 5.74181 13.2303 5.7355 13.1706 5.7479C13.1109 5.7603 13.0561 5.79086 13.0131 5.83571Z" fill="black"/>
<path d="M15.8438 0.210348C15.7876 0.146021 15.7195 0.0942325 15.6435 0.0581106C15.5676 0.0219888 15.4854 0.00228411 15.4019 0.000187053C15.3184 -0.00191 15.2354 0.0136442 15.1579 0.0459098C15.0803 0.0781754 15.0099 0.126482 14.9508 0.187912L14.475 0.681099C14.4173 0.741201 14.3849 0.822692 14.3849 0.907661C14.3849 0.992629 14.4173 1.07412 14.475 1.13422L14.9112 1.58775C14.9397 1.61767 14.9737 1.64141 15.0112 1.65761C15.0486 1.67381 15.0887 1.68215 15.1292 1.68215C15.1698 1.68215 15.2099 1.67381 15.2473 1.65761C15.2847 1.64141 15.3187 1.61767 15.3473 1.58775L15.8112 1.10698C16.0458 0.862989 16.0677 0.465555 15.8438 0.210348Z" fill="black"/>
<path d="M13.5131 1.68267L6.57001 8.9022C6.52791 8.94587 6.49732 9.0001 6.48116 9.05965L6.16001 10.056C6.15232 10.0831 6.15177 10.1118 6.15843 10.1391C6.16509 10.1664 6.17871 10.1914 6.19786 10.2113C6.217 10.2313 6.24095 10.2455 6.26719 10.2524C6.29343 10.2593 6.32098 10.2588 6.34693 10.2508L7.3027 9.91622C7.35988 9.89939 7.41193 9.86752 7.45385 9.82367L14.3846 2.59052C14.4487 2.52302 14.4847 2.43189 14.4847 2.33692C14.4847 2.24195 14.4487 2.15082 14.3846 2.08331L14.0019 1.68267C13.937 1.61527 13.8491 1.57742 13.7575 1.57742C13.6659 1.57742 13.578 1.61527 13.5131 1.68267Z" fill="black"/>
</svg>
