<svg width="16" height="13" viewBox="0 0 16 13" fill="none" xmlns="http://www.w3.org/2000/svg">
<path d="M11.3684 12V10.7778C11.3684 10.1295 11.1062 9.50772 10.6395 9.04929C10.1728 8.59087 9.53987 8.33333 8.87985 8.33333H3.90268C3.24266 8.33333 2.60968 8.59087 2.14298 9.04929C1.67628 9.50772 1.41409 10.1295 1.41409 10.7778V12M11.3684 5.88889H15.1013M13.2349 4.05556V7.72222M8.87985 3.44444C8.87985 4.79447 7.76567 5.88889 6.39127 5.88889C5.01686 5.88889 3.90268 4.79447 3.90268 3.44444C3.90268 2.09441 5.01686 1 6.39127 1C7.76567 1 8.87985 2.09441 8.87985 3.44444Z" stroke="black" stroke-linecap="round" stroke-linejoin="round"/>
</svg>
