<svg viewBox="0 0 20 20" fill="none" xmlns="http://www.w3.org/2000/svg">
<g id="Vector" filter="url(#filter0_d_1_389)">
<path d="M14.3416 7.3416H13.4471C13.1467 4.84145 11.1585 2.85335 8.65837 2.55304V1.6584C8.65837 1.29479 8.36358 1 7.99996 1C7.63635 1 7.34156 1.29479 7.34156 1.6584V2.55307C4.84156 2.85349 2.85349 4.84156 2.55314 7.3416H1.6584C1.29479 7.3416 1 7.63639 1 8C1 8.36361 1.29479 8.6584 1.6584 8.6584H2.55314C2.85349 11.1584 4.84159 13.1465 7.34156 13.4469V14.3416C7.34156 14.7052 7.63635 15 7.99996 15C8.36358 15 8.65837 14.7052 8.65837 14.3416V13.447C11.1585 13.1467 13.1467 11.1585 13.4471 8.6584H14.3416C14.7052 8.6584 15 8.36361 15 8C15 7.63639 14.7052 7.3416 14.3416 7.3416ZM11.3148 8.6584H12.1178C11.8353 10.4314 10.4314 11.8353 8.65833 12.1177V11.3148C8.65833 10.9512 8.36354 10.6564 7.99993 10.6564C7.63632 10.6564 7.34153 10.9512 7.34153 11.3148V12.1176C5.5686 11.8351 4.16484 10.4313 3.88239 8.65837H4.68511C5.04872 8.65837 5.34351 8.36358 5.34351 7.99996C5.34351 7.63635 5.04872 7.34156 4.68511 7.34156H3.88239C4.16484 5.56864 5.5686 4.16484 7.34153 3.88232V4.68514C7.34153 5.04876 7.63632 5.34355 7.99993 5.34355C8.36354 5.34355 8.65833 5.04876 8.65833 4.68514V3.88225C10.4313 4.16467 11.8353 5.56853 12.1178 7.34153H11.3148C10.9512 7.34153 10.6564 7.63632 10.6564 7.99993C10.6564 8.36361 10.9512 8.6584 11.3148 8.6584Z" fill="#F56B1F"/>
</g>
<defs>
<filter id="filter0_d_1_389" x="0" y="0" width="20" height="20" filterUnits="userSpaceOnUse" color-interpolation-filters="sRGB">
<feFlood flood-opacity="0" result="BackgroundImageFix"/>
<feColorMatrix in="SourceAlpha" type="matrix" values="0 0 0 0 0 0 0 0 0 0 0 0 0 0 0 0 0 0 127 0" result="hardAlpha"/>
<feOffset dx="2" dy="2"/>
<feGaussianBlur stdDeviation="1.5"/>
<feComposite in2="hardAlpha" operator="out"/>
<feColorMatrix type="matrix" values="0 0 0 0 0 0 0 0 0 0 0 0 0 0 0 0 0 0 0.25 0"/>
<feBlend mode="normal" in2="BackgroundImageFix" result="effect1_dropShadow_1_389"/>
<feBlend mode="normal" in="SourceGraphic" in2="effect1_dropShadow_1_389" result="shape"/>
</filter>
</defs>
</svg>
