<svg viewBox="0 0 23 23" fill="none" xmlns="http://www.w3.org/2000/svg">
<g id="Vector" filter="url(#filter0_d_1_1346)">
<path d="M17.2005 8.70051H16.1143C15.7495 5.66462 13.3353 3.25049 10.2994 2.88583V1.79949C10.2994 1.35796 9.94149 1 9.49996 1C9.05843 1 8.70047 1.35796 8.70047 1.79949V2.88587C5.66475 3.25066 3.25066 5.66475 2.88596 8.70051H1.79949C1.35796 8.70051 1 9.05847 1 9.5C1 9.94153 1.35796 10.2995 1.79949 10.2995H2.88596C3.25066 13.3353 5.66479 15.7493 8.70047 16.1141V17.2005C8.70047 17.642 9.05843 18 9.49996 18C9.94149 18 10.2994 17.642 10.2994 17.2005V16.1142C13.3353 15.7495 15.7495 13.3353 16.1143 10.2995H17.2005C17.642 10.2995 18 9.94153 18 9.5C18 9.05847 17.642 8.70051 17.2005 8.70051ZM13.5251 10.2995H14.5001C14.1571 12.4524 12.4524 14.1571 10.2994 14.5V13.5251C10.2994 13.0836 9.94144 12.7256 9.49992 12.7256C9.05839 12.7256 8.70043 13.0836 8.70043 13.5251V14.5C6.54759 14.1569 4.84302 12.4523 4.50004 10.2994H5.47478C5.9163 10.2994 6.27426 9.94148 6.27426 9.49996C6.27426 9.05843 5.9163 8.70047 5.47478 8.70047H4.50004C4.84302 6.54763 6.54759 4.84302 8.70043 4.49996V5.47482C8.70043 5.91635 9.05839 6.27431 9.49992 6.27431C9.94144 6.27431 10.2994 5.91635 10.2994 5.47482V4.49987C12.4523 4.84281 14.1571 6.5475 14.5001 8.70043H13.5251C13.0836 8.70043 12.7256 9.05839 12.7256 9.49992C12.7257 9.94153 13.0836 10.2995 13.5251 10.2995Z" fill="#288FF2"/>
</g>
<defs>
<filter id="filter0_d_1_1346" x="0" y="0" width="23" height="23" filterUnits="userSpaceOnUse" color-interpolation-filters="sRGB">
<feFlood flood-opacity="0" result="BackgroundImageFix"/>
<feColorMatrix in="SourceAlpha" type="matrix" values="0 0 0 0 0 0 0 0 0 0 0 0 0 0 0 0 0 0 127 0" result="hardAlpha"/>
<feOffset dx="2" dy="2"/>
<feGaussianBlur stdDeviation="1.5"/>
<feComposite in2="hardAlpha" operator="out"/>
<feColorMatrix type="matrix" values="0 0 0 0 0 0 0 0 0 0 0 0 0 0 0 0 0 0 0.25 0"/>
<feBlend mode="normal" in2="BackgroundImageFix" result="effect1_dropShadow_1_1346"/>
<feBlend mode="normal" in="SourceGraphic" in2="effect1_dropShadow_1_1346" result="shape"/>
</filter>
</defs>
</svg>
