<svg width="14" height="14" viewBox="0 0 14 14" fill="none" xmlns="http://www.w3.org/2000/svg">
<path d="M5.00001 0.999999C5.00001 1.17681 4.92977 1.34638 4.80475 1.4714C4.67972 1.59643 4.51015 1.66667 4.33334 1.66667H2.33334C2.15653 1.66667 1.98696 1.7369 1.86194 1.86193C1.73691 1.98695 1.66668 2.15652 1.66668 2.33333V4.33333C1.66668 4.51014 1.59644 4.67971 1.47141 4.80474C1.34639 4.92976 1.17682 5 1.00001 5C0.823199 5 0.65363 4.92976 0.528606 4.80474C0.403581 4.67971 0.333344 4.51014 0.333344 4.33333V2.33333C0.333344 1.8029 0.544057 1.29419 0.91913 0.919119C1.2942 0.544046 1.80291 0.333332 2.33334 0.333332H4.33334C4.51015 0.333332 4.67972 0.40357 4.80475 0.528594C4.92977 0.653618 5.00001 0.823188 5.00001 0.999999ZM0.333344 11.6667C0.333344 12.1971 0.544057 12.7058 0.91913 13.0809C1.2942 13.456 1.80291 13.6667 2.33334 13.6667H4.33334C4.51015 13.6667 4.67972 13.5964 4.80475 13.4714C4.92977 13.3464 5.00001 13.1768 5.00001 13C5.00001 12.8232 4.92977 12.6536 4.80475 12.5286C4.67972 12.4036 4.51015 12.3333 4.33334 12.3333H2.33334C2.15653 12.3333 1.98696 12.2631 1.86194 12.1381C1.73691 12.013 1.66668 11.8435 1.66668 11.6667V9.66667C1.66668 9.48985 1.59644 9.32028 1.47141 9.19526C1.34639 9.07024 1.17682 9 1.00001 9C0.823199 9 0.65363 9.07024 0.528606 9.19526C0.403581 9.32028 0.333344 9.48985 0.333344 9.66667V11.6667ZM13 9C12.8232 9 12.6536 9.07024 12.5286 9.19526C12.4036 9.32028 12.3333 9.48985 12.3333 9.66667V11.6667C12.3333 11.8435 12.2631 12.013 12.1381 12.1381C12.0131 12.2631 11.8435 12.3333 11.6667 12.3333H9.66668C9.48987 12.3333 9.3203 12.4036 9.19527 12.5286C9.07025 12.6536 9.00001 12.8232 9.00001 13C9.00001 13.1768 9.07025 13.3464 9.19527 13.4714C9.3203 13.5964 9.48987 13.6667 9.66668 13.6667H11.6667C12.1971 13.6667 12.7058 13.456 13.0809 13.0809C13.456 12.7058 13.6667 12.1971 13.6667 11.6667V9.66667C13.6667 9.48985 13.5964 9.32028 13.4714 9.19526C13.3464 9.07024 13.1768 9 13 9ZM11.6667 0.333332H9.66668C9.48987 0.333332 9.3203 0.40357 9.19527 0.528594C9.07025 0.653618 9.00001 0.823188 9.00001 0.999999C9.00001 1.17681 9.07025 1.34638 9.19527 1.4714C9.3203 1.59643 9.48987 1.66667 9.66668 1.66667H11.6667C11.8435 1.66667 12.0131 1.7369 12.1381 1.86193C12.2631 1.98695 12.3333 2.15652 12.3333 2.33333V4.33333C12.3333 4.51014 12.4036 4.67971 12.5286 4.80474C12.6536 4.92976 12.8232 5 13 5C13.1768 5 13.3464 4.92976 13.4714 4.80474C13.5964 4.67971 13.6667 4.51014 13.6667 4.33333V2.33333C13.6667 1.8029 13.456 1.29419 13.0809 0.919119C12.7058 0.544046 12.1971 0.333332 11.6667 0.333332ZM4.33334 5V4.33333C4.33334 4.15652 4.26311 3.98695 4.13808 3.86193C4.01306 3.7369 3.84349 3.66667 3.66668 3.66667C3.48987 3.66667 3.3203 3.7369 3.19527 3.86193C3.07025 3.98695 3.00001 4.15652 3.00001 4.33333V5C3.00001 5.17681 3.07025 5.34638 3.19527 5.4714C3.3203 5.59643 3.48987 5.66667 3.66668 5.66667C3.84349 5.66667 4.01306 5.59643 4.13808 5.4714C4.26311 5.34638 4.33334 5.17681 4.33334 5ZM11 5V4.33333C11 4.15652 10.9298 3.98695 10.8047 3.86193C10.6797 3.7369 10.5102 3.66667 10.3333 3.66667C10.1565 3.66667 9.98696 3.7369 9.86194 3.86193C9.73691 3.98695 9.66668 4.15652 9.66668 4.33333V5C9.66668 5.17681 9.73691 5.34638 9.86194 5.4714C9.98696 5.59643 10.1565 5.66667 10.3333 5.66667C10.5102 5.66667 10.6797 5.59643 10.8047 5.4714C10.9298 5.34638 11 5.17681 11 5ZM4.85001 8.57866C4.73827 8.44164 4.57666 8.35461 4.40075 8.33673C4.22484 8.31885 4.04904 8.37159 3.91201 8.48333C3.77498 8.59508 3.68796 8.75668 3.67008 8.93259C3.6522 9.1085 3.70493 9.2843 3.81668 9.42133C4.18986 9.91181 4.67134 10.3094 5.22353 10.5831C5.77573 10.8569 6.3837 10.9993 7.00001 10.9993C7.61632 10.9993 8.22429 10.8569 8.77649 10.5831C9.32868 10.3094 9.81016 9.91181 10.1833 9.42133C10.2951 9.2843 10.3478 9.1085 10.3299 8.93259C10.3121 8.75668 10.225 8.59508 10.088 8.48333C9.95098 8.37159 9.77517 8.31885 9.59927 8.33673C9.42336 8.35461 9.26175 8.44164 9.15001 8.57866C8.90231 8.91625 8.57859 9.19077 8.20507 9.37998C7.83155 9.5692 7.41872 9.6678 7.00001 9.6678C6.5813 9.6678 6.16847 9.5692 5.79495 9.37998C5.42143 9.19077 5.09771 8.91625 4.85001 8.57866ZM6.33334 3.66667C6.15653 3.66667 5.98696 3.7369 5.86194 3.86193C5.73691 3.98695 5.66668 4.15652 5.66668 4.33333V6.34C5.66844 6.86928 5.87993 7.37627 6.25481 7.7499C6.6297 8.12354 7.1374 8.33333 7.66668 8.33333C7.84349 8.33245 8.01271 8.26136 8.1371 8.13571C8.2615 8.01006 8.33089 7.84014 8.33001 7.66333C8.32913 7.48652 8.25804 7.3173 8.13239 7.1929C8.00674 7.0685 7.83682 6.99911 7.66001 7C7.48502 6.99982 7.31725 6.93023 7.19351 6.80649C7.06978 6.68276 7.00019 6.51499 7.00001 6.34V4.33333C7.00001 4.15652 6.92977 3.98695 6.80475 3.86193C6.67972 3.7369 6.51015 3.66667 6.33334 3.66667Z" fill="white"/>
</svg>
