<svg width="16" height="16" viewBox="0 0 16 16" fill="none" xmlns="http://www.w3.org/2000/svg">
<path d="M6.00001 2C6.00001 2.17681 5.92977 2.34638 5.80475 2.4714C5.67972 2.59643 5.51015 2.66667 5.33334 2.66667H3.33334C3.15653 2.66667 2.98696 2.7369 2.86194 2.86193C2.73691 2.98695 2.66668 3.15652 2.66668 3.33333V5.33333C2.66668 5.51014 2.59644 5.67971 2.47141 5.80474C2.34639 5.92976 2.17682 6 2.00001 6C1.8232 6 1.65363 5.92976 1.52861 5.80474C1.40358 5.67971 1.33334 5.51014 1.33334 5.33333V3.33333C1.33334 2.8029 1.54406 2.29419 1.91913 1.91912C2.2942 1.54405 2.80291 1.33333 3.33334 1.33333H5.33334C5.51015 1.33333 5.67972 1.40357 5.80475 1.52859C5.92977 1.65362 6.00001 1.82319 6.00001 2ZM1.33334 12.6667C1.33334 13.1971 1.54406 13.7058 1.91913 14.0809C2.2942 14.456 2.80291 14.6667 3.33334 14.6667H5.33334C5.51015 14.6667 5.67972 14.5964 5.80475 14.4714C5.92977 14.3464 6.00001 14.1768 6.00001 14C6.00001 13.8232 5.92977 13.6536 5.80475 13.5286C5.67972 13.4036 5.51015 13.3333 5.33334 13.3333H3.33334C3.15653 13.3333 2.98696 13.2631 2.86194 13.1381C2.73691 13.013 2.66668 12.8435 2.66668 12.6667V10.6667C2.66668 10.4899 2.59644 10.3203 2.47141 10.1953C2.34639 10.0702 2.17682 10 2.00001 10C1.8232 10 1.65363 10.0702 1.52861 10.1953C1.40358 10.3203 1.33334 10.4899 1.33334 10.6667V12.6667ZM14 10C13.8232 10 13.6536 10.0702 13.5286 10.1953C13.4036 10.3203 13.3333 10.4899 13.3333 10.6667V12.6667C13.3333 12.8435 13.2631 13.013 13.1381 13.1381C13.0131 13.2631 12.8435 13.3333 12.6667 13.3333H10.6667C10.4899 13.3333 10.3203 13.4036 10.1953 13.5286C10.0702 13.6536 10 13.8232 10 14C10 14.1768 10.0702 14.3464 10.1953 14.4714C10.3203 14.5964 10.4899 14.6667 10.6667 14.6667H12.6667C13.1971 14.6667 13.7058 14.456 14.0809 14.0809C14.456 13.7058 14.6667 13.1971 14.6667 12.6667V10.6667C14.6667 10.4899 14.5964 10.3203 14.4714 10.1953C14.3464 10.0702 14.1768 10 14 10ZM12.6667 1.33333H10.6667C10.4899 1.33333 10.3203 1.40357 10.1953 1.52859C10.0702 1.65362 10 1.82319 10 2C10 2.17681 10.0702 2.34638 10.1953 2.4714C10.3203 2.59643 10.4899 2.66667 10.6667 2.66667H12.6667C12.8435 2.66667 13.0131 2.7369 13.1381 2.86193C13.2631 2.98695 13.3333 3.15652 13.3333 3.33333V5.33333C13.3333 5.51014 13.4036 5.67971 13.5286 5.80474C13.6536 5.92976 13.8232 6 14 6C14.1768 6 14.3464 5.92976 14.4714 5.80474C14.5964 5.67971 14.6667 5.51014 14.6667 5.33333V3.33333C14.6667 2.8029 14.456 2.29419 14.0809 1.91912C13.7058 1.54405 13.1971 1.33333 12.6667 1.33333ZM5.33334 6V5.33333C5.33334 5.15652 5.26311 4.98695 5.13808 4.86193C5.01306 4.7369 4.84349 4.66667 4.66668 4.66667C4.48987 4.66667 4.3203 4.7369 4.19527 4.86193C4.07025 4.98695 4.00001 5.15652 4.00001 5.33333V6C4.00001 6.17681 4.07025 6.34638 4.19527 6.4714C4.3203 6.59643 4.48987 6.66667 4.66668 6.66667C4.84349 6.66667 5.01306 6.59643 5.13808 6.4714C5.26311 6.34638 5.33334 6.17681 5.33334 6ZM12 6V5.33333C12 5.15652 11.9298 4.98695 11.8047 4.86193C11.6797 4.7369 11.5102 4.66667 11.3333 4.66667C11.1565 4.66667 10.987 4.7369 10.8619 4.86193C10.7369 4.98695 10.6667 5.15652 10.6667 5.33333V6C10.6667 6.17681 10.7369 6.34638 10.8619 6.4714C10.987 6.59643 11.1565 6.66667 11.3333 6.66667C11.5102 6.66667 11.6797 6.59643 11.8047 6.4714C11.9298 6.34638 12 6.17681 12 6ZM5.85001 9.57866C5.73827 9.44164 5.57666 9.35461 5.40075 9.33673C5.22484 9.31885 5.04904 9.37159 4.91201 9.48333C4.77498 9.59508 4.68796 9.75668 4.67008 9.93259C4.6522 10.1085 4.70493 10.2843 4.81668 10.4213C5.18986 10.9118 5.67134 11.3094 6.22353 11.5831C6.77573 11.8569 7.3837 11.9993 8.00001 11.9993C8.61632 11.9993 9.22429 11.8569 9.77649 11.5831C10.3287 11.3094 10.8102 10.9118 11.1833 10.4213C11.2951 10.2843 11.3478 10.1085 11.3299 9.93259C11.3121 9.75668 11.225 9.59508 11.088 9.48333C10.951 9.37159 10.7752 9.31885 10.5993 9.33673C10.4234 9.35461 10.2618 9.44164 10.15 9.57866C9.90231 9.91625 9.57859 10.1908 9.20507 10.38C8.83155 10.5692 8.41872 10.6678 8.00001 10.6678C7.5813 10.6678 7.16847 10.5692 6.79495 10.38C6.42143 10.1908 6.09771 9.91625 5.85001 9.57866ZM7.33334 4.66667C7.15653 4.66667 6.98696 4.7369 6.86194 4.86193C6.73691 4.98695 6.66668 5.15652 6.66668 5.33333V7.34C6.66844 7.86928 6.87993 8.37627 7.25481 8.7499C7.6297 9.12354 8.1374 9.33333 8.66668 9.33333C8.84349 9.33245 9.01271 9.26136 9.1371 9.13571C9.2615 9.01006 9.33089 8.84014 9.33001 8.66333C9.32913 8.48652 9.25804 8.3173 9.13239 8.1929C9.00674 8.0685 8.83682 7.99911 8.66001 8C8.48502 7.99982 8.31725 7.93023 8.19351 7.80649C8.06978 7.68276 8.00019 7.51499 8.00001 7.34V5.33333C8.00001 5.15652 7.92977 4.98695 7.80475 4.86193C7.67972 4.7369 7.51015 4.66667 7.33334 4.66667Z" fill="#D7C16C"/>
</svg>
