<svg width="16" height="16" viewBox="0 0 16 16" fill="none" xmlns="http://www.w3.org/2000/svg">
<path d="M15.66 7L14.75 4.32L8.62001 0.850002C8.43025 0.744941 8.21691 0.689823 8.00001 0.689823C7.78311 0.689823 7.56977 0.744941 7.38001 0.850002L1.25001 4.32L0.340012 7C0.24267 7.27817 0.247581 7.58191 0.353864 7.85678C0.460148 8.13165 0.660856 8.35968 0.920012 8.5L1.25001 8.68V11C1.26439 11.2057 1.32943 11.4047 1.43936 11.5792C1.54928 11.7536 1.70066 11.8982 1.88001 12L7.38001 15.11C7.56977 15.2151 7.78311 15.2702 8.00001 15.2702C8.21691 15.2702 8.43025 15.2151 8.62001 15.11L14.12 12C14.2994 11.8982 14.4507 11.7536 14.5607 11.5792C14.6706 11.4047 14.7356 11.2057 14.75 11V8.68L15.08 8.5C15.3392 8.35968 15.5399 8.13165 15.6462 7.85678C15.7524 7.58191 15.7574 7.27817 15.66 7ZM10 9.87L9.52001 8.59L14 6.13L14.44 7.41L10 9.87ZM8.00001 1.94L13.46 5L8.00001 8L2.54001 5L8.00001 1.94ZM1.52001 7.41L2.00001 6.13L6.48001 8.59L6.00001 9.87L1.52001 7.41ZM2.52001 9.36L6.77001 11.68L7.39001 9.84V13.71L2.50001 11L2.52001 9.36ZM13.5 11L8.62001 13.71V9.84L9.25001 11.68L13.5 9.36V11Z" fill="white"/>
</svg>
