<svg viewBox="0 0 21 29" fill="none" xmlns="http://www.w3.org/2000/svg">
<g id="Vector" filter="url(#filter0_d_1_1338)">
<path d="M5.49997 12.7333C5.49997 12.181 5.05225 11.7333 4.49997 11.7333H2C1.44772 11.7333 1 12.181 1 12.7333V19.1666C1 19.7189 1.44772 20.1666 2 20.1666H4.49997C5.05225 20.1666 5.49997 19.7189 5.49997 19.1666V12.7333Z" fill="white"/>
<path d="M4.8266 9.8827C4.77621 9.77968 4.75001 9.66652 4.75001 9.55183V8.8999C4.75001 8.34762 4.3023 7.8999 3.75001 7.8999H2.75005C2.19776 7.8999 1.75005 8.34762 1.75005 8.8999V9.55183C1.75005 9.66652 1.72385 9.77968 1.67346 9.8827C1.42876 10.383 1.79298 10.9666 2.34989 10.9666H4.15017C4.70708 10.9666 5.0713 10.383 4.8266 9.8827Z" fill="white"/>
<path d="M4.08789 2.90364L3.60939 1.27334C3.56177 1.11116 3.41554 1 3.25014 1C3.08439 1 2.93851 1.11116 2.89089 1.27334L2.41203 2.90364C2.10468 3.95104 1.90873 5.02537 1.81805 6.11136C1.77134 6.67081 2.22583 7.13332 2.78723 7.13332H3.71271C4.27412 7.13332 4.72862 6.67079 4.68189 6.11133C4.59119 5.02535 4.39524 3.95103 4.08789 2.90364Z" fill="white"/>
<path d="M5.23967 21.994C5.19806 21.9501 5.18398 21.8879 5.19862 21.8292C5.31009 21.3732 4.96482 20.9334 4.49542 20.9334H2.00441C1.53498 20.9334 1.18961 21.3731 1.3009 21.8292C1.31561 21.8878 1.30176 21.9502 1.26022 21.9942C1.10035 22.1633 1.00018 22.3913 1.00018 22.6445V23.0555C1.00018 23.5765 1.41456 24 1.92416 24H4.57613C5.08536 24 5.5001 23.5764 5.5001 23.0555V22.6445C5.50014 22.3913 5.39988 22.1632 5.23967 21.994Z" fill="white"/>
<path d="M15.3266 12.9493C15.2762 12.8463 15.25 12.7332 15.25 12.6185V11.9666C15.25 11.4143 14.8023 10.9666 14.25 10.9666H13.25C12.6977 10.9666 12.25 11.4143 12.25 11.9666V12.6185C12.25 12.7332 12.2238 12.8463 12.1734 12.9493C11.9287 13.4496 12.2929 14.0332 12.8499 14.0332H14.6501C15.207 14.0332 15.5713 13.4496 15.3266 12.9493Z" fill="white"/>
<path d="M16 15.8C16 15.2477 15.5522 14.8 15 14.8H12.5C11.9477 14.8 11.5 15.2477 11.5 15.8V19.1666C11.5 19.7189 11.9477 20.1666 12.5 20.1666H15C15.5522 20.1666 16 19.7189 16 19.1666V15.8Z" fill="white"/>
<path d="M14.5879 5.97028L14.1094 4.33998C14.0618 4.17785 13.9155 4.06669 13.7501 4.06669C13.5844 4.06669 13.4385 4.17785 13.3909 4.33998L12.912 5.97028C12.6047 7.01768 12.4087 8.09201 12.318 9.178C12.2713 9.73745 12.7258 10.2 13.2872 10.2H14.2127C14.7741 10.2 15.2286 9.73743 15.1819 9.17797C15.0912 8.09202 14.8952 7.0177 14.5879 5.97028Z" fill="white"/>
<path d="M15.7396 21.994C15.698 21.9501 15.6839 21.8879 15.6986 21.8292C15.81 21.3732 15.4648 20.9334 14.9954 20.9334H12.5043C12.0349 20.9334 11.6895 21.3731 11.8008 21.8292C11.8155 21.8878 11.8017 21.9502 11.7601 21.9942C11.6002 22.1633 11.5001 22.3913 11.5001 22.6445V23.0555C11.5001 23.5765 11.9145 24 12.4241 24H15.076C15.5853 24 16 23.5764 16 23.0555V22.6445C16.0001 22.3913 15.8999 22.1632 15.7396 21.994Z" fill="white"/>
<path d="M10.7499 14.2666C10.7499 13.7144 10.3022 13.2666 9.74994 13.2666H7.24997C6.69769 13.2666 6.24997 13.7144 6.24997 14.2666V19.1666C6.24997 19.7189 6.69769 20.1666 7.24997 20.1666H9.74994C10.3022 20.1666 10.7499 19.7189 10.7499 19.1666V14.2666Z" fill="white"/>
<path d="M10.0766 11.416C10.0262 11.313 10 11.1998 10 11.0851V10.4332C10 9.88096 9.55231 9.43325 9.00003 9.43325H8.00002C7.44773 9.43325 7.00002 9.88096 7.00002 10.4332V11.0851C7.00002 11.1998 6.97382 11.313 6.92343 11.416C6.67872 11.9163 7.04296 12.4999 7.5999 12.4999H9.40012C9.95705 12.4999 10.3213 11.9163 10.0766 11.416Z" fill="white"/>
<path d="M9.33786 4.43698L8.85936 2.80668C8.81174 2.64455 8.66551 2.53339 8.50011 2.53339C8.33436 2.53339 8.18849 2.64455 8.14086 2.80668L7.66201 4.43698C7.35465 5.48438 7.1587 6.55871 7.06802 7.6447C7.02131 8.20416 7.4758 8.66667 8.0372 8.66667H8.96271C9.52411 8.66667 9.9786 8.20416 9.93189 7.6447C9.84121 6.55871 9.64525 5.48438 9.33786 4.43698Z" fill="white"/>
<path d="M10.4896 21.994C10.448 21.9501 10.434 21.8879 10.4486 21.8292C10.5601 21.3732 10.2148 20.9334 9.74539 20.9334H7.25434C6.78491 20.9334 6.43954 21.3731 6.55083 21.8292C6.56553 21.8878 6.55169 21.9502 6.51015 21.9942C6.35027 22.1633 6.25011 22.3913 6.25011 22.6445V23.0555C6.25011 23.5765 6.66449 24 7.17408 24H9.82605C10.3353 24 10.75 23.5764 10.75 23.0555V22.6445C10.7501 22.3913 10.6498 22.1632 10.4896 21.994Z" fill="white"/>
</g>
<defs>
<filter id="filter0_d_1_1338" x="0" y="0" width="21" height="29" filterUnits="userSpaceOnUse" color-interpolation-filters="sRGB">
<feFlood flood-opacity="0" result="BackgroundImageFix"/>
<feColorMatrix in="SourceAlpha" type="matrix" values="0 0 0 0 0 0 0 0 0 0 0 0 0 0 0 0 0 0 127 0" result="hardAlpha"/>
<feOffset dx="2" dy="2"/>
<feGaussianBlur stdDeviation="1.5"/>
<feComposite in2="hardAlpha" operator="out"/>
<feColorMatrix type="matrix" values="0 0 0 0 0 0 0 0 0 0 0 0 0 0 0 0 0 0 0.25 0"/>
<feBlend mode="normal" in2="BackgroundImageFix" result="effect1_dropShadow_1_1338"/>
<feBlend mode="normal" in="SourceGraphic" in2="effect1_dropShadow_1_1338" result="shape"/>
</filter>
</defs>
</svg>
