<svg width="18" height="18" viewBox="0 0 18 18" fill="none" xmlns="http://www.w3.org/2000/svg">
<path id="Vector" d="M10.0128 1.26275C9.68464 0.934539 9.23959 0.750099 8.7755 0.75H2.5C2.03587 0.75 1.59075 0.934374 1.26256 1.26256C0.934374 1.59075 0.75 2.03587 0.75 2.5V8.7755C0.750099 9.23959 0.934539 9.68464 1.26275 10.0128L8.26275 17.0128C8.59092 17.3408 9.03596 17.5251 9.5 17.5251C9.96404 17.5251 10.4091 17.3408 10.7372 17.0128L17.0128 10.7372C17.3408 10.4091 17.5251 9.96404 17.5251 9.5C17.5251 9.03596 17.3408 8.59092 17.0128 8.26275L10.0128 1.26275ZM5.125 6.875C4.66076 6.87488 4.21557 6.69035 3.88738 6.362C3.55919 6.03365 3.37488 5.58837 3.375 5.12413C3.37512 4.65988 3.55965 4.2147 3.888 3.88651C4.21635 3.55832 4.66163 3.37401 5.12587 3.37413C5.59012 3.37424 6.0353 3.55877 6.36349 3.88713C6.69168 4.21548 6.87599 4.66076 6.87588 5.125C6.87576 5.58924 6.69123 6.03443 6.36287 6.36262C6.03452 6.69081 5.58924 6.87512 5.125 6.875Z" fill="white"/>
</svg>
