<svg width="13" height="13" viewBox="0 0 13 13" fill="none" xmlns="http://www.w3.org/2000/svg">
<path id="Vector" d="M11.2685 0.268483C11.6265 -0.0894942 12.2069 -0.0894942 12.5648 0.268483C12.9228 0.626468 12.9228 1.20686 12.5648 1.56485L7.71302 6.41667L12.5648 11.2685C12.9228 11.6265 12.9228 12.2069 12.5648 12.5648C12.2069 12.9228 11.6265 12.9228 11.2685 12.5648L6.41667 7.71302L1.56485 12.5648C1.20686 12.9228 0.626468 12.9228 0.268483 12.5648C-0.0894942 12.2069 -0.0894942 11.6265 0.268483 11.2685L5.12032 6.41667L0.268483 1.56485C-0.0894942 1.20686 -0.0894942 0.626468 0.268483 0.268483C0.626468 -0.0894942 1.20686 -0.0894942 1.56485 0.268483L6.41667 5.12032L11.2685 0.268483Z" fill="white"/>
</svg>
