<svg width="17" height="17" viewBox="0 0 17 17" fill="none" xmlns="http://www.w3.org/2000/svg">
<g clip-path="url(#clip0_153_109)">
<path d="M16.8228 13.4594C16.7079 13.249 16.5381 13.0651 16.3247 12.9312L8.69035 8.14057V7.4634C8.69022 7.44009 8.70141 7.41904 8.71811 7.40416C8.78638 7.39819 8.87676 7.3873 8.98307 7.36648C9.20085 7.32335 9.48703 7.24402 9.7744 7.05862C10.1959 6.78449 10.5453 6.41122 10.7903 5.96999C11.0352 5.52878 11.175 5.01865 11.1749 4.48053C11.1751 3.63382 10.8298 2.86168 10.2749 2.30718C9.72061 1.75223 8.94851 1.40741 8.10206 1.40741C7.46762 1.40741 6.87311 1.60099 6.3833 1.93242C5.89326 2.26379 5.50461 2.73179 5.27073 3.28405C5.14419 3.58325 5.28438 3.92853 5.58354 4.05516C5.88283 4.1816 6.22824 4.04178 6.35468 3.74262C6.49818 3.40302 6.7395 3.11229 7.04238 2.90776C7.34553 2.7033 7.70731 2.5843 8.10203 2.5843C8.62714 2.5843 9.09759 2.79547 9.44264 3.13979C9.78669 3.48457 9.99773 3.95502 9.99786 4.48053C9.99773 4.81565 9.9122 5.12623 9.76125 5.39863C9.61028 5.67056 9.3934 5.90259 9.13315 6.07162C9.03175 6.13929 8.88081 6.18886 8.75882 6.21164C8.69812 6.22329 8.64543 6.2295 8.6111 6.23223C8.59377 6.23395 8.58121 6.23472 8.57467 6.23495H8.57119L8.49137 6.23594L8.41304 6.25925C7.87963 6.41717 7.51354 6.90695 7.5134 7.46343V8.1587L0.616848 12.9699L0.616981 12.9694C0.222993 13.2443 -0.000364787 13.6897 4.47221e-07 14.1517C4.47221e-07 14.296 0.0218481 14.442 0.0664399 14.5835C0.255166 15.1844 0.811651 15.5926 1.44102 15.5926H15.5589C16.2014 15.5926 16.7659 15.1675 16.9437 14.55V14.5498C16.9813 14.4182 17 14.284 17 14.1517C17 13.9076 16.9379 13.6701 16.8228 13.4594ZM15.8127 14.2251V14.2248C15.7803 14.3376 15.6765 14.4159 15.5589 14.4159H1.44102C1.32564 14.4159 1.2236 14.3406 1.18917 14.231C1.1806 14.2043 1.17692 14.1777 1.17692 14.1517C1.17715 14.0669 1.21756 13.9851 1.28981 13.9351H1.29007L8.11916 9.1715L15.6992 13.9279C15.7392 13.9532 15.769 13.9859 15.7904 14.0246C15.8117 14.0632 15.8232 14.1071 15.8232 14.1517C15.8232 14.1758 15.8198 14.1998 15.8127 14.2251Z" fill="#D7C16C"/>
</g>
<defs>
<clipPath id="clip0_153_109">
<rect width="17" height="17" fill="white"/>
</clipPath>
</defs>
</svg>
