<svg width="17" height="15" viewBox="0 0 17 15" fill="none" xmlns="http://www.w3.org/2000/svg">
<path d="M16.8228 12.4594C16.7079 12.249 16.5381 12.0651 16.3247 11.9312L8.69035 7.14057V6.4634C8.69022 6.44009 8.70141 6.41904 8.71811 6.40416C8.78638 6.39819 8.87676 6.3873 8.98307 6.36648C9.20085 6.32335 9.48703 6.24402 9.7744 6.05862C10.1959 5.78449 10.5453 5.41122 10.7903 4.96999C11.0352 4.52878 11.175 4.01865 11.1749 3.48053C11.1751 2.63382 10.8298 1.86168 10.2749 1.30718C9.72061 0.752228 8.94851 0.407413 8.10206 0.407413C7.46762 0.407413 6.87311 0.600988 6.3833 0.932421C5.89326 1.26379 5.50461 1.73179 5.27073 2.28405C5.14419 2.58325 5.28438 2.92853 5.58354 3.05516C5.88283 3.1816 6.22824 3.04178 6.35468 2.74262C6.49818 2.40302 6.7395 2.11229 7.04238 1.90776C7.34553 1.7033 7.70731 1.5843 8.10203 1.5843C8.62714 1.5843 9.09759 1.79547 9.44264 2.13979C9.78669 2.48457 9.99773 2.95502 9.99786 3.48053C9.99773 3.81565 9.9122 4.12623 9.76125 4.39863C9.61028 4.67056 9.3934 4.90259 9.13315 5.07162C9.03175 5.13929 8.88081 5.18886 8.75882 5.21164C8.69812 5.22329 8.64543 5.2295 8.6111 5.23223C8.59377 5.23395 8.58121 5.23472 8.57467 5.23495H8.57119L8.49137 5.23594L8.41304 5.25925C7.87963 5.41717 7.51354 5.90695 7.5134 6.46343V7.1587L0.616848 11.9699L0.616981 11.9694C0.222993 12.2443 -0.000364787 12.6897 4.47221e-07 13.1517C4.47221e-07 13.296 0.0218481 13.442 0.0664399 13.5835C0.255166 14.1844 0.811651 14.5926 1.44102 14.5926H15.5589C16.2014 14.5926 16.7659 14.1675 16.9437 13.55V13.5498C16.9813 13.4182 17 13.284 17 13.1517C17 12.9076 16.9379 12.6701 16.8228 12.4594ZM15.8127 13.2251V13.2248C15.7803 13.3376 15.6765 13.4159 15.5589 13.4159H1.44102C1.32564 13.4159 1.2236 13.3406 1.18917 13.231C1.1806 13.2043 1.17692 13.1777 1.17692 13.1517C1.17715 13.0669 1.21756 12.9851 1.28981 12.9351H1.29007L8.11916 8.1715L15.6992 12.9279C15.7392 12.9532 15.769 12.9859 15.7904 13.0246C15.8117 13.0632 15.8232 13.1071 15.8232 13.1517C15.8232 13.1758 15.8198 13.1998 15.8127 13.2251Z" fill="white"/>
</svg>
