<svg viewBox="0 0 39 26" fill="none" xmlns="http://www.w3.org/2000/svg">
<g id="Vector" filter="url(#filter0_d_1_1260)">
<path d="M33.8995 15.315L31.9814 7.15131C31.0099 3.52282 27.7245 1 23.9708 1H11.0292C7.27546 1 3.99009 3.52276 3.01859 7.15131L1.10046 15.315C0.609458 17.6567 1.96027 19.9931 4.23456 20.7334L4.34671 20.7694C6.45162 21.4552 8.74809 20.5713 9.85288 18.6516L11.5218 16.1818C11.9409 15.4537 12.7167 15.0046 13.5553 15.0046H21.4448C22.2834 15.0046 23.0592 15.4537 23.4782 16.1818L25.1472 18.6516C26.252 20.5713 28.5489 21.4552 30.6539 20.7694L30.7655 20.7334C33.0396 19.9931 34.3906 17.6567 33.8995 15.315ZM13.3135 9.84417H10.6265V12.5337H8.28718V9.84417H5.6002V7.50402H8.28718V4.81549H10.6265V7.50402H13.3135V9.84417ZM25.1524 4.2552C25.9662 4.2552 26.625 4.9145 26.625 5.72899C26.625 6.54239 25.9662 7.20169 25.1524 7.20169C24.3396 7.20169 23.6809 6.54239 23.6809 5.72899C23.6809 4.91444 24.3396 4.2552 25.1524 4.2552ZM22.2082 10.1486C21.3955 10.1486 20.7362 9.48875 20.7362 8.67432C20.7362 7.86144 21.3955 7.20162 22.2082 7.20162C23.0215 7.20162 23.6803 7.86144 23.6803 8.67432C23.6803 9.48881 23.0216 10.1486 22.2082 10.1486ZM25.1524 13.0945C24.3396 13.0945 23.6809 12.4352 23.6809 11.6218C23.6809 10.8073 24.3396 10.148 25.1524 10.148C25.9662 10.148 26.625 10.8073 26.625 11.6218C26.625 12.4352 25.9662 13.0945 25.1524 13.0945ZM28.0965 10.1486C27.2837 10.1486 26.6249 9.48875 26.6249 8.67432C26.6249 7.86144 27.2837 7.20162 28.0965 7.20162C28.9097 7.20162 29.569 7.86144 29.569 8.67432C29.569 9.48881 28.9097 10.1486 28.0965 10.1486Z" fill="white"/>
</g>
<defs>
<filter id="filter0_d_1_1260" x="0" y="0" width="39" height="26" filterUnits="userSpaceOnUse" color-interpolation-filters="sRGB">
<feFlood flood-opacity="0" result="BackgroundImageFix"/>
<feColorMatrix in="SourceAlpha" type="matrix" values="0 0 0 0 0 0 0 0 0 0 0 0 0 0 0 0 0 0 127 0" result="hardAlpha"/>
<feOffset dx="2" dy="2"/>
<feGaussianBlur stdDeviation="1.5"/>
<feComposite in2="hardAlpha" operator="out"/>
<feColorMatrix type="matrix" values="0 0 0 0 0 0 0 0 0 0 0 0 0 0 0 0 0 0 0.25 0"/>
<feBlend mode="normal" in2="BackgroundImageFix" result="effect1_dropShadow_1_1260"/>
<feBlend mode="normal" in="SourceGraphic" in2="effect1_dropShadow_1_1260" result="shape"/>
</filter>
</defs>
</svg>
