<svg width="397" height="358" viewBox="0 0 397 358" fill="none" xmlns="http://www.w3.org/2000/svg">
<g clip-path="url(#clip0_209_817)">
<path d="M39 93C41 92.79 39.29 91 40.7 90.1C41.99 90.86 43.99 90.19 45.86 91.3C45.504 91.7093 45.2139 92.1715 45 92.67C44.9219 93.3344 44.9219 94.0057 45 94.67C41.53 95.21 41.2 98.79 38.94 100.67L41.53 101.57L36.99 102.33L40.19 104.66C38.19 108.93 34.41 111.14 31.65 113.84C27.82 114.97 24.29 116.15 20.7 117.02C16.96 117.92 13.39 115.88 9.39 116.02L7.82 114.02H5.51C4.93 111.6 1.8 111.72 1 109.52V107L1.83 106.67L1 106C1 104.4 1.07 102.8 0.95 101.21C0.95 100.78 0.33 100.4 0 100V99L0.83 98.67L0 98V97C0.64 96.19 1.3 95.41 1.9 94.58C2.53037 93.4933 3.25303 92.4629 4.06 91.5C5.31 90.3 6.89 89.44 8.17 88.26C9.46534 87.2468 10.6791 86.1334 11.8 84.93C12.8 83.63 14.97 83.2 16.9 82.26C16.9 82.26 17.01 81.81 17.18 81.17H22.73L24.27 79.54H27.89L34.31 83.92L32 86L28.41 87.78C30 89 31.19 90.1 33 90L34 91C34.79 93 36.75 93.78 38.66 95.06C38.77 94.36 38.88 93.67 39 93ZM27.89 104.9L28.09 105.09L28.9 104.39L28.59 104.08C28.31 104.342 28.1357 104.698 28.1 105.08L27.91 104.88L27.09 105.58L27.4 105.89C27.6817 105.633 27.8566 105.28 27.89 104.9ZM23.89 104.9L24.09 105.09L24.9 104.39L24.59 104.08C24.31 104.342 24.1357 104.698 24.1 105.08L23.91 104.88L23.09 105.58L23.4 105.89C23.6817 105.633 23.8566 105.28 23.89 104.9ZM33 100L33.83 99.67L33 99C32.69 98.48 32.39 98 32.08 97.41C33.6 95.78 33.6 95.78 33.54 93.68L30 96C30 95.67 30.14 95.22 30 95C28.62 93.37 27.19 91.53 25.08 91.08C23.5866 90.662 22.1494 90.0643 20.8 89.3C20.1119 89.0576 19.4108 88.854 18.7 88.69L17.78 90.79L15.12 89.79V94.31L12.63 97.83L10.77 96.91C11.31 99.61 10.59 101.91 11.44 104.38L13.52 103.22C14.43 103.91 15.3 104.58 16.04 105.16L26.44 95.77L28.15 99.29L25.74 101.89H29.32L32 100L32.33 100.83C32.55 100.54 32.77 100.26 33 100ZM24.57 81.83C25.25 82.6 25.45 82.98 25.57 82.96C26.0486 82.8546 26.5171 82.7074 26.97 82.52C26.36 82.35 25.76 82.18 26.73 83.15C27.68 84.45 28.73 84.09 30.06 83.56C29.91 83 29.76 82.46 29.55 81.67C28.56 82.21 27.79 82.62 24.57 81.83ZM9 95C8.33 95.62 7.27 96.15 7.1 96.88C7.02987 97.6092 7.16495 98.3435 7.49 99C7.24 100.81 7.09 101.82 6.94 102.83L7.94 102.32L8.45 104.58C9.45 102.35 8.45 100.58 9.94 99.23C10.19 99.02 10.67 97.23 9.01 97.04C9.02618 96.3416 8.9894 95.6429 8.9 94.95L9.1 95.14L9.92 94.45L9.6 94.13C9.35009 94.3822 9.14694 94.6768 9 95ZM19.16 108.82H20.06C19.93 107.94 19.81 107.05 19.68 106.17H19.16V108.82ZM33.75 108H33.25V110H33.75V108ZM13.83 105.18H12.97C13.09 105.74 13.21 106.3 13.34 106.87L13.83 106.8V105.18ZM19 87.66V87.32H18V87.66H19ZM32 92.66V92.32H31V92.66H32ZM44 93.66V93.33H43V93.66H44ZM38 104.66V104.33H37V104.66H38ZM9.33 106H9.67V105H9.33V106ZM35 107.32V107.65H36V107.32H35ZM28 109.65V109.32H27V109.65H28ZM31.66 109.99H31.33V110.99H31.66V109.99Z" fill="#D7C16C"/>
<path d="M221 0V2L219 1V0H221Z" fill="#D7C16C"/>
<path d="M397 15L396.17 14.33L397 14V15Z" fill="#D7C16C"/>
<path d="M0 106H1V107H0V106Z" fill="#D7C16C"/>
<path d="M124 358C124.23 357.72 124.45 357.44 124.68 357.17C124.78 357.44 124.89 357.72 125 358H124Z" fill="#D7C16C"/>
<path d="M66 152C65.53 151 65.0701 150.06 64.4801 148.83L62.48 149.83C61.59 149.21 60.6101 148.5 58.8301 147.24C59.5201 148.94 59.8301 149.69 60.2401 150.71L58.14 151.1V146.34L60.8801 147.17C59.7001 142.33 59.7001 142.33 57.0801 139.88L55.46 140.88C55.46 140.88 55.3101 140.88 55.2701 140.82C54.6201 139.75 54.0001 138.67 53.2701 137.38L55.55 134.83C54.7877 134.605 54.0631 134.268 53.4001 133.83C53.0473 133.319 52.7961 132.746 52.66 132.14L50.1301 131.85V128.43L47.92 127.65C48.15 126.98 48.3901 126.31 48.8301 125.06C48.0501 124.27 46.9301 123.15 45.8301 122.06C45.1201 121.33 44.42 120.58 43.59 119.7C46.59 118.11 48.04 120.51 50.01 121.06C49.82 121.48 49.62 121.9 49.3 122.57L52.75 126.99L55 123.53C56.69 125.99 58.1 128.53 61 129.42L60.1301 130.47L62.76 134V139H62.2701C62.1301 138.12 61.9801 137.23 61.8101 136.18H58.42L60.8101 138.84L62.16 142.63L64.56 139.02C66.97 138.75 66.56 141.61 67.93 142.37C69.52 143.23 69.59 145.21 71.27 146.1C72.6 146.81 73.4401 148.44 74.6201 149.8L73.89 150.69C77.21 150.93 77.16 153.95 78.43 155.94L80 154.79C82.23 157.26 84.3201 159.67 86.5401 161.94C87.4001 162.82 88.7201 163.25 89.5401 164.13C90.3688 165.075 91.0868 166.112 91.6801 167.22C91.9056 167.723 92.0733 168.249 92.1801 168.79C94.7001 168.79 95.59 171.62 97.86 172.38C98.41 174.99 100.29 175.7 102.65 176.38C103.87 176.7 104.65 178.23 106.44 178.13C107.54 178.07 108.69 179.01 109.87 179.52L108.78 180.79L113.97 181.19C113.97 181.79 113.97 182.41 114.02 183.07L113.88 182.92L113.06 183.62L113.37 183.93C113.614 183.645 113.826 183.333 114 183C115.682 183.249 117.351 183.583 119 184C120.92 184.54 122.74 185.59 124.68 185.9C127.389 186.304 130.15 185.641 132.38 184.05C133.269 183.435 134.303 183.063 135.38 182.97L140.38 177.97H144.32C145.01 175.72 147.53 175.78 148.73 174.44C150.06 172.94 153.03 173.15 153 170.35C155.2 170.11 155 166.7 157.81 166.9C157.81 166.28 157.64 165.49 157.95 165.09C159.77 162.72 160.58 159.83 162.66 157.48C167.22 152.35 172.48 147.74 175.77 141.57C177.52 138.3 179.07 134.92 180.94 131.72C183.406 127.441 185.507 122.962 187.22 118.33C187.71 117.02 187.39 115.67 187.97 114.66C189.48 112.05 189.67 109.03 190.66 106.28C191.57 103.78 192.66 100.78 191.91 97.79C193.69 94.96 192.53 91.19 194.84 88.52C194.42 85.22 196.13 82.3 197.19 79.52C198.1 77.13 197.28 74.99 198.32 72.04C199.326 70.604 199.901 68.9113 199.98 67.16C199.92 64.93 200.62 62.92 203.14 61.89C204.14 61.49 204.71 60.09 205.43 59.21L209.72 62.21C209.84 63.02 209.97 63.94 210.21 65.58L212.65 63.15L214.29 65.73L218.1 64.47L216.87 62.09C218.78 60.19 217.68 58.09 216.29 55.79L212.29 58.31C212.6 56.13 212.86 54.31 213.04 53.04L215.64 47.86L218 49.32V55.55L219.26 56.81C219.48 56.71 219.79 56.67 219.93 56.49C220.78 55.35 221.58 54.18 222.41 53.03C223.476 51.6151 224.883 50.4935 226.5 49.77L230.15 56C229.67 56.71 229.31 57.22 228.98 57.75C228.91 57.87 228.98 58.08 228.98 58.52L231.03 59.45C230.55 62.22 231.91 65.23 229.78 68.19L231.73 70.27L233.23 77.95L230.23 76.7V81.7L232 83.89V81H234.77C235.29 83.28 234.87 85.66 235.05 88L234.91 87.85L234.09 88.55L234.41 88.87C234.631 88.5975 234.829 88.3064 235 88C235.28 88.39 235.82 88.78 235.91 89.26C236.26 90.94 236.45 92.65 236.74 94.61C236.65 94.72 236.32 95.08 235.89 95.55L237.77 96.18L236.77 98.54L239.07 99.37C238.8 100.05 238.54 100.72 238.23 101.53C240.23 103.07 238.05 104.97 237.54 107.53L239.37 106.06C240.74 106.56 241.17 110 240.16 112.65L242.45 113.47L240.2 114.09C240.79 115.27 241.34 116.44 241.96 117.57C242.58 118.7 243.24 119.72 244.02 121.03L243.09 122.44C244.23 123.44 244.32 124.44 243.09 125.44C245.654 128.244 247.386 131.707 248.09 135.44C248.81 139.44 250.78 143.07 251.09 147.2C251.15 147.97 252.46 148.59 252.89 149.43C253.119 150.297 253.207 151.195 253.15 152.09L254.53 151.03C254.82 151.65 255.11 152.27 255.53 153.14L257.65 152.14C257.79 152.56 257.99 153.14 258.29 154L259.29 153.3C263.14 155.3 265.62 151.24 269.68 151.3L271.07 152.11L274.26 148.11C274.85 148.35 275.43 148.83 275.78 148.7C280.98 146.7 284.87 142.63 289.62 139.91C291 136.84 294.02 135.71 296.51 133.91C297.4 133.27 297.66 131.78 298.44 130.23C301.91 129.9 303.91 126.92 305.53 123.86C305.86 123.228 306.315 122.67 306.869 122.221C307.423 121.772 308.063 121.442 308.75 121.25L309.75 122.25C309.91 121.14 310.04 120.25 310.05 120.25C311.31 118.68 312.05 117.64 312.95 116.67C313.85 115.7 315.05 114.56 316.01 113.43C316.72 112.6 317.2 111.57 317.9 110.73C319.15 109.21 320.97 108.34 322.16 106.6C323.3 105.029 324.568 103.554 325.95 102.19C327.31 100.79 327.95 98.69 329.06 97.04C330.602 94.8022 332.271 92.6553 334.06 90.61C336.64 87.61 339.53 84.98 342.06 81.97C344.699 79.0191 347 75.7823 348.92 72.32C349.74 70.67 351.79 71.44 351.98 69.69C352.14 68.3 353.08 67.75 354.2 66.94C355.72 65.85 356.54 63.8 357.72 62.09H359.72L361.48 58.2H366.74C366.54 59.13 366.34 60.1 366.19 61.12L366.04 60.97L365.23 61.66L365.54 61.98C365.725 61.6691 365.879 61.3409 366 61C366.333 60.9829 366.667 60.9829 367 61L370 57.95L369.85 58.09C370.08 58.37 370.31 58.64 370.55 58.91L370.86 58.6C370.598 58.353 370.309 58.135 370 57.95C370.14 56.35 371.45 57.27 372.24 57C374.1 58.51 373.33 62.27 377.44 62.08C376.84 63.51 375.92 65.19 376.1 65.32C377.35 66.19 376.03 67.08 376.32 67.91C376.649 68.9626 376.854 70.0499 376.93 71.15C377.03 72.29 376.93 73.45 376.93 74.62C375.8 74.36 375.8 74.36 375.42 74.01C375 74.84 374.57 75.66 374.1 76.6L375.98 78.6L374.2 79.22C373.91 80.71 373.63 82.22 373.29 83.98H375C375.32 84.52 375.63 85.06 375.89 85.49C375.501 86.8528 375.216 88.2436 375.04 89.65C374.91 92.31 374.9 94.98 375.04 97.65C375.35 104.13 373.92 110.36 371.86 116.35C371.03 118.76 371 121.24 370.21 123.64C369.646 125.259 369.263 126.936 369.07 128.64C368.88 130.64 366.44 132.15 367.97 134.41C366.09 135.87 367.52 138.32 366.15 140.16C365.15 141.52 365.4 143.79 364.86 145.58C364.4 147.1 364.86 148.92 363.37 150.14C363.154 150.37 363.036 150.675 363.04 150.99C363.048 153.715 362.749 156.432 362.15 159.09C361.69 161.59 360.36 163.84 360.15 166.25C359.956 168.468 359.578 170.665 359.02 172.82C357.96 177.06 357.15 181.36 356.2 185.61C355.25 189.86 353.28 193.85 352.52 198.09C351.86 201.81 350.8 205.41 350.08 209.09C349.611 212.015 348.851 214.886 347.81 217.66C347.28 218.93 346.64 220.17 346.05 221.43C347.85 222.49 345.76 223.49 345.99 224.59C346.54 227.22 345.14 229.52 344.57 231.97C343.895 235.166 343.061 238.327 342.07 241.44C341.22 243.93 339.64 246.14 339.92 249.1C340.007 251.619 339.398 254.114 338.16 256.31C339.43 257.67 338.24 258.93 337.61 259.73C336.14 261.59 336.69 263.8 336.07 265.78C335.669 267.349 335.372 268.942 335.18 270.55L336.02 271.46L334.46 273C333.74 275.39 333.12 277.46 332.51 279.53C332.46 284.11 330.03 288.31 329.74 293C329.48 297.19 327.34 301.25 325.99 305.49L328.31 306.64L324.93 307.3L324.98 308L340.85 306.78L348.17 303.16L358.58 307.27C354.63 309.49 352.22 312.73 348.07 313.53C346.407 314.01 344.643 314.01 342.98 313.53C339.882 312.479 336.5 312.658 333.53 314.03L332.66 312.29C331.66 312.53 330.83 312.76 330.01 313C329.92 312.31 329.79 311.66 329.77 311.58L327.77 312.33L328.16 312.89L330 313C329 314.77 326.08 313.59 325.71 315.93C323.61 316.13 321.59 315.52 318.71 317.58C318.36 317.69 319.21 317.22 320.27 316.58C318.36 315.23 317.79 316.65 318.71 317.58C320.12 317.4 320.31 317.82 320.54 318.29C318.69 320.43 318.39 320.48 315.83 319.21L312.14 320.21L312.99 317.21L312.34 316.93L310.18 320.18L307 319L306.67 318.17L306 319L304.61 318.34L298.48 322.58C298.21 321.51 298.07 320.96 297.89 320.23L301.78 319.67L299.1 318.46L298.16 319.07L295.76 317.87L294.49 318.96L293.56 317.01H292.46L291.46 319.2L290.74 317.12C286.59 317.62 282.55 320.77 278.12 317.64L274.46 320.93L273.68 320.16L268.16 322.97L265 322C263.73 320 261.85 321.58 260.26 320.82C260.09 321.62 260 322.08 259.82 322.95L256.04 322.47L255.04 323.81C252.8 322.52 250.59 323.19 249.2 323.04L244.55 327.16L243 325.17C242.53 325.26 242.24 325.23 242.08 325.35C241.45 325.86 240.93 326.73 240.23 326.9C238.983 327.134 237.828 327.717 236.899 328.58C235.97 329.444 235.304 330.553 234.98 331.78C229.61 332.16 224.72 334.59 219.49 333.92L217.55 335.86H213.15C213.06 335.33 212.99 334.86 212.9 334.25L216.24 333.57C212.44 331.3 208.79 336.11 205.4 333.02C204.4 334.71 201.32 333.29 200.97 336.35C200.959 336.19 200.959 336.03 200.97 335.87L198.97 336.25L199.06 336.9C199.732 336.897 200.39 336.707 200.96 336.35C202.757 335.971 204.599 335.85 206.43 335.99C207.97 336.09 209.13 333.82 210.93 335.4L209.66 336.76C205.47 337.37 201.17 337.5 197.49 339.76L187 341.08C187.05 340.14 187.07 339.69 187.12 338.86L188.36 339.77L190.99 338.47L189.69 337.17L184 338C183.61 337.66 183.25 337.11 182.81 337C181.875 336.925 180.935 336.925 180 337C179.3 335.15 178.1 336.13 177.06 336.38C177.4 336.95 177.7 337.48 178 338L175.63 340.89L172.02 341.16V341.84C173.56 341.84 175.41 342.37 176.58 341.71C178.06 340.87 179.3 341.09 181.33 341.17C180.52 341.98 180.1 342.77 179.51 342.91C177.51 343.4 175.45 344.07 173.51 343.91C171.57 343.75 169.88 345.21 167.94 345.01C167.557 344.886 167.193 344.707 166.86 344.48L169.99 342.48L168.39 340.88L164.39 342.88L163.39 342.03L156.32 345.72L158.84 346.33C155.56 346.38 152.99 348.56 149.84 349.33C146.598 349.979 143.393 350.803 140.24 351.8L139 351L142.38 348.23H136.7C136.53 348.55 136.08 349.35 135.63 350.15L134.98 349.81C134.987 348.783 135.184 347.766 135.56 346.81C135.37 346.27 135 346.47 135.02 346.62C135.117 347.1 135.261 347.568 135.45 348.02C135.62 347.41 135.79 346.81 135.56 346.81C134.595 347.842 133.328 348.542 131.94 348.81L128.09 347.81L122.2 352H126C126 352.16 126 352.46 126 352.48C124.09 353 122.18 353.48 119.93 354.08C120.37 353.23 120.61 352.78 121.14 351.78L116.26 352.97C116.47 350.22 120.34 350.69 120.16 348.02H122.41L124 346.02L124.33 346.85L125 346H127.43C127.73 345.539 128.145 345.164 128.635 344.913C129.124 344.662 129.671 344.544 130.22 344.57C130.75 344.39 130.55 344.01 130.41 344.03C129.929 344.135 129.458 344.279 129 344.46C129.61 344.63 130.21 344.81 130.22 344.57C133.02 341.57 133.03 341.57 136.22 343.13L139.73 339.94C141.23 340.19 142.36 341.66 144.46 340.3C147.327 338.643 150.588 337.789 153.9 337.83C156.04 337.75 158.55 337.53 160.56 336.04C161.17 335.58 162.56 335.17 162.86 335.47C164.06 336.56 164.37 334.39 165.23 335.01C165.551 335.309 165.836 335.645 166.08 336.01L165.94 335.86L165.12 336.56L165.44 336.88C165.652 336.603 165.839 336.309 166 336C166.49 336.27 167 336.59 167.62 336.94L171.75 335.59V333.31L175.26 332.61L173 331.46L166.51 332.14L165.39 329.75L164.65 331.92L162.76 331.77L163.91 330.47C161.91 328.73 163.42 326.47 162.91 324.54L164.45 323L165.51 323.95L167.94 321.47L167.03 320.47L179.89 317.97V319.59L178.08 320.31C178.26 320.55 178.46 320.95 178.58 320.93C180.28 320.64 181.95 320.17 183.65 320C185.35 319.83 187 320.13 188.65 319.9C189.73 319.633 190.772 319.23 191.75 318.7C192.04 317.94 192.22 317.49 192.65 316.36C192.91 317.61 193.01 318.06 193.11 318.55C195.99 320.23 198.6 317.43 201.58 317.99C201.77 317.44 201.97 316.87 202.12 316.42C203.231 315.838 204.397 315.365 205.6 315.01C206.93 314.88 208.268 314.863 209.6 314.96C209.81 315.56 210.02 316.14 210.22 316.72C212.22 318.22 214.34 314.13 216.46 317L221.96 312.88C227.65 311.67 234.09 311.76 239.43 308.01C241.56 310.01 244.2 308.28 246.72 309.32L247.36 311.15C247.99 310.29 248.47 309.62 248.96 308.96C249.66 308.43 250.35 307.88 251.07 307.36C251.95 306.73 252.7 306.57 252.96 307.96L251.96 308.96C251.615 309.282 251.294 309.63 251 310L250.86 309.85L250.04 310.54L250.36 310.86C250.599 310.593 250.813 310.305 251 310C251.308 309.642 251.642 309.308 252 309L253 308H254V309.88C255.061 309.533 256.07 309.046 257 308.43C258.83 306.81 260.78 305.89 262.69 306.2C262.84 306.2 262.91 306.72 263.08 307.05L262.94 306.9L262.12 307.59L262.43 307.91C262.65 307.626 262.841 307.322 263 307C264.77 307.48 265.33 305.67 266 305.31C267 305.39 267.51 305.61 267.89 305.44C269.38 304.77 270.76 304.38 271.98 306L271.84 305.85L271.02 306.54L271.33 306.86C271.582 306.597 271.806 306.309 272 306C272.553 305.55 273.196 305.223 273.886 305.042C274.576 304.861 275.297 304.83 276 304.95C275.976 305.3 275.976 305.65 276 306L275.85 305.85L275.04 306.54L275.35 306.86C275.595 306.596 275.813 306.308 276 306C276.331 305.954 276.666 305.937 277 305.95L277.32 306.78L278 306C278.61 305.89 279.47 306 279.8 305.62C282.16 302.97 285.48 303.71 288.39 303.03C288.621 302.974 288.862 302.97 289.095 303.016C289.328 303.063 289.548 303.16 289.74 303.3C291.34 305.02 292.64 303.54 293.98 303.01C294.873 303.299 295.736 303.67 296.56 304.12C297.286 304.724 297.956 305.394 298.56 306.12C298.88 305.26 299.09 304.68 299.38 303.88L300.38 306.01H301.52C303.13 301.49 300.85 296.85 301.52 292.01L298.11 292.7L296.93 291.45L301.5 290.51C302.08 287.88 302.57 285.64 303.12 283.12C300.27 283.47 297.77 284.12 295.32 283.96C293.05 283.83 290.86 284.96 288.63 284.96L288.38 283.96L286.93 286.06C285.128 286.162 283.322 286.162 281.52 286.06C278.87 285.72 276.52 286.77 274.12 287.5C272.29 288.05 272.33 288.16 270.29 287.09L262.15 289.71L261.84 289.45C258.39 290.61 254.4 289.65 251.27 292.1L247.58 290.78L245.98 293.48L244.45 292C241.84 292.94 239.25 293.92 236.63 294.8C236.108 295.029 235.527 295.092 234.968 294.982C234.408 294.871 233.896 294.591 233.5 294.18C233.2 293.9 231.88 294.65 231.06 294.99C228.29 296.15 225.15 295.69 222.41 296.99C221.41 297.44 220.41 297.76 219.11 298.24L216 296C217.41 294.67 219.45 295.32 221 294.69C221.051 294.389 221.033 294.08 220.946 293.787C220.86 293.494 220.707 293.225 220.5 293C221.498 293.091 222.502 293.091 223.5 293C224.08 292.88 224.5 292.3 225.1 292.07C225.851 291.832 226.62 291.654 227.4 291.54C224.56 290.34 222.83 291.64 220.52 293.04H215.73L214.08 294.44L216 296H214.47L213.52 298.12L212.52 295.88L211.57 298.03L210.57 297.03L209 299V297L205.28 298.88C205.18 298.41 205.08 297.88 204.97 297.35L206.89 296.62V294.36L197.96 296.48V301.33L195.4 300.1L194.49 300.93L193.08 299.52L196.67 297.17H191.26C190.97 298.08 193.57 299.26 190.96 299.99C191.016 299.95 191.066 299.903 191.11 299.85L190.41 299.03L190.1 299.35C190.365 299.591 190.653 299.805 190.96 299.99C189.69 302.49 186.96 301.73 184.88 302.43C182.009 303.352 178.964 303.605 175.98 303.17L179.98 301.34C180.23 300.19 179.74 299.68 178.4 300.06L176.13 300.67L174.13 303L173.95 304.56C171.04 306.31 167.63 306.09 164.49 306.93C161.35 307.77 158.73 309.54 155.69 308.93C152.244 311.067 148.199 312.031 144.16 311.68C144.43 311.19 144.67 310.74 145.09 309.95H141.09L140.76 309.12L140 310L137.88 311.13L136.42 310C135.52 313.44 132.42 312.72 130.01 313.7L134.83 314.12L132 317L130.39 316.05C128.05 316.69 125.64 317.27 123.28 318.05C121.12 318.75 119.02 319.63 116.7 320.5L118.89 324.75V329.48C116.19 326.4 112.8 324.9 111.18 321.43L111.97 320.54C110.27 318.99 110.66 315.92 107.97 315.03C107.82 314.27 108.46 313.12 106.58 313.03H107.05C106.93 312.38 106.8 311.73 106.67 311.08L106.03 311.17C106.028 311.84 106.219 312.496 106.58 313.06C107.12 313.81 106.47 314.97 107.97 315.06C108.11 315.81 108.25 316.56 108.5 317.88C108.217 318.187 108.022 318.564 107.934 318.972C107.846 319.38 107.869 319.804 108 320.2C108.87 322.01 109.84 323.77 110.8 325.61L109.08 328.56L106.78 325.34L101.41 326.71C96.95 321.52 94.54 314.89 91.19 308.47L91.97 307.47L90.1801 306.81C89.1188 303.221 87.8363 299.701 86.34 296.27C84.629 292.828 83.2172 289.244 82.1201 285.56C81.1201 281.78 78.6301 278.65 77.9801 274.69L78.8601 273.64C77.6146 271.916 76.6056 270.032 75.8601 268.04C73.4201 262.48 72.07 256.6 70.46 250.84C68.9563 245.019 66.8969 239.357 64.31 233.93C63.47 232.27 64.1001 230.57 63.4901 228.79C62.2201 225.13 59.92 221.94 59.17 217.79C59.38 217.12 59.7001 216.09 60.6101 213.79C60.4101 213.27 60.0301 213.48 60.0601 213.62C60.1545 214.1 60.2986 214.569 60.4901 215.02C60.6601 214.42 60.8301 213.82 60.6101 213.79C59.5001 215 59.0001 215 58.2201 215C57.1601 211.42 56.1401 207.73 54.9701 204.1C54.1201 201.44 52.6201 198.96 52.9701 196.01C53.6301 195.56 54.28 195.12 55.16 194.54C54.56 193.29 53.99 192.11 53.16 190.38L51.5 192.83C51.38 192.73 51.09 192.61 50.98 192.4C47.98 186.65 46.55 180.3 43.98 174.4C44.53 171.93 42.4301 170.47 41.2901 169.11C39.7347 167.139 38.6105 164.863 37.9901 162.43C37.5201 160.86 37.5401 160.88 34.9901 159.64L35.89 158.49C34.5 158.16 33.8901 157.07 33.2901 155.9C30.8753 150.995 27.9383 146.365 24.5301 142.09C23.9101 141.388 23.4375 140.568 23.14 139.68C22.2785 136.857 21.745 133.945 21.55 131C22.03 131.68 22.55 132.34 22.99 133C23.99 134.52 24.7801 136.16 27.0401 135.89L26.89 136.03C27.12 136.31 27.36 136.58 27.59 136.85L27.9 136.54C27.6376 136.293 27.3493 136.075 27.0401 135.89C26.7544 135.417 26.5006 134.926 26.2801 134.42C28.7801 132.17 25.06 130.31 25.91 128.1L24.09 127.74V124.21C24.39 124.21 24.73 124.21 24.84 124.32C25.56 125.23 26.24 126.18 27.43 127.8C27.79 125.74 28.0201 124.45 28.3701 122.46L29.31 124.71L32 125.16C32 126.05 32 127 32 127.99L31.8601 127.84L31.0401 128.54L31.35 128.85C31.5971 128.588 31.815 128.299 32 127.99C32.6582 127.527 33.3427 127.103 34.05 126.72C33.69 127.91 33.46 128.72 33.16 129.72L35.75 130.16C35.88 131.03 36.0101 131.95 36.1501 132.93L38.1501 132.83C37.7701 131.83 37.4701 131.07 37.1501 130.19C37.5301 130.13 38.06 129.86 38.42 130C41.27 131.16 44.0801 132.39 47.2901 133.76C49.8601 136.14 48.67 140.85 51.93 143.42L50.7401 144.78L55 146.48C54.83 147.39 54.6201 148.48 54.3801 149.79H56.21L59.67 156.57C59.91 154.94 60.0401 154.02 60.2201 152.78L61.9701 155.68C61.6801 157.4 59.5101 159.18 61.9701 160.97C61.5001 163.68 64.13 163.69 65.45 164.84L66.6901 163.97C67.0801 163.97 67.2801 163.91 67.4001 163.97C67.5201 164.03 67.8701 164.41 68.1201 164.61C69.3801 165.54 71.4301 166.25 71.7601 167.43C72.7601 171.02 77.41 171.43 77.99 175.26L77.1501 176.35C78.4001 177.86 79.68 179.41 81.02 181L80.88 180.85L80.06 181.55L80.38 181.86C80.614 181.594 80.8216 181.306 81 181C81.95 181.29 82.95 181.62 83.95 182L84.95 183V184.48C87.39 185.26 88.6601 187.48 90.4901 189H93C93.11 189.28 93.1401 189.65 93.3501 189.82C96.4801 192.36 103.66 195.82 108 197C108.09 198.26 109.06 198.31 109.64 197.76C110 197.315 110.511 197.02 111.076 196.929C111.641 196.839 112.219 196.96 112.7 197.27C115.09 198.95 117.27 197.81 119.42 196.95C120.966 196.233 122.462 195.414 123.9 194.5L123.06 193.5L126.96 190.43L125.39 188.87H120.24C120.1 188.26 119.99 187.81 119.88 187.34C118.862 187.541 117.859 187.815 116.88 188.16C116.43 186.85 115.99 185.51 113.68 186.35C114.681 187.062 115.754 187.669 116.88 188.16C117.63 189.47 119.28 189.27 120.34 190.01C121.173 190.819 121.905 191.725 122.52 192.71C117.52 192.14 114.52 190.71 109.89 186.86L108.34 188C108.19 187.52 108.05 187.08 107.83 186.42C103.941 185.235 100.279 183.403 97 181C96.22 180.46 95.6601 179.61 94.9001 179C93.9001 178.25 92.7001 177.76 91.7901 176.94C90.8801 176.12 90.64 175.14 89.89 174.42C89.1504 173.851 88.3446 173.374 87.4901 173C86.9649 172.793 86.4677 172.521 86.0101 172.19C85.1301 171.32 84.3601 170.34 83.3001 169.12H81.77L79 171.86C79 169.86 79 168.93 79 167.93L79.14 168.08L79.96 167.39L79.64 167.07C79.4015 167.337 79.1873 167.625 79 167.93C77.28 167.26 78.0801 166.43 79.0801 165.45L75.74 162.5L74.56 165L72.8001 163.38L76.17 162.26L72.5401 159.7L67.4801 152H66ZM266.86 312.87L267.06 313.07L267.87 312.37L267.56 312.05C267.284 312.315 267.11 312.669 267.07 313.05L266.88 312.86L266.06 313.55L266.37 313.87C266.652 313.609 266.827 313.253 266.86 312.87ZM215.86 52.87L216.05 53.07L216.87 52.37L216.56 52.06C216.276 52.3193 216.101 52.6767 216.07 53.06L215.87 52.87L215.06 53.57L215.37 53.88C215.649 53.6243 215.827 53.2763 215.87 52.9L215.86 52.87ZM118.07 298.87L117.87 299.06C118.1 299.34 118.34 299.61 118.57 299.88L118.88 299.56C118.617 299.283 118.261 299.112 117.88 299.08L118.08 298.88L117.38 298.07L117.07 298.38C117.336 298.659 117.696 298.829 118.08 298.86L118.07 298.87ZM163.07 192.08L162.88 191.88L162.06 192.58L162.38 192.89C162.657 192.627 162.828 192.271 162.86 191.89L163.06 192.08L163.88 191.38L163.56 191.07C163.287 191.336 163.117 191.691 163.08 192.07L163.07 192.08ZM218.86 288.88L219.05 289.08L219.87 288.38L219.55 288.07C219.273 288.333 219.102 288.689 219.07 289.07L218.87 288.88L218.06 289.58L218.37 289.89C218.654 289.621 218.832 289.259 218.87 288.87L218.86 288.88ZM105.86 282.88L106.06 283.08L106.87 282.38L106.56 282.07C106.306 282.328 106.106 282.634 105.97 282.97L105.14 283.3C105.594 283.676 106.153 283.903 106.74 283.95H105.88C106.01 284.6 106.13 285.26 106.26 285.95L106.91 285.86C106.92 285.499 106.843 285.142 106.684 284.818C106.526 284.494 106.291 284.213 106 284C106.014 283.62 105.974 283.239 105.88 282.87L105.86 282.88ZM156 199L155 200C154.767 200.205 154.577 200.455 154.443 200.735C154.309 201.015 154.233 201.32 154.22 201.63L151.91 199.5C152.06 200.85 152.12 201.39 152.21 202.13C152.577 202.099 152.931 201.98 153.243 201.783C153.554 201.587 153.814 201.318 154 201L155 200L156 199C156.511 198.526 156.861 197.903 157 197.22C157 197.51 157 197.79 157.05 198.08L159 197.7L158.91 197.05C158.537 197.033 158.166 197.112 157.832 197.278C157.498 197.444 157.212 197.693 157 198L156 199ZM67.1 206.89L66.9101 207.08L67.6 207.9L67.92 207.59C67.6595 207.308 67.3028 207.133 66.92 207.1L67.1201 206.9L66.42 206.09L66.1 206.4C66.3628 206.665 66.709 206.831 67.0801 206.87L67.1 206.89ZM135 186L135.33 186.83L136 186C138.44 186.15 139.87 184 142 183.62V182C144.25 182.45 144.67 180.42 145.6 178.91L142 180.39V182L136 184.36V186H135L134.67 185.17C134.426 185.438 134.236 185.75 134.11 186.09L133.91 185.89L133.1 186.59L133.41 186.9C133.664 186.642 133.864 186.336 134 186H135ZM49.1 181.89L48.91 182.09L49.6101 182.9L49.92 182.59C49.6578 182.31 49.3021 182.136 48.92 182.1L49.12 181.91L48.42 181.09L48.1101 181.4C48.3651 181.67 48.7102 181.837 49.0801 181.87L49.1 181.89ZM237 130L237.83 129.67L237 129V126L237.83 125.68C237.55 125.45 237.28 125.23 237.1 125.06C236.98 123.7 236.86 122.4 236.69 120.39L235.47 123.19L234.47 120.71C234.03 121.98 233.15 123.44 233.47 123.8C234.58 125.04 231.47 125.97 233.47 126.95C234.6 126.23 235.16 124.46 237 124.95V125.95C235.63 126.95 235.63 127.95 237 128.95C236.987 129.317 237.024 129.683 237.11 130.04L236.91 129.85L236.09 130.55L236.41 130.86C236.658 130.612 236.858 130.32 237 130ZM141.89 345.06L142.09 344.87L141.39 344.05L141.07 344.36C141.333 344.615 141.642 344.818 141.98 344.96C141.98 345.29 141.98 345.62 141.98 346.7V346.25H138.06V346.7C139.413 346.833 140.776 346.591 142 346L143.9 345.66L143.84 345C143.189 344.971 142.538 344.991 141.89 345.06ZM102.41 180.13C101.73 179.37 101.53 178.99 101.41 179.01C100.932 179.114 100.464 179.258 100.01 179.44C100.61 179.61 101.21 179.79 97.58 177.82C98.26 178.59 98.46 178.96 98.58 178.94C99.0596 178.843 99.5285 178.699 99.9801 178.51C99.3801 178.34 98.78 178.17 102.41 180.13ZM45.9001 174.13L46.1 173.94L45.4001 173.12L45.09 173.44C45.5597 173.831 46.1595 174.031 46.7701 174L45.91 174.05C46.03 174.7 46.1601 175.35 46.2901 176L46.93 175.91C46.9641 175.537 46.8838 175.162 46.6999 174.835C46.5159 174.508 46.237 174.245 45.9001 174.08V174.13ZM276.81 314.43C277.58 313.75 277.95 313.55 277.93 313.43C277.825 312.952 277.681 312.484 277.5 312.03C277.33 312.63 277.16 313.24 277.86 311.94L278.06 312.14L278.87 311.44L278.56 311.12C278.33 311.33 278.09 311.6 276.81 314.38V314.43ZM65.77 227H64.9001L65.2901 228.95L65.93 228.87C65.88 228.23 65.8201 227.59 64.2201 227.01L65.0801 226.96C64.9501 226.31 64.82 225.66 64.7 225.01L64.0501 225.1C64.1101 225.72 64.16 226.36 65.77 227ZM190 324.76V323.85L187 324.23L187.06 324.9C187.571 324.946 188.087 324.881 188.57 324.708C189.054 324.536 189.494 324.26 189.86 323.9L190.06 324.09L190.87 323.4L190.56 323.08C190.175 323.553 189.976 324.151 190 324.76ZM147.08 345.85L146.89 346.05L147.58 346.86L147.9 346.55C147.63 346.32 147.35 346.08 146.49 346.45L147.03 345.95C146.98 345.36 146.94 344.77 146.88 343.95L144.97 344.08C145.57 345 146 345.75 147.07 345.85H147.08ZM58.0801 131.85L57.89 132.04L58.5801 132.86L58.9001 132.55C58.6504 132.295 58.3411 132.106 58 132L58.5 131.47L56.14 130C56.14 130.67 56.06 131.21 56.01 131.91C56.6991 131.975 57.3932 131.965 58.0801 131.88V131.85ZM87.86 237.3L89.8 240.3V236.88C89.02 237.06 88.48 237.19 88.09 238.09L87.9001 237.9L87.08 238.59L87.4001 238.91C87.5885 238.691 87.7272 238.433 87.8066 238.155C87.8861 237.877 87.9043 237.586 87.86 237.3ZM234.75 112H233.88L234.27 114L234.91 113.91C234.933 113.541 234.861 113.171 234.702 112.837C234.543 112.503 234.301 112.215 234 112C233.76 110.62 233 110.78 232.12 111.37C231.76 111.61 231.37 111.79 231 112V110C232.5 110.26 233.38 109.45 234.17 107.9C232.67 107.13 233.72 104.9 232 104C232 102.67 232 101.34 232 100C232 99.13 230.82 98.52 231.77 97.28C232.14 96.8 230.95 95.13 230.47 93.99H229L230.72 92.63C230.587 92.1151 230.496 91.5899 230.45 91.06C230.231 89.6264 229.739 88.2481 229 87C229 85.51 229.48 83.8 228.92 82.57C226.92 78.24 227.08 73.44 225.55 69.05C224.947 69.9029 224.138 70.5906 223.2 71.05L224.11 71C223.98 70 223.86 69.05 223.73 68.07L223.06 68.13C223.005 69.1704 223.34 70.1939 224 71V73C221.9 73.8 222.94 75.57 223.25 76.63C224.318 79.8841 224.908 83.2762 225 86.7C225 87.46 225.09 88.22 225.17 89.36L228 88V90C227.67 90.42 227 90.87 227.05 91.25C227.29 93.91 227.87 96.54 227.94 99.25C227.882 101.178 228.356 103.084 229.31 104.76L232 104C230.53 105.81 231.08 108 231 110L230 110.75L231 112L231.27 114C232.326 113.167 233.498 112.493 234.75 112ZM84.9001 215.08L85.09 214.88L84.4001 214.07L84.0801 214.38C84.3423 214.646 84.6551 214.857 85 215V219.74L87 217H89.86L87 219.91C87.05 220.56 87.1401 221.75 87.2401 223.15L88.94 221.7C89.34 222.96 89.6701 223.96 90.1001 225.06L89.91 224.87L89.09 225.56L89.41 225.88C89.6574 225.624 89.8571 225.326 90 225H91.5201C92.4001 226.77 93.29 228.54 94.16 230.27L93.16 231.37C94.05 232.7 95.2701 233.88 95.7401 235.32C96.6401 238.1 97.27 240.93 98.86 243.48C99.28 244.16 98.65 245.48 98.45 246.91C100.54 249.14 101.15 252.8 103 255.82C104.31 257.97 104.6 260.22 102.92 262.13C103.39 262.93 103.7 263.46 104.12 264.13L103.93 263.93L103.11 264.63L103.42 264.94C103.677 264.682 103.881 264.376 104.02 264.04C104.77 264.576 105.443 265.212 106.02 265.93C107.76 268.87 109.36 271.88 111.16 275.12V279.64C114.24 282.77 114.22 282.77 115.08 286.64C115.285 287.219 115.543 287.778 115.85 288.31C116.57 290.01 116.96 291.97 118.06 293.36C119.36 295.01 119.06 297.36 120.99 298.73C121.7 299.24 121.79 300.73 121.99 301.73C122.08 302.11 121.77 302.58 121.71 302.79L118.95 301.9C119.75 303.51 120.32 304.65 120.84 305.68L119.35 307.17C118.644 305.771 117.856 304.415 116.99 303.11C115.957 301.86 114.852 300.671 113.68 299.55C112.68 301.09 111.89 302.34 111.11 303.55C112.88 305.1 111 308.14 113.67 309.14C114.11 311.21 114.67 313.14 116.95 313.99C117.32 313.99 117.72 314.11 117.95 313.99C121.559 312.06 125.56 310.98 129.65 310.83C129.78 310.83 129.89 310.3 130 310.01H132C131.56 309.21 131.32 308.77 131.06 308.31L135.58 307.07C135.84 307.75 136.06 308.33 136.44 309.29L138.13 306.84L140.02 308.29L142.46 306.11L143.67 307.05C144.67 306.68 145.77 305.83 146.28 306.11C147.52 306.81 148.02 304.19 149.14 305.7C151.26 304.43 154.43 305.82 155.95 303.01C157.95 303.33 159.58 302.3 161.18 301.28C162.09 300.7 162.98 300.08 163.93 299.55C165.36 298.74 166.77 298.45 168.05 300.1L167.86 299.91L167.04 300.6L167.36 300.92C167.632 300.659 167.849 300.346 168 300C173.44 299 173.44 299 176.17 296H172C172.4 295.67 172.79 295.08 173.21 295.05C174.8 294.93 176.4 295 178.09 294.9L177.89 295.09L178.59 295.91L178.91 295.6C178.647 295.345 178.338 295.142 178 295C178.26 294.67 178.47 294.11 178.79 294C180.88 293.51 182.99 293.13 184.79 292.77L185.19 291.41L188.7 292.01L189.37 290.01C190.078 289.928 190.792 289.928 191.5 290.01C191.89 290.11 192.19 290.6 192.5 290.89C193.93 289.97 195.57 288.11 196.67 288.38C198.86 288.93 199.74 286.78 201.53 286.92C203.32 287.06 205.09 286.92 207.27 286.92L206.11 285.5C208.11 283.76 208.11 283.76 210.11 285.01L209.91 284.82L209.1 285.52L209.41 285.83C209.658 285.593 209.858 285.312 210 285C210.53 284.34 211.05 283.67 211.59 283C213.5 283.12 215.42 283.16 217.12 282C218.44 283.59 220.45 281 221.67 282.84L223.79 280.71L226.55 281.96C227.07 280.23 228.31 282.35 228.76 281.8C229.04 281.02 229.19 280.59 229.37 280.16C229.37 280.16 229.59 280.16 229.7 280.21L230.41 280.91C232.59 279.08 232.6 279.18 236.26 278.73C238.44 278.46 240.58 277.82 242.75 277.34L243.23 278.67C245.873 277.81 248.691 277.634 251.42 278.16C250.74 277.39 250.54 277.02 250.42 277.04C249.942 277.144 249.474 277.288 249.02 277.47C249.62 277.64 250.22 277.81 249.02 277.01C249.14 276.72 249.21 276.22 249.38 276.18C253.18 275.48 257 274.82 260.95 274.13L260.11 275.79H264.11L262.88 273.97C265.94 274.1 268.54 274.16 270.75 271.75C273.38 272.15 276.21 272.59 279.06 272.98C279.32 272.98 279.62 272.75 279.9 272.63C280.01 272.17 280.13 271.72 280.31 271.03C283.94 270.69 287.66 270.28 291.39 270.03C295.53 269.75 299.6 268.1 303.82 269.31C304.02 269.91 304.22 270.48 304.43 271.12L305.96 270.76C305.63 270.2 305.37 269.76 305.1 269.3L307.01 268.64C307.081 267.271 307.081 265.899 307.01 264.53C306.89 263.46 308.46 262.53 307.17 261.42C309.88 258.92 310.02 255.54 310.17 252.25L312.17 250.53C311.89 247.04 312.12 243.72 313.93 240.69C314.084 240.413 314.147 240.095 314.11 239.78C313.82 237.95 314.56 236.36 315.11 234.68C315.66 233 315.53 230.68 316.55 229.32C317.72 227.74 316.08 225.51 318.14 224.45C318.39 221.14 320.08 218.16 320.2 214.78C320.246 212.898 320.671 211.044 321.45 209.33C322.36 207.45 323.5 205.75 323.14 203.54C325.2 201.81 323.59 199.45 324.37 197.54C325.03 196.16 326.15 194.67 326.03 193.3C325.72 189.93 327.58 187.21 328.18 184.13C328.78 181.05 329.75 178.13 330.54 175.13C331.229 173.065 331.737 170.943 332.06 168.79C332.21 166.79 332.63 165.03 333.5 164.15C334.43 160.47 335.2 157.46 335.98 154.39L335.46 153.79C336.62 150.63 338.31 147.94 338.14 144.63C338.146 142.263 338.762 139.938 339.93 137.88C341.24 135.26 341.18 132.75 341.04 130.16C339.921 130.394 338.885 130.927 338.044 131.701C337.202 132.476 336.586 133.464 336.26 134.56C335.87 135.611 335.215 136.545 334.36 137.27C332.528 138.842 331.075 140.807 330.11 143.02C329.823 143.765 329.339 144.418 328.71 144.91C326.71 146.37 324.4 147.51 323.43 150.03C321.2 149.77 322.52 152.75 320.73 152.96C317.89 153.28 317.9 155.96 316.82 157.96C314.15 157.34 314.65 160.79 312.47 161.43C310.83 161.91 309.3 163.5 308.21 164.97C307.024 166.635 305.543 168.068 303.84 169.2C302.33 170.2 301.56 172.3 300.49 173.88L299.33 172.95L294.43 177.86L293.6 177.03L291.6 180.03L290.35 180.12L285.35 184.12C285.15 183.12 285.05 182.7 284.93 182.12C284.291 183.162 283.536 184.128 282.68 185C281.634 185.72 280.519 186.333 279.35 186.83L278.62 184.64C278.03 188.64 274.62 187.78 273.07 189.23C272.44 188.828 271.769 188.493 271.07 188.23L271.26 188.04C271.03 187.76 270.8 187.49 270.56 187.22L270.25 187.53C270.51 187.789 270.819 187.993 271.16 188.13C270.73 188.46 270.32 189.04 269.87 189.13C268.39 189.25 266.77 188.81 265.45 189.28C264.13 189.75 262.31 188.92 261.9 189.28C260.9 190.28 260.1 189.28 259.27 189.5C258.223 189.811 257.148 190.019 256.06 190.12C254.91 190.23 253.74 190.06 252.59 190.18C251.764 190.339 250.954 190.573 250.17 190.88C249.79 190.22 249.47 189.68 249.05 189.06L249.25 189.25L250.07 188.55L249.75 188.24C249.497 188.503 249.297 188.812 249.16 189.15C248.331 189.095 247.499 189.095 246.67 189.15C245.858 189.32 245.06 189.547 244.28 189.83C244.16 189.26 244.07 188.83 243.98 188.38C240.98 187.81 237.89 187.71 235.7 185.16C235.36 185.48 235.01 185.79 234.38 186.36C234.69 183.55 230.91 186.69 231.16 183.77C229.72 182.91 228 182.31 227.8 180.26C225.22 179.88 225.64 177.19 224.38 175.76C221.31 172.28 220.26 167.9 219.02 163.5C218.02 159.93 217.5 156.21 216.14 152.74C214.96 149.74 214.58 146.44 213.23 143.46C213.02 143 213.7 142.14 213.8 141.9C212.87 139.9 212.06 138.15 211.31 136.51L212.02 135.72L210.57 132.9C210.11 133.48 209.37 133.98 209.36 134.49C209.27 138.36 206.09 141.26 206.11 145.17C206.094 146.111 205.71 147.009 205.04 147.67C202.54 149.84 201.85 153.05 200.28 155.73C198.71 158.41 197.8 161.08 195.62 163.29C194.35 164.58 193.62 166.43 192.86 167.78L188.02 170.34C188.51 170.91 188.81 171.25 189.02 171.53C188.12 172.999 187.118 174.403 186.02 175.73C182.38 179.56 180.53 184.73 176.27 188.16C173.27 190.64 172.09 195.04 168.53 197.27C168.46 199.27 165.97 198.99 165.46 200.4C164.18 203.91 161.12 205.2 158.91 206.24C157.86 207.63 157.29 208.37 156.54 209.35L155.71 206.86C155.02 208.37 154.45 209.64 153.88 210.86L150.32 211.75C150.14 211.05 150.03 210.6 149.81 209.75C148.7 211.83 146.53 212.09 145.48 214.09C144.43 216.09 142.34 217.46 140.66 219.15C140.32 218.43 140.01 217.77 139.66 216.99C139.14 219.41 137.43 220.28 135.45 220.84C135.25 220.26 135.04 219.68 134.81 219.03L132.47 221.24L128.33 220.5L124.96 222.23L123.75 221.17L122 222L120.53 220L118.68 221.84C117.47 221.216 116.182 220.755 114.85 220.47C113.98 220.4 113.03 220.56 112.09 220.47C111.061 220.446 110.032 220.496 109.01 220.62C109.03 220.054 108.993 219.488 108.9 218.93L109.1 219.13L109.91 218.43L109.6 218.12C109.346 218.378 109.146 218.684 109.01 219.02L107.51 219.9C106.88 218.95 106.23 217.99 105.59 217.04L104.34 217.99C104.07 217.21 103.86 216.63 103.69 216.16L99.94 215.7C100.44 215.07 100.69 214.7 101.42 213.8L96.5 215.15L98.17 213.27L96.3701 213.03C96.0401 213.81 95.8201 214.36 95.3701 215.49C95.0501 213.82 94.8801 212.9 94.7101 211.97L92.97 213.28L88.33 209.39C86.74 210.64 84.88 210.28 82.25 209.05H83.1201L82.7301 207.05L82.09 207.14C82.0756 207.501 82.1513 207.86 82.3101 208.185C82.469 208.51 82.7061 208.79 83 209C83 210.52 82.67 212.18 84.13 212.67L87.47 212L86 213.5C87.41 214.36 86.9 215.75 87 216.97C86.6499 216.74 86.3158 216.486 86 216.21C85.6643 215.804 85.2964 215.427 84.9001 215.08ZM231.9 117.08L232.1 116.88L231.4 116.07L231.08 116.38L231.92 117.1C232.04 117.68 232.19 118.36 232.44 119.52L235.52 117.1C233.8 117.11 232.89 117.11 231.88 117.09L231.9 117.08ZM240 319.18L244 316.55L243.61 315.85L240 317.32C240 317.97 240 318.47 240 319.74C240 319.45 240 319.16 239.95 318.87L238 319.25L238.09 319.9C238.44 319.913 238.79 319.856 239.117 319.732C239.445 319.608 239.745 319.421 240 319.18ZM158.92 305.07L159.11 304.87L158.42 304.05L158.1 304.37C158.37 304.6 158.65 304.83 160.74 305.2C160.74 305.2 160.57 304.96 160.49 304.98C158.98 305.42 157.49 305.9 155.86 306.4L158.49 307.73C159.15 307 159.93 306.08 158.89 305.07H158.92ZM282.1 149.74L282 149H280.36L277.25 152.27C279.037 151.521 280.628 150.372 281.9 148.91L282.1 149.11L282.91 148.41L282.6 148.09C282.32 148.35 282.09 148.62 282.1 149.74ZM73.1 152.88L72.9101 153.07L73.6 153.89L73.92 153.57C73.6517 153.324 73.3397 153.131 73 153C72.53 152 72.0601 151.08 71.6101 150.14L68.6101 149.14C70.6501 152.32 70.6501 152.32 73.0801 152.88H73.1ZM110.44 296.54L112.2 294.31L110.39 290.85L109 291.34C109.463 292.887 109.833 294.459 110.11 296.05L109.92 295.86L109.1 296.56L109.41 296.87C109.509 296.701 109.666 296.574 109.852 296.513C110.039 296.452 110.24 296.462 110.42 296.54H110.44ZM187 332L182 330C182 331.11 182 332 182 333.71C182 333.43 182 333.14 182 332.85L180 333.23C180 333.45 180.05 333.66 180.08 333.88C180.448 333.904 180.816 333.837 181.151 333.683C181.487 333.529 181.778 333.295 182 333L183.57 332.12C184.65 333 185.84 333.93 186.77 331.79L187.08 332.2L191.08 330.55L190.01 329.55C188.912 330.243 187.901 331.065 187 332ZM250 288.54L245.43 286.88L244.79 288.74L242.21 289.4L242.4 290.22C244.63 289.73 246.85 289.22 250.18 285.58C249.42 286.26 249.04 286.46 249.06 286.58C249.164 287.058 249.308 287.526 249.49 287.98C249.61 287.36 249.78 286.76 249.94 288.5L250 288.54ZM164 304.7L165.43 305.89L169.13 303.57L167 301.78C165.743 302.9 164.723 304.26 164 305.78C164 305.49 164 305.2 164 304.91L162 305.3L162.09 305.94C162.494 305.94 162.89 305.823 163.229 305.603C163.568 305.383 163.836 305.069 164 304.7ZM234.85 290.07L235.05 289.87L234.35 289.06L234.03 289.37C234.29 289.62 234.595 289.817 234.93 289.95C236.93 291.12 240.09 291.37 240.81 290.57L239.58 288.16C238.06 288.76 236.51 289.35 234.88 290.07H234.85ZM92.8501 250.07L93.0401 249.88L92.3501 249.06L92.03 249.38C92.3 249.61 92.58 249.84 92.58 249.46C93.19 252.62 93.7001 255.22 94.2401 258.05L96.33 257.57L95.0201 255.38C96.2501 252.8 95.8301 251.36 92.9001 250.07H92.8501ZM240 143L240.46 143.12L241 140.77C241.15 140.09 239.57 140.01 240.48 138.91C240.98 138.31 240.89 137.22 241.11 136.18H237.55V139.86L238.28 141.86L240 141C239.972 141.695 240.005 142.391 240.1 143.08L239.91 142.89L239.09 143.58L239.41 143.9C239.659 143.638 239.859 143.333 240 143ZM255 165C255.697 164.405 256.584 164.078 257.5 164.078C258.417 164.078 259.303 164.405 260 165C260.13 165.09 260.53 164.79 261.14 164.52L259.64 162H255C253.77 160.28 251.59 160.13 250 159L249.67 158.17L249 159C248.376 158.879 247.819 158.528 247.44 158.017C247.061 157.507 246.886 156.873 246.95 156.24C246.95 155.82 246.33 155.41 246 155L245.35 153.83L241.77 155.65C242.68 158.48 243.57 161.26 244.46 164.06C247.4 166.19 250.55 167.47 254.22 166.98C254.5 166.98 254.74 166.66 255 166.49V165ZM75 203C74.91 202.35 74.81 201.7 74.68 200.82C73.97 201.53 73.36 201.9 73.13 202.43C72.83 203.14 72.82 203.97 74 204V206.92L77 205.68V209.76L79.13 210.29C78.75 212.34 78.35 214.42 77.95 216.54L79.95 217.46V219L79.1201 219.33L80 220C80.82 223.17 81.28 226.5 83.89 228.41C84.02 230.21 84.12 231.62 84.25 233.59C85.36 232.79 86.01 232.38 86.59 231.89C87.17 231.4 87.7 230.79 88.16 230.33C87.33 228.61 86.1601 227.24 86.1001 225.84C85.9701 222.1 82.86 219.38 82.95 215.63C82.95 215.43 82.2 215.26 81.85 214.99C81.5086 214.715 81.2205 214.379 81 214C80.67 213.42 80.44 212.78 80.21 212.27L80.82 211.52C80.24 210.4 79.7001 209.34 79.2901 208.52C79.5001 207.92 79.65 207.52 79.78 207.15L78.4401 206.75C78.6601 205.44 78.85 204.31 79.1 202.86L77.2901 203.86L76.64 202L75 203ZM357.36 64.47C356.75 66.99 356.29 68.86 355.84 70.74C358.84 71.4 359.61 68.88 361.24 67.89C362.24 67.3 362.53 65.68 363.05 64.68L361.35 62.85L359.41 65.85L357.36 64.47ZM217.73 332.59C220.95 333.78 223.67 332.46 226.4 331.91C228.94 331.39 231.4 330.46 233.89 329.71L233.68 328.76L227.3 329.76C227.07 329.29 226.78 328.67 226.3 327.65C226.11 328.55 226.01 329 225.9 329.5L217.73 332.59ZM304 277.68L291 280.29C293.17 280.04 294.6 283.09 297.24 281.39C299.07 280.21 301.69 280.24 303.9 279.74C303.93 279.19 304 278.86 304 277.68ZM320.14 295.32C317.5 298.39 317.07 302.16 315.65 306.64L318.71 304.86C319.22 301.53 319.69 298.43 320.15 295.32H320.14ZM97.14 264.89L99.7101 266.21C99.8701 265.38 99.96 264.93 100.05 264.44L98.16 263.61L99.16 261.06H97.16L97.14 264.89ZM260.05 285.64C262.38 286.69 264.05 285.34 265.72 283.91L262 284.56L260.05 283.83V285.64ZM211 321.48L210.58 320.84C209.683 321.301 208.737 321.66 207.76 321.91C206.522 322.005 205.278 322.005 204.04 321.91C204.04 322.16 204.04 322.4 204.04 322.65H209.8L211 321.48ZM170 329.48C171 328.23 172.73 327.86 171.56 325.75L168 327.46L170 329.48ZM187 296.21L190.91 295.52L187.33 292.17C187.09 293.83 187 294.71 186.9 296.17L187 296.21ZM265.38 313.33C262.71 312.44 261.13 314.25 258.38 314.33C261.36 315.68 263.05 314.35 265.28 313.29L265.38 313.33ZM196.21 336.49L195.44 335.81L192.03 337.51L194.86 338.97C195.17 338.19 195.64 337.32 196.11 336.45L196.21 336.49ZM232.83 290.27C231.94 291.44 229.49 290.67 229.41 293.39C230.59 292.12 232.67 292.7 232.73 290.23L232.83 290.27ZM192.98 334.71C192.14 333 190.91 332.6 189.17 333.29C189.91 335 191.14 335.36 192.88 334.67L192.98 334.71ZM221.42 104.87H221.91V100.98L220.32 101.28C220.63 102.54 221 103.69 221.32 104.83L221.42 104.87ZM210 328.87L207.15 331.87H210V328.87ZM179.58 327.18C180.544 326.703 181.331 325.933 181.83 324.98L178.76 325.26C179 326.05 179.25 326.56 179.48 327.11L179.58 327.18ZM52.9001 185.24H49.9001L50.3301 187.36L52.9001 185.24ZM101 272.05C100.91 274.28 101.74 274.3 103.06 273.52C102.96 273.01 102.88 272.52 102.78 272.05H101ZM271.81 284.79C271.81 284.51 271.81 284.22 271.74 283.93L268.12 284.17C268.12 284.38 268.12 284.59 268.12 284.79H271.81ZM223.89 286.88L220.46 288.8H223.89V286.88ZM200.78 292.79V291.93L197.08 292.18C197.08 292.38 197.08 292.59 197.08 292.79H200.78ZM202.15 292.13C202.15 292.43 202.15 292.72 202.15 293.02L204.8 292.65V292.13H202.15ZM190.08 297.56C188.25 296.9 187.64 297.32 188.08 298.56L190.08 297.56ZM352 72.75C352.76 72.34 353.41 71.98 354.95 71.16H352V72.75ZM172.78 321.75C172.78 321.45 172.72 321.16 172.7 320.86L170.07 321.24L170.13 321.75H172.78ZM100.55 268.58C100.85 267.13 100.85 267.13 99.45 267.24L100.55 268.58ZM95.1201 284.73H96.0101C95.8901 283.84 95.76 282.94 95.64 282.05H95.1201V284.73ZM206 291.21V291.71H209V291.21H206ZM110 278.72V278.22H108V278.72H110ZM280.79 282.79C280.79 282.51 280.79 282.22 280.79 281.94L279.12 282.3L279.18 282.79H280.79ZM252.15 287.79H253.01C252.88 287.23 252.76 286.67 252.64 286.12L252.15 286.18V287.79ZM375.7 71H375.2V73H375.7V71ZM228 287.71V287.21H226V287.71H228ZM108.74 288H108.24V290H108.74V288ZM66.1601 198.82L67.03 198.71L66.64 197.08L66.1601 197.16V198.82ZM371.16 76.82L372.03 76.72L371.64 75.09L371.16 75.17V76.82ZM195.86 293.82C195.86 293.53 195.79 293.25 195.76 292.96L194.12 293.35C194.12 293.51 194.12 293.66 194.2 293.82H195.86ZM193.02 294.74V294.24H191.02V294.74H193.02ZM112.86 296.18L112 296.23L112.36 297.9L112.86 297.83V296.18ZM177.18 297.18C177.18 297.47 177.24 297.76 177.28 298.05L178.91 297.66C178.91 297.5 178.86 297.34 178.83 297.18H177.18ZM64.18 143.18L64.24 144.04L65.9101 143.68L65.85 143.18H64.18ZM232.18 87.84L233.04 87.78C232.92 87.22 232.8 86.67 232.67 86.11L232.18 86.18V87.84ZM131.23 188H131.73V186H131.23V188ZM153.14 307.15C153.14 307.44 153.21 307.73 153.24 308.02L154.87 307.63L154.8 307.15H153.14ZM239.22 120H239.72V118H239.22V120ZM305.78 312.8L305.72 311.94L304.05 312.31C304.05 312.47 304.1 312.64 304.12 312.8H305.78ZM337.13 121.8L337.99 121.7L337.6 120.06L337.13 120.14V121.8ZM272.13 314.8L272.99 314.69L272.6 313.07L272.13 313.14V314.8ZM255.13 314.13L255.19 314.99L256.86 314.62L256.79 314.13H255.13ZM59.8 209.13L58.94 209.24L59.3301 210.87L59.8 210.79V209.13ZM147.13 179.82L148 179.71L147.61 178.08L147.13 178.16V179.82ZM103.8 275.15L102.94 275.2L103.3 276.87L103.8 276.81V275.15ZM78 157.73V157.23H76V157.73H78ZM237.14 133.8L238 133.74L237.63 132.07L237.14 132.14V133.8ZM193.79 330.8C193.79 330.51 193.79 330.22 193.79 329.94L192.11 330.31L192.17 330.8H193.79ZM244.22 136H244.72V134H244.22V136ZM229.8 70.17L228.94 70.23C229.07 70.79 229.19 71.34 229.31 71.9L229.8 71.83V70.17ZM87.7401 234H87.2401V236H87.7401V234ZM89.7401 242H89.2401V244H89.7401V242ZM83.1601 251.84L84.02 251.73C83.89 251.19 83.77 250.65 83.64 250.1L83.1601 250.18V251.84ZM106.16 271.84L107.02 271.74L106.63 270.1L106.16 270.18V271.84ZM144 347.21V347.71H146V347.21H144ZM242 127.32V127.65H243V127.32H242ZM333 127.65V127.32H332V127.65H333ZM34 132.32V132.65H35V132.32H34ZM59 134.32V134.65H60V134.32H59ZM229 136.65V136.32H228V136.65H229ZM229.67 139.98H229.33V140.98H229.67V139.98ZM67 147.31V147.65H68V147.31H67ZM229 147.31V147.65H230V147.31H229ZM194 148.65V148.31H193V148.65H194ZM233 149.65V149.31H232V149.65H233ZM308.63 154H308.29V155H308.63V154ZM74.63 155H74.2901V156H74.63V155ZM258.63 158H258.3V159H258.63V158ZM79 159.65V159.31H78V159.65H79ZM83.6601 164H83.32V165H83.6601V164ZM69.6601 168H69.32V169H69.6601V168ZM73 172.31V172.65H74V172.31H73ZM47.66 178H47.3301V179H47.66V178ZM104 180.64V180.31H103V180.64H104ZM151 203.64V203.31H150V203.64H151ZM148.31 205H148.65V204H148.31V205ZM145 206.64V206.31H144V206.64H145ZM62 216.64V216.31H61V216.64H62ZM132 219.64V219.31H131V219.64H132ZM317 230.3V230.64H318V230.3H317ZM98 250.3V250.64H99V250.3H98ZM323.29 252H323.63V251H323.29V252ZM84.6601 254H84.32V255H84.6601V254ZM89.66 268H89.3201V269H89.66V268ZM111 281.63V281.3H110V281.63H111ZM256 281.3V281.63H257V281.3H256ZM288.33 281.96H288.66V280.96H288.33V281.96ZM249.33 283.96H249.67V282.96H249.33V283.96ZM113.33 289.96H113.66V288.96H113.33V289.96ZM195.33 291.96H195.66V290.96H195.33V291.96ZM161.67 201.96H161.33V202.96H161.67V201.96ZM320.67 292.96H320.33V293.96H320.67V292.96ZM66 231.3V231.64H67V231.3H66ZM65.6601 194H65.3301V195H65.6601V194ZM170.31 302H170.65V301H170.31V302ZM306 303.3V303.63H307V303.3H306ZM220.31 64H220.64V63H220.31V64ZM359 63.66V63.33H358V63.66H359ZM205.64 64H205.31V65H205.64V64ZM228 66.33V66.66H229V66.33H228ZM375.29 70H375.62V69H375.29V70ZM368.29 72H368.62V71H368.29V72ZM320.63 305H320.29V306H320.63V305ZM350.29 306H350.62V305H350.29V306ZM229.3 75H229.64V74H229.3V75ZM266.63 307H266.3V308H266.63V307ZM267.97 307.33V307.67H268.97V307.33H267.97ZM131 190.64V190.31H130V190.64H131ZM128.34 190.98H128.67V189.98H128.34V190.98ZM345.34 309.98H345.67V308.98H345.34V309.98ZM292 311.29V311.63H293V311.29H292ZM290 312.29V312.63H291V312.29H290ZM230 313.63V313.29H229V313.63H230ZM339 90.32V90.66H340V90.32H339ZM234 91.66V91.32H233V91.66H234ZM117.32 316H117.65V315H117.32V316ZM219.32 97H219.65V96H219.32V97ZM315 317.29V317.63H316V317.29H315ZM220.64 320H220.31V321H220.64V320ZM223.97 320.33V320.67H224.97V320.33H223.97ZM220.64 99H220.31V100H220.64V99ZM58 203.64V203.31H57V203.64H58ZM215 321.64V321.3H214V321.64H215ZM196 323.3V323.64H197V323.3H196ZM184.31 325H184.64V324H184.31V325ZM233.31 325H233.65V324H233.31V325ZM218.31 103H218.64V102H218.31V103ZM65.6601 203H65.3301V204H65.6601V203ZM176 327.63V327.29H175V327.63H176ZM215.64 329H215.31V330H215.64V329ZM196 330.63V330.29H195V330.63H196ZM205 331.63V331.29H204V331.63H205ZM176.64 334H176.31V335H176.64V334ZM188.64 335H188.31V336H188.64V335ZM158 338.62V338.29H157V338.62H158ZM129 187.31V187.64H130V187.31H129ZM148 342.31V342.64H149V342.31H148ZM222.64 110H222.31V111H222.64V110ZM223.97 117.66V117.33H222.97V117.66H223.97ZM224.64 119H224.31V120H224.64V119ZM222 123.32V123.65H223V123.32H222ZM144.65 349H144.32V350H144.65V349Z" fill="#D7C16C"/>
<path d="M361 9V11.36C362.28 10.78 363.08 10.42 363.91 10.03C365.72 10.87 367.59 11.89 369.64 9.91C369.91 12.68 372.14 13.41 374.19 13.91C375.73 14.3 377.12 14.58 378 16L376.1 16.34C376.1 16.56 376.15 16.78 376.17 17C376.779 17.0444 377.389 16.9556 377.96 16.74C377.96 17.6 378.06 18.2 378.11 18.81H381.88C380.637 18.0064 379.325 17.3137 377.96 16.74C377.988 16.4942 377.988 16.2458 377.96 16C381.3 16.57 384.61 17.2 386.96 20L382.25 18.9C382.375 19.3545 382.596 19.7769 382.898 20.1391C383.2 20.5013 383.576 20.7948 384 21C384.98 21.3908 385.982 21.7247 387 22C386.55 23.85 388.07 24.64 389.11 25.53C390.343 26.4502 391.643 27.2759 393 28L395.91 31.67V34.67L393 36.57C393 37.2 392.88 37.98 392.79 38.96L391.27 38.15C390.7 40.8 390.7 40.8 387 44C385.31 43.62 386.49 46.48 384.41 46.19C383.62 46.08 382.56 47.9 381.53 48.93L380.83 48.37L373.83 50.66C371.18 50.41 368.99 50.06 366.83 50.06C365.64 50.06 364.47 50.81 363.26 50.96C362.26 51.09 361.43 49.87 360.02 50.88C358.93 51.67 355.35 50.39 352.47 49.02C349.83 47.76 347.22 46.47 344.61 45.16C339.86 42.78 339.87 42.77 337.94 37.65C337.83 37.37 337.48 37.18 337.35 36.9C335.95 33.83 335.95 33.82 336.95 30.43C337.6 28.21 338.25 26 338.95 23.8C339.06 23.47 339.58 23.27 340.32 23H339.8L340.19 25.95L340.86 25.89C340.876 24.8937 340.693 23.9042 340.32 22.98C341.99 19.11 346.08 17.98 349.51 15.98C351.74 14.693 354.083 13.6119 356.51 12.75L361 9ZM370.9 30.91L371.09 31.1L371.91 30.4L371.6 30.09C371.316 30.3493 371.141 30.7067 371.11 31.09L370.91 30.89L370.1 31.59L370.41 31.9C370.67 31.6332 370.826 31.282 370.85 30.91H370.9ZM377 31C378.5 30.91 377.85 29.75 378 29.1L379 28.89C378.91 28.43 378.75 27.66 378.59 26.89L378.09 27.22C378.09 27.81 378 28.4 377.99 29H376.99V26.39C376.45 26.2 375.86 26.03 375.3 25.8C374.74 25.57 374.05 25.19 372.68 24.52L374 27H372L371.67 26.17C371.404 26.4723 371.178 26.8086 371 27.17L368.44 26.17L365 27.94C367.71 27.52 368.84 30.26 370.94 28.52V27H371.94V29H376.94C376.94 29.66 376.94 30.33 376.94 31.77C376.94 31.48 376.94 31.2 376.89 30.91L374.94 31.29L375.03 31.94C375.412 31.9673 375.794 31.895 376.139 31.7302C376.485 31.5654 376.781 31.3138 377 31ZM364 29L361.14 28.24C361.14 28.69 361.05 29.12 361.03 29.32L363 31C361.74 30.94 360.38 31.37 359.42 30C359.3 29.83 358.56 30.11 358.1 30.19V33.79L361.81 37.6C363.11 37.02 363.6 34.71 365.68 34.99C365.47 36.11 365.32 36.99 364.98 38.75C366.45 36.63 368.46 36.06 367.9 33.88L368.09 34.07L368.91 33.37L368.6 33.06C368.341 33.3197 368.137 33.6293 368 33.97C367.6 33.66 367.19 33.34 366.66 32.97L369.33 29.97H367L366.67 29.14L366 30C365.25 29.85 364.09 30.49 363.9 28.91L364.1 29.1L364.91 28.4L364.6 28.09C364.341 28.3497 364.137 28.6593 364 29ZM389.61 31.14L390.9 33.83C386.9 36.83 384.31 41.23 380.3 44.23C380.22 44.29 380.38 44.68 380.47 45.23C386.22 42.94 389.35 37.97 392.94 33.52L392.06 32.52C392.18 32 393.37 31.9 392.67 31.17L389.61 31.14ZM387.89 29.39C389.66 29.93 390.56 29.74 389.96 28.65L387.89 29.39ZM372.78 43.83C372.78 43.53 372.78 43.23 372.78 42.94L370.13 43.31C370.13 43.48 370.13 43.66 370.18 43.83H372.78ZM364.62 12H364.29V13H364.62V12ZM376.62 20H376.29V21H376.62V20ZM342 22.33V22.66H343V22.33H342ZM386.62 31H386.28V32H386.62V31ZM353.29 33H353.62V32H353.29V33ZM377 34.33V34.66H378V34.33H377ZM358 37.66V37.33H357V37.66H358Z" fill="#D7C16C"/>
<path d="M184 40L181.24 37.33L182 36C183.25 36 184.64 35.6 185.86 37.43C185.93 36.06 185.97 35.16 186.03 33.94L184 35V26L184.83 25.67L184 25C184.305 24.4782 184.638 23.9741 185 23.49C185.46 22.94 186 22.49 186.58 21.88C186.9 22.8 187.09 23.37 187.44 24.4C188.32 22.4 187.79 20.63 187.91 18.95L188.06 19.1L188.87 18.41L188.56 18.09C188.316 18.3549 188.098 18.6429 187.91 18.95C187.3 19 186.63 19 185.97 19C186.44 17.24 187.74 16.88 189.51 17L191.23 13.29C193.29 12.44 195.23 11.41 195.03 8.53C195.03 8.09 195.8 7.34 196.35 7.16C198.78 6.37 201.27 5.73 204.35 4.88L203.1 6.42C203.242 6.63039 203.41 6.82192 203.6 6.99C205.28 8.27 207.25 7.99 209.16 7.99C213.22 7.9 217.04 9.08001 220.79 10.39C221.726 10.6185 222.595 11.0645 223.327 11.6917C224.058 12.3189 224.631 13.1097 225 14C224.34 14 223.67 14 223 14.05L223.15 13.91L222.45 13.09L222.13 13.41C222.4 13.6487 222.692 13.8629 223 14.05C223.293 14.3438 223.56 14.6616 223.8 15L225 14L227.34 15.15L230 19C229.6 20.84 230.93 23 228.85 24.69C231.15 27.95 229.74 31.29 228.71 34.69L226.71 35.49L229.24 37.12C229.11 37.37 228.97 37.62 228.83 37.87L225.61 37.1C224.61 38.63 221.83 38.83 220.44 41.5L224.05 42.29L220.41 44.76C216.23 45.15 211.9 45.63 207.57 45.95C205.495 46.2686 203.372 45.9404 201.49 45.01C200.523 44.5331 199.492 44.1964 198.43 44.01C197.328 43.6861 196.188 43.508 195.04 43.48C194.017 43.6023 193.011 43.837 192.04 44.18C189.41 42.23 187 40.48 184 40ZM200 35C201.33 34.9 205.35 33.44 206.39 33.17C208.39 32.66 209.8 30.84 212.05 30.96L210.76 33.75L214.57 31.18C213.24 31.06 212.57 31.01 211.99 31V30.08L216.9 25.67V22.15L211.43 17.77L205.43 18.83C203.25 16.83 200.87 18.19 198.52 19.15L197.3 16.5V21.85L199.51 20.85L201.34 24.85L197 26.47C196.921 27.5252 196.921 28.5848 197 29.64C197.1 30.37 197.79 31 197.89 31.73C197.94 32.1 197.29 32.57 196.89 33.1L197.09 32.91C196.86 32.63 196.63 32.36 196.39 32.09L196.08 32.4C196.34 32.6594 196.649 32.8635 196.99 33C196.99 34.33 198.04 33.8 198.72 34C199.232 34.2757 199.695 34.6338 200.09 35.06L199.89 34.86L199.08 35.56L199.39 35.87C199.643 35.6186 199.85 35.324 200 35ZM191.31 26.83L192.38 27.34C193.67 24.76 194.38 21.84 196.23 19.55L193.88 18.43L195.2 15.14C191.92 17.42 191.13 20.05 190.37 22.14C190.69 23.87 191 25.35 191.29 26.83H191.31ZM196.43 38L195.06 39.37C197.22 40.47 198.3 40.7 200.19 40.37L196.43 38ZM224.27 25.25L225.38 28.1L226.8 26.56C226.29 25.56 225.88 24.78 225.8 24.7L224.27 25.25ZM211 40.58C212.76 41.65 213.14 40.18 214 39.41C212.21 38.34 211.82 39.81 211 40.58ZM228 32.58C227.07 31.91 226.77 30.37 224.91 31.45C225.86 32.11 226.16 33.64 228 32.56V32.58ZM220 38.58L222.08 37.58L221.72 37.1H220V38.58ZM223 19.25V19.75H225V19.25H223ZM205.16 12.17C205.16 12.46 205.23 12.75 205.26 13.03L206.9 12.64C206.9 12.49 206.85 12.33 206.82 12.17H205.16ZM201 15.75V15.25H199V15.75H201ZM197 9.33V9.67H198V9.33H197ZM218.31 23H218.64V22H218.31V23ZM224.64 22H224.31V23H224.64V22ZM191.31 40H191.64V39H191.31V40ZM219 42.33V42.66H220V42.33H219Z" fill="#D7C16C"/>
<path d="M237.94 302.41L235.26 300.94L240.26 298.25L243.32 299.11L245.39 297.04L246.39 297.82L251.65 296.82L251.85 297.36L247.33 299.53L249.87 302.48C249.26 303.48 244.95 304.57 243.49 304.04C242.89 304.762 242.193 305.398 241.42 305.93C240.306 306.266 239.153 306.458 237.99 306.5C237.618 306.287 237.222 306.119 236.81 306C236.236 305.886 235.655 305.819 235.07 305.8C234.62 303.19 236.93 303.42 237.94 302.41ZM247.56 298.89C245.42 299.69 244.2 300.59 243.09 300.46C241.51 300.28 240.42 301.33 238.87 301.17C239.02 302.27 239.14 303.09 239.29 304.17L240.78 302.68C242.443 302.492 244.086 302.158 245.69 301.68C246.35 301.36 246.67 300.26 247.56 298.89Z" fill="#D7C16C"/>
<path d="M178.91 309.49C182.39 307.88 182.39 307.88 187.8 308.55C187.245 308.717 186.681 308.851 186.11 308.95C185.49 309.01 184.86 308.95 184.11 308.95C184.04 310.3 183.98 311.41 183.91 312.7L175.77 314.19C177.89 311.56 180.27 311.99 182.84 311.94C182.9 311.06 182.96 310.16 183.05 308.88L179.21 310.88L178.91 309.49Z" fill="#D7C16C"/>
<path d="M162 311.31L151.94 314.78C152.14 312.51 153.41 312.11 155.36 311.87C156.94 311.67 158.42 310.63 160.18 309.87L162 311.31Z" fill="#D7C16C"/>
<path d="M387 20H389.18L394 23.78V25L392.63 25.78C391.63 24.52 390.63 23.19 389.69 22H387V20Z" fill="#D7C16C"/>
<path d="M361.45 310.9H358.63L360.13 309.22L358.93 307.17H363.93C364 309.2 362.31 309.86 361.45 310.9Z" fill="#D7C16C"/>
<path d="M229.27 19.0001C230.34 17.4401 230.96 16.5501 232.07 14.9501V12.0601C233.07 14.8801 232.9 17.7501 233.01 21.6601C232.16 20.2001 231.82 19.6001 231.46 19.0001H229.27Z" fill="#D7C16C"/>
<path d="M139 350.73V352.45C137.09 353.3 135.3 354.94 132.61 353.18L135.95 350.73L137.53 351.86L139 350.73Z" fill="#D7C16C"/>
<path d="M141 310V311.54L143.48 312.65L137.48 314.32C137.35 314.04 137.21 313.76 137.08 313.47L139.99 311.38V310H141Z" fill="#D7C16C"/>
<path d="M332 317.34C329.6 317.44 327.63 320.05 325 318.53C325 318.18 325 317.87 324.94 317.21C327.23 316.64 329.62 317.14 332 317.34Z" fill="#D7C16C"/>
<path d="M36 87V88.52L38.33 89.52L34 91L33 90L36 87Z" fill="#D7C16C"/>
<path d="M181.74 20.25L177.24 24.73C177.24 24.27 177.11 23.45 177.44 23.12C178.62 21.9 179.65 20.39 181.74 20.25Z" fill="#D7C16C"/>
<path d="M52 121H50C49.8949 120.3 49.9292 119.587 50.1008 118.9C50.2724 118.214 50.578 117.568 51 117L52.88 119.41L52 121Z" fill="#D7C16C"/>
<path d="M204.41 296.46L201.5 301.31C201.07 298.24 201.07 298.24 204.41 296.46Z" fill="#D7C16C"/>
<path d="M39 88L36 87L35.1 85.43L35.94 84.87C37.3093 85.5027 38.3984 86.6167 39 88Z" fill="#D7C16C"/>
<path d="M193.51 302.19H198L196.27 304.39L193.51 302.19Z" fill="#D7C16C"/>
<path d="M229.64 305.19H234.52L230.52 307.19C230.25 306.57 230 306.07 229.64 305.19Z" fill="#D7C16C"/>
<path d="M180 337L181.89 338.55L179.33 339.82C178.96 339.33 178.48 338.66 178 338L180 337Z" fill="#D7C16C"/>
<path d="M222.14 4.52005V0.930054L224.45 1.35005L222.14 4.52005Z" fill="#D7C16C"/>
<path d="M227.69 4.10999C227.85 5.82999 227.93 6.69999 228.05 7.95999L225.52 7.70999L227.69 4.10999Z" fill="#D7C16C"/>
<path d="M150.63 312.48C150.81 313.48 150.91 314.04 151.05 314.8H147.46L150.63 312.48Z" fill="#D7C16C"/>
<path d="M225.12 306.31L228.75 305.21C228.8 305.48 228.9 306.04 229.05 306.8H225.16C225.15 306.63 225.14 306.47 225.12 306.31Z" fill="#D7C16C"/>
<path d="M132.1 316.93L133.84 317.07C133.84 317.67 133.93 318.07 134 318.86L131 318.99L132.1 316.93Z" fill="#D7C16C"/>
<path d="M233.71 303H232.26C232.15 302.5 232.04 301.94 231.89 301.25L233.71 300.88V303Z" fill="#D7C16C"/>
<path d="M185.13 304.49L183.6 307.16C182.12 305.37 183.83 304.86 185.13 304.49Z" fill="#D7C16C"/>
<path d="M65 155C65.38 154 64.08 152.47 66 152C66.28 152.5 66.55 153 66.91 153.66L65 155Z" fill="#D7C16C"/>
<path d="M184 26C183.48 26.3 183 26.59 182.41 26.91L180.8 25.3L184 25V26Z" fill="#D7C16C"/>
<path d="M186.31 19.17L184.52 21L183.52 19.22L186.31 19.17Z" fill="#D7C16C"/>
<path d="M267 324.22H270.92C270.92 324.37 270.92 324.52 270.92 324.67H267C267 324.52 267 324.37 267 324.22Z" fill="#D7C16C"/>
<path d="M233.5 22.29L231.29 25.29C231.38 23.13 231.38 23.13 233.5 22.29Z" fill="#D7C16C"/>
<path d="M294.43 292.71C294.68 292.18 294.99 291.49 295.61 290.16L296.06 292.71H294.43Z" fill="#D7C16C"/>
<path d="M52.49 120.49C52.95 121.2 53.41 121.9 54.01 122.84L52.1 123C52.05 122.2 52 121.61 51.96 121L52.49 120.49Z" fill="#D7C16C"/>
<path d="M375.08 83.84V81C376 82.68 376 82.68 375.08 83.84Z" fill="#D7C16C"/>
<path d="M252.05 302.57V301.14H253.77C253.89 301.3 254.01 301.45 254.12 301.61L252.05 302.57Z" fill="#D7C16C"/>
<path d="M276 305C276.49 304.61 277 304.21 278 303.41V306H277C276.63 305.63 276.3 305.3 276 305Z" fill="#D7C16C"/>
<path d="M181.17 36C181.17 35 181.08 34.06 181.04 33.08L181.7 33.02L182.09 35.97L181.17 36Z" fill="#D7C16C"/>
<path d="M204.83 305H206.48L205.19 307C205.08 306.36 205 305.91 204.83 305Z" fill="#D7C16C"/>
<path d="M162 310.16L164.92 310.02L164.98 310.69L162.04 311.07C162 310.77 162 310.46 162 310.16Z" fill="#D7C16C"/>
<path d="M40.24 113.07H41.83V116.07L40.24 113.07Z" fill="#D7C16C"/>
<path d="M344.94 315.16L347.86 315.02L347.92 315.69L344.97 316.07L344.94 315.16Z" fill="#D7C16C"/>
<path d="M178.78 27C178.83 28 178.87 28.95 178.92 29.92L178.25 29.98L177.86 27H178.78Z" fill="#D7C16C"/>
<path d="M334.74 316.32L336.74 315.82C336.83 316.56 336.89 317.1 337.04 318.45L334.74 316.32Z" fill="#D7C16C"/>
<path d="M136.16 317.12H138.81L138.86 317.65L136.21 318.02C136.19 317.72 136.17 317.42 136.16 317.12Z" fill="#D7C16C"/>
<path d="M173.9 307.35V308.79H172.18L171.82 308.31L173.9 307.35Z" fill="#D7C16C"/>
<path d="M219 1C219 1.59 218.91 2.18 218.85 3L217 2.86L218.48 0.5L219 1Z" fill="#D7C16C"/>
<path d="M245 329.76L242.08 329.9C242.08 329.68 242.08 329.45 242.03 329.23L244.97 328.85L245 329.76Z" fill="#D7C16C"/>
<path d="M226.2 5C226.14 4.36 226.09 3.72 226.03 3.08L226.68 3C226.8 3.65 226.93 4.29 227.06 4.94L226.2 5Z" fill="#D7C16C"/>
<path d="M231.19 81C231.14 80.36 231.09 79.72 231.03 79.09L231.68 79C231.8 79.65 231.93 80.3 232.06 81H231.19Z" fill="#D7C16C"/>
<path d="M105.15 194.15H106.8L106.88 194.62L105.25 195.01C105.22 194.72 105.18 194.43 105.15 194.15Z" fill="#D7C16C"/>
<path d="M268.8 294.12V295.78L268.32 295.86L267.93 294.23L268.8 294.12Z" fill="#D7C16C"/>
<path d="M52.2201 196C52.1601 195.36 52.11 194.73 52.05 194.09L52.7001 194C52.8301 194.65 52.9501 195.31 53.0801 196H52.2201Z" fill="#D7C16C"/>
<path d="M226.13 302.13H227.79C227.79 302.29 227.84 302.45 227.87 302.61L226.23 303L226.13 302.13Z" fill="#D7C16C"/>
<path d="M394 25L395 26.24L394 27V25Z" fill="#D7C16C"/>
<path d="M48.5699 115.83L50.9899 116.52C50.5378 116.707 50.0691 116.851 49.5899 116.95C49.4499 117 49.2499 116.6 48.5699 115.83Z" fill="#D7C16C"/>
<path d="M36.52 91.8199L39 92.5199C38.5442 92.7087 38.0723 92.856 37.59 92.9599C37.45 92.9999 37.25 92.6099 36.52 91.8199Z" fill="#D7C16C"/>
<path d="M253.94 307.19L255.85 307.02L255.94 307.67L253.99 308.05C254 307.76 254 307.47 253.94 307.19Z" fill="#D7C16C"/>
<path d="M211.22 316V314H211.72V316H211.22Z" fill="#D7C16C"/>
<path d="M352.13 315.78V314.12L352.62 314.05L352.98 315.72L352.13 315.78Z" fill="#D7C16C"/>
<path d="M65 155.76L63.09 155.92L63 155.28L64.95 154.89C65 155.18 65 155.47 65 155.76Z" fill="#D7C16C"/>
<path d="M93 188.2L94.91 188.04L95 188.68L93.05 189.06C93 188.78 93 188.49 93 188.2Z" fill="#D7C16C"/>
<path d="M333 317H335L333.75 318L333 317Z" fill="#D7C16C"/>
<path d="M338 317.21H340V317.71H338V317.21Z" fill="#D7C16C"/>
<path d="M295 321.21H297V321.71H295V321.21Z" fill="#D7C16C"/>
<path d="M271.78 294.79H270.12L270.06 294.3L271.73 293.94C271.75 294.22 271.76 294.51 271.78 294.79Z" fill="#D7C16C"/>
<path d="M238.15 330.13H239.81L239.88 330.62L238.19 330.99C238.18 330.7 238.17 330.42 238.15 330.13Z" fill="#D7C16C"/>
<path d="M125.51 353.79L127.98 354.49C127.529 354.681 127.06 354.826 126.58 354.92C126.44 354.94 126.23 354.57 125.51 353.79Z" fill="#D7C16C"/>
<path d="M46.66 126V127H46.33V126H46.66Z" fill="#D7C16C"/>
<path d="M58 144.65H57V144.32H58V144.65Z" fill="#D7C16C"/>
<path d="M65.66 157V158H65.33V157H65.66Z" fill="#D7C16C"/>
<path d="M61.89 160.89L62.58 160.07L62.9 160.39L62.08 161.08L61.89 160.89Z" fill="#D7C16C"/>
<path d="M84 182L84.67 181.17L85 182H84Z" fill="#D7C16C"/>
<path d="M85 182L85.83 182.67L85 183V182Z" fill="#D7C16C"/>
<path d="M90 185.64H89V185.31H90V185.64Z" fill="#D7C16C"/>
<path d="M361.85 7.90997L362.55 7.08997L362.86 7.40997L362.05 8.09997L361.85 7.90997Z" fill="#D7C16C"/>
<path d="M371 7.66996H370V7.32996H371V7.66996Z" fill="#D7C16C"/>
<path d="M361 9C361.34 8.67 361.67 8.33 362 8C361.62 8.33 361.29 8.67 361 9Z" fill="#D7C16C"/>
<path d="M230 10.67H229V10.33H230V10.67Z" fill="#D7C16C"/>
<path d="M371 10.33H372V10.67H371V10.33Z" fill="#D7C16C"/>
<path d="M191.64 11V12H191.31V11H191.64Z" fill="#D7C16C"/>
<path d="M338 270.63H337V270.3H338V270.63Z" fill="#D7C16C"/>
<path d="M340 270.63H339V270.3H340V270.63Z" fill="#D7C16C"/>
<path d="M182 23.66H181V23.33H182V23.66Z" fill="#D7C16C"/>
<path d="M177.89 27.1L177.07 26.4L177.39 26.09L178.08 26.91L177.89 27.1Z" fill="#D7C16C"/>
<path d="M107.88 196.88L108.58 196.07L108.89 196.38L108.08 197.08L107.88 196.88Z" fill="#D7C16C"/>
<path d="M281 293.3H282V293.63H281V293.3Z" fill="#D7C16C"/>
<path d="M296.86 295.87L297.56 295.06L297.87 295.37L297.05 296.07L296.86 295.87Z" fill="#D7C16C"/>
<path d="M258.63 296V297H258.3V296H258.63Z" fill="#D7C16C"/>
<path d="M294 296.3H295V296.63H294V296.3Z" fill="#D7C16C"/>
<path d="M297.07 296.05C296.84 296.33 296.6 296.6 296.37 296.87L296.06 296.56L296.87 295.86L297.07 296.05Z" fill="#D7C16C"/>
<path d="M184.08 40.09L183.38 40.9L183.07 40.59L183.89 39.89L184.08 40.09Z" fill="#D7C16C"/>
<path d="M209.08 299.05L208.38 299.87L208.07 299.55L208.88 298.86L209.08 299.05Z" fill="#D7C16C"/>
<path d="M102 192.64H101V192.31H102V192.64Z" fill="#D7C16C"/>
<path d="M257 301.63H256V301.3H257V301.63Z" fill="#D7C16C"/>
<path d="M224.31 304V303H224.64V304H224.31Z" fill="#D7C16C"/>
<path d="M332.63 305V306H332.29V305H332.63Z" fill="#D7C16C"/>
<path d="M198.31 307V306H198.64V307H198.31Z" fill="#D7C16C"/>
<path d="M376 76.3199H377V76.66H376V76.3199Z" fill="#D7C16C"/>
<path d="M209.64 308V309H209.31V308H209.64Z" fill="#D7C16C"/>
<path d="M216 308.63H215V308.29H216V308.63Z" fill="#D7C16C"/>
<path d="M248.88 309.07L248.06 308.37L248.38 308.05L249.07 308.87L248.88 309.07Z" fill="#D7C16C"/>
<path d="M166.65 309V310H166.31V309H166.65Z" fill="#D7C16C"/>
<path d="M97.3199 191V190H97.6499V191H97.3199Z" fill="#D7C16C"/>
<path d="M32.09 85.88L32.9 86.58L32.59 86.9C32.36 86.62 32.12 86.35 31.89 86.08L32.09 85.88Z" fill="#D7C16C"/>
<path d="M39.09 87.88L39.9 88.58L39.59 88.9L38.89 88.08L39.09 87.88Z" fill="#D7C16C"/>
<path d="M174.31 315V314H174.64V315H174.31Z" fill="#D7C16C"/>
<path d="M215 314.29H216V314.63H215V314.29Z" fill="#D7C16C"/>
<path d="M354.62 314V315H354.29V314H354.62Z" fill="#D7C16C"/>
<path d="M144 315.29H145V315.63H144V315.29Z" fill="#D7C16C"/>
<path d="M142.65 316V317H142.32V316H142.65Z" fill="#D7C16C"/>
<path d="M332 317L332.67 316.17L333 317H332Z" fill="#D7C16C"/>
<path d="M345.06 316.05C344.83 316.32 344.6 316.6 344.36 316.87L344.05 316.55L344.87 315.86L345.06 316.05Z" fill="#D7C16C"/>
<path d="M191 317.63H190V317.29H191V317.63Z" fill="#D7C16C"/>
<path d="M307 319L306.33 319.83L306 319H307Z" fill="#D7C16C"/>
<path d="M124 320.63H123V320.29H124V320.63Z" fill="#D7C16C"/>
<path d="M125.32 321V320H125.65V321H125.32Z" fill="#D7C16C"/>
<path d="M119.88 321.87C120.11 321.6 120.34 321.32 120.58 321.05L120.89 321.37L120.08 322.06L119.88 321.87Z" fill="#D7C16C"/>
<path d="M162.87 321.87C163.11 321.6 163.34 321.32 163.57 321.05L163.89 321.37L163.07 322.06L162.87 321.87Z" fill="#D7C16C"/>
<path d="M120.09 322.05C119.86 322.32 119.62 322.59 119.39 322.87L119.08 322.55L119.89 321.85L120.09 322.05Z" fill="#D7C16C"/>
<path d="M163.08 322.05L162.39 322.87L162.07 322.55L162.89 321.85L163.08 322.05Z" fill="#D7C16C"/>
<path d="M261 322.29H262V322.63H261V322.29Z" fill="#D7C16C"/>
<path d="M265.07 322.05L264.37 322.87L264.06 322.55L264.88 321.85L265.07 322.05Z" fill="#D7C16C"/>
<path d="M267.07 325.05L266.37 325.87L266.06 325.55L266.88 324.85L267.07 325.05Z" fill="#D7C16C"/>
<path d="M253.3 328V327H253.63V328H253.3Z" fill="#D7C16C"/>
<path d="M245 329L245.67 328.17L246 329H245Z" fill="#D7C16C"/>
<path d="M250.64 328V329H250.3V328H250.64Z" fill="#D7C16C"/>
<path d="M246.06 328.85L246.88 329.55L246.56 329.87L245.86 329.05L246.06 328.85Z" fill="#D7C16C"/>
<path d="M169 334.62H168V334.29H169V334.62Z" fill="#D7C16C"/>
<path d="M184.08 338.05L183.38 338.87L183.07 338.55L183.89 337.85L184.08 338.05Z" fill="#D7C16C"/>
<path d="M43 116.65H42V116.32H43V116.65Z" fill="#D7C16C"/>
<path d="M164.65 344V345H164.31V344H164.65Z" fill="#D7C16C"/>
<path d="M124 346C124.23 345.72 124.45 345.44 124.68 345.17C124.78 345.44 124.89 345.72 125 346H124Z" fill="#D7C16C"/>
<path d="M125.88 351.87L126.58 351.05L126.89 351.36L126.07 352.06L125.88 351.87Z" fill="#D7C16C"/>
<path d="M130.88 354.87C131.11 354.59 131.34 354.32 131.58 354.05L131.89 354.36L131.07 355.06L130.88 354.87Z" fill="#D7C16C"/>
<path d="M128.07 354.85L128.89 355.55L128.58 355.86L127.88 355.05L128.07 354.85Z" fill="#D7C16C"/>
<path d="M131.09 355.05L130.39 355.86L130.08 355.55L130.89 354.85L131.09 355.05Z" fill="#D7C16C"/>
<path d="M30.1 96.08L29.4 96.9L29.09 96.58L29.91 95.88L30.1 96.08Z" fill="#D7C16C"/>
<path d="M14.91 99.09L14.09 98.4L14.41 98.08L15.1 98.9L14.91 99.09Z" fill="#D7C16C"/>
<path d="M33 100H32C32.33 99.66 32.66 99.33 33 99V100Z" fill="#D7C16C"/>
<path d="M16.09 99.88L16.91 100.58L16.59 100.9C16.36 100.62 16.13 100.35 15.89 100.08L16.09 99.88Z" fill="#D7C16C"/>
<path d="M9.09997 97.08L8.40997 97.9L8.08997 97.58L8.90997 96.88L9.09997 97.08Z" fill="#D7C16C"/>
<path d="M172 296.74L170.09 296.9L170.01 296.26L172.01 295.88C172 296.16 172 296.45 172 296.74Z" fill="#D7C16C"/>
<path d="M332.29 142V141H332.63V142H332.29Z" fill="#D7C16C"/>
<path d="M293.86 179.89C294.09 179.61 294.32 179.34 294.56 179.07L294.87 179.39L294.05 180.08L293.86 179.89Z" fill="#D7C16C"/>
<path d="M294.07 180.07C293.84 180.34 293.6 180.61 293.37 180.89L293.06 180.57L293.87 179.87L294.07 180.07Z" fill="#D7C16C"/>
<path d="M103 217.64H102V217.31H103V217.64Z" fill="#D7C16C"/>
<path d="M89 220.64H88V220.31H89V220.64Z" fill="#D7C16C"/>
<path d="M122.09 222.06L121.39 222.88L121.08 222.56L121.89 221.87L122.09 222.06Z" fill="#D7C16C"/>
<path d="M124.65 223V224H124.32V223H124.65Z" fill="#D7C16C"/>
<path d="M162.31 299V298H162.65V299H162.31Z" fill="#D7C16C"/>
<path d="M160.65 299V300H160.31V299H160.65Z" fill="#D7C16C"/>
<path d="M155.89 303.07L155.07 302.37L155.39 302.05L156.09 302.87L155.89 303.07Z" fill="#D7C16C"/>
<path d="M146 304.63H145V304.3H146V304.63Z" fill="#D7C16C"/>
<path d="M129.89 310.07L129.08 309.37L129.39 309.05C129.62 309.33 129.86 309.6 130.09 309.87L129.89 310.07Z" fill="#D7C16C"/>
<path d="M120 310.29H121V310.63H120V310.29Z" fill="#D7C16C"/>
<path d="M235 187.64H234V187.31H235V187.64Z" fill="#D7C16C"/>
<path d="M80 220V219L80.83 219.67L80 220Z" fill="#D7C16C"/>
<path d="M255 162V165C254.671 165.079 254.329 165.088 253.996 165.029C253.663 164.969 253.345 164.842 253.064 164.654C252.782 164.466 252.543 164.223 252.359 163.938C252.176 163.653 252.054 163.334 252 163L255 162Z" fill="#D7C16C"/>
<path d="M249 159H250V160.83L249.34 160.9C249.19 160.25 249.08 159.61 249 159Z" fill="#D7C16C"/>
<path d="M249.55 161.82L251.97 162.51C251.518 162.699 251.049 162.846 250.57 162.95C250.42 163 250.23 162.59 249.55 161.82Z" fill="#D7C16C"/>
<path d="M246.07 155.07L245.38 155.89L245.06 155.57L245.88 154.88L246.07 155.07Z" fill="#D7C16C"/>
<path d="M224.06 72.89L224.88 73.58L224.56 73.9L223.87 73.08L224.06 72.89Z" fill="#D7C16C"/>
<path d="M226.31 80V79H226.64V80H226.31Z" fill="#D7C16C"/>
<path d="M228.06 89.88L228.88 90.58L228.56 90.9L227.87 90.08L228.06 89.88Z" fill="#D7C16C"/>
<path d="M229.08 94.08C228.84 94.35 228.61 94.62 228.38 94.9L228.06 94.58L228.88 93.88L229.08 94.08Z" fill="#D7C16C"/>
<path d="M230 101.32H231V101.65H230V101.32Z" fill="#D7C16C"/>
<path d="M366 30H367L366.33 30.83L366 30Z" fill="#D7C16C"/>
<path d="M363.05 30.89L363.86 31.59L363.55 31.9L362.85 31.09L363.05 30.89Z" fill="#D7C16C"/>
<path d="M208.13 29.17H210.78L210.84 29.68L208.22 30.05L208.13 29.17Z" fill="#D7C16C"/>
<path d="M205.64 25V26H205.31V25H205.64Z" fill="#D7C16C"/>
<path d="M211 26.33H212V26.66H211V26.33Z" fill="#D7C16C"/>
<path d="M207 29.66H206V29.33H207V29.66Z" fill="#D7C16C"/>
<path d="M193.31 21V20H193.64V21H193.31Z" fill="#D7C16C"/>
</g>
<defs>
<clipPath id="clip0_209_817">
<rect width="396.95" height="357.96" fill="white"/>
</clipPath>
</defs>
</svg>
