<svg width="512" height="512" viewBox="0 0 512 512" fill="none" xmlns="http://www.w3.org/2000/svg">
<g clip-path="url(#clip0_210_87)">
<path d="M256 0C273.7 0 288 14.3 288 32V42.4C381.7 56.3 455.7 130.4 469.6 224H480C497.7 224 512 238.3 512 256C512 273.7 497.7 288 480 288H469.6C455.7 381.7 381.6 455.7 288 469.6V480C288 497.7 273.7 512 256 512C238.3 512 224 497.7 224 480V469.6C130.3 455.7 56.3 381.7 42.4 288H32C14.3 288 0 273.7 0 256C0 238.3 14.3 224 32 224H42.4C56.3 130.3 130.3 56.3 224 42.4V32C224 14.3 238.3 0 256 0ZM107.4 288C119.9 346.3 165.8 392.1 224 404.6V384C224 366.3 238.3 352 256 352C273.7 352 288 366.3 288 384V404.6C346.3 392.1 392.1 346.2 404.6 288H384C366.3 288 352 273.7 352 256C352 238.3 366.3 224 384 224H404.6C392.1 165.7 346.3 119.9 288 107.4V128C288 145.7 273.7 160 256 160C238.3 160 224 145.7 224 128V107.4C165.7 119.9 119.9 165.7 107.4 224H128C145.7 224 160 238.3 160 256C160 273.7 145.7 288 128 288H107.4ZM256 224C264.487 224 272.626 227.371 278.627 233.373C284.629 239.374 288 247.513 288 256C288 264.487 284.629 272.626 278.627 278.627C272.626 284.629 264.487 288 256 288C247.513 288 239.374 284.629 233.373 278.627C227.371 272.626 224 264.487 224 256C224 247.513 227.371 239.374 233.373 233.373C239.374 227.371 247.513 224 256 224Z" fill="#D7C16C"/>
</g>
<defs>
<clipPath id="clip0_210_87">
<rect width="512" height="512" fill="white"/>
</clipPath>
</defs>
</svg>
