<svg viewBox="0 0 39 42" fill="none" xmlns="http://www.w3.org/2000/svg">
<g id="exit">
<g id="Rectangle 65" filter="url(#filter0_d_1_1207)">
<rect x="1" y="1" width="33" height="36" rx="5" fill="url(#paint0_linear_1_1207)"/>
<rect x="1.5" y="1.5" width="32" height="35" rx="4.5" stroke="black" stroke-opacity="0.25"/>
</g>
<g id="Vector">
<path d="M14.4667 11C12.5646 11 11 12.5646 11 14.4667V23.5333C11 25.4354 12.5646 27 14.4667 27H19.0421C20.8089 27 22.2836 25.6498 22.4846 23.9333H20.3183C20.1552 24.4843 19.6588 24.8667 19.0421 24.8667H14.4667C13.7096 24.8667 13.1333 24.2904 13.1333 23.5333V14.4667C13.1333 13.7096 13.7096 13.1333 14.4667 13.1333H19.0421C19.6588 13.1333 20.1552 13.5157 20.3183 14.0667H22.4846C22.2836 12.3502 20.8089 11 19.0421 11H14.4667Z" fill="white" fill-opacity="0.75"/>
<path d="M23.7164 15.8C23.5763 15.8 23.4376 15.8276 23.3081 15.8812C23.1787 15.9348 23.0611 16.0133 22.9621 16.1124C22.863 16.2114 22.7845 16.329 22.7308 16.4584C22.6772 16.5879 22.6496 16.7266 22.6496 16.8666C22.6496 17.0067 22.6772 17.1454 22.7308 17.2749C22.7845 17.4043 22.863 17.5219 22.9621 17.6209L23.2745 17.9333H15.366C15.0831 17.9333 14.8118 18.0457 14.6118 18.2457C14.4118 18.4458 14.2994 18.7171 14.2994 19C14.2994 19.2829 14.4118 19.5542 14.6118 19.7542C14.8118 19.9543 15.0831 20.0666 15.366 20.0666H23.2745L22.9621 20.379C22.863 20.4781 22.7845 20.5957 22.7308 20.7251C22.6772 20.8545 22.6496 20.9932 22.6496 21.1333C22.6496 21.2734 22.6772 21.4121 22.7308 21.5415C22.7845 21.6709 22.863 21.7885 22.9621 21.8876C23.0611 21.9866 23.1787 22.0652 23.3081 22.1188C23.4376 22.1724 23.5763 22.2 23.7164 22.2C23.8564 22.2 23.9951 22.1724 24.1246 22.1188C24.254 22.0652 24.3716 21.9866 24.4706 21.8876L26.4117 19.9465C26.5875 19.8583 26.7355 19.7232 26.8393 19.5562C26.9431 19.3891 26.9987 19.1966 27 19C26.9998 18.8003 26.9435 18.6047 26.8375 18.4354C26.7316 18.2662 26.5803 18.13 26.4008 18.0425L24.4706 16.1124C24.3716 16.0133 24.254 15.9348 24.1246 15.8812C23.9951 15.8276 23.8564 15.8 23.7164 15.8Z" fill="white" fill-opacity="0.75"/>
</g>
</g>
<defs>
<filter id="filter0_d_1_1207" x="0" y="0" width="39" height="42" filterUnits="userSpaceOnUse" color-interpolation-filters="sRGB">
<feFlood flood-opacity="0" result="BackgroundImageFix"/>
<feColorMatrix in="SourceAlpha" type="matrix" values="0 0 0 0 0 0 0 0 0 0 0 0 0 0 0 0 0 0 127 0" result="hardAlpha"/>
<feOffset dx="2" dy="2"/>
<feGaussianBlur stdDeviation="1.5"/>
<feComposite in2="hardAlpha" operator="out"/>
<feColorMatrix type="matrix" values="0 0 0 0 0 0 0 0 0 0 0 0 0 0 0 0 0 0 0.25 0"/>
<feBlend mode="normal" in2="BackgroundImageFix" result="effect1_dropShadow_1_1207"/>
<feBlend mode="normal" in="SourceGraphic" in2="effect1_dropShadow_1_1207" result="shape"/>
</filter>
<linearGradient id="paint0_linear_1_1207" x1="1" y1="19" x2="34" y2="19" gradientUnits="userSpaceOnUse">
<stop stop-color="#F56B1F"/>
<stop offset="1" stop-color="#D03E00"/>
</linearGradient>
</defs>
</svg>
