<svg viewBox="0 0 15 18" fill="none" xmlns="http://www.w3.org/2000/svg">
<path id="flame-fire" fill-rule="evenodd" clip-rule="evenodd" d="M13.2254 4.27285C13.2126 4.02456 12.9704 3.84233 12.7354 3.93328C11.2787 4.49696 10.6402 5.54546 10.4347 6.53349C10.3592 6.89642 9.84247 7.0769 9.65848 6.75374C8.668 5.01398 8.65166 3.00615 8.65352 0.365108C8.6537 0.104518 8.38867 -0.0757732 8.14744 0.0315298C3.49271 2.1021 4.01331 7.02852 4.05337 9.34827C4.05853 9.64722 3.73111 9.7789 3.5465 9.54148C2.84126 8.63451 2.52064 7.33968 2.38882 6.61592C2.34158 6.35655 2.04952 6.20724 1.8374 6.36795C0.61356 7.29519 0 9.11209 0 10.6166C0 14.6945 3.35769 18 7.5 18C11.6423 18 15 14.6945 15 10.6166C15 8.31932 13.3758 7.19534 13.2254 4.27285Z" fill="white"/>
</svg>
