<svg width="19" height="12" viewBox="0 0 19 12" fill="none" xmlns="http://www.w3.org/2000/svg">
<g id="Icon gameped">
<path id="Vector" d="M18.4139 8.35173L17.3677 3.90235C16.8378 1.92474 15.0457 0.549744 12.9983 0.549744H5.93919C3.89173 0.549744 2.09971 1.9247 1.5698 3.90235L0.523548 8.35173C0.255727 9.628 0.992532 10.9014 2.23306 11.3049L2.29423 11.3245C3.44236 11.6983 4.69498 11.2166 5.29759 10.1703L6.20793 8.82419C6.43651 8.42735 6.85965 8.18259 7.31711 8.18259H11.6204C12.0779 8.18259 12.501 8.42735 12.7296 8.82419L13.6399 10.1703C14.2426 11.2166 15.4954 11.6983 16.6436 11.3245L16.7045 11.3049C17.9449 10.9014 18.6818 9.628 18.4139 8.35173ZM7.1852 5.37002H5.71957V6.83589H4.44358V5.37002H2.97795V4.09458H4.44358V2.62927H5.71957V4.09458H7.1852V5.37002ZM13.6428 2.3239C14.0867 2.3239 14.446 2.68324 14.446 3.12715C14.446 3.57047 14.0867 3.92981 13.6428 3.92981C13.1995 3.92981 12.8401 3.57047 12.8401 3.12715C12.8401 2.6832 13.1995 2.3239 13.6428 2.3239ZM12.0369 5.53595C11.5935 5.53595 11.2339 5.17631 11.2339 4.73242C11.2339 4.28938 11.5935 3.92977 12.0369 3.92977C12.4805 3.92977 12.8398 4.28938 12.8398 4.73242C12.8398 5.17634 12.4805 5.53595 12.0369 5.53595ZM13.6428 7.14154C13.1995 7.14154 12.8401 6.78221 12.8401 6.33889C12.8401 5.89497 13.1995 5.53564 13.6428 5.53564C14.0867 5.53564 14.446 5.89497 14.446 6.33889C14.446 6.78221 14.0867 7.14154 13.6428 7.14154ZM15.2486 5.53595C14.8053 5.53595 14.446 5.17631 14.446 4.73242C14.446 4.28938 14.8053 3.92977 15.2486 3.92977C15.6922 3.92977 16.0519 4.28938 16.0519 4.73242C16.0519 5.17634 15.6922 5.53595 15.2486 5.53595Z" fill="#D7C16C"/>
</g>
</svg>
