<svg viewBox="0 0 14 12" fill="none" xmlns="http://www.w3.org/2000/svg">
<path id="Vector" d="M11.1694 7.1737C11.17 7.17495 11.1708 7.17607 11.1719 7.17704L11.3167 7.31571L11.8239 7.80757C11.9031 7.87888 11.9661 7.96551 12.0086 8.06185C12.0378 8.12961 12.054 8.20193 12.0565 8.2753C12.0581 8.33023 12.0449 8.38461 12.0182 8.43307C12.0009 8.4651 11.9797 8.495 11.955 8.52216L11.7292 8.74118C11.6673 8.81141 11.5806 8.85675 11.4861 8.86832C11.4105 8.87294 11.3348 8.85923 11.266 8.82841C11.202 8.79958 11.143 8.7614 11.0909 8.71519C11.0555 8.68431 11.0207 8.65275 10.9866 8.62053L10.2708 7.91244C10.2541 7.89428 10.2337 7.87959 10.2109 7.86925C10.1882 7.85892 10.1635 7.85314 10.1384 7.85227C10.1133 7.85141 10.0883 7.85547 10.0648 7.86421C10.0414 7.87295 10.02 7.8862 10.0019 7.90316L9.97034 7.93843C9.94903 7.95874 9.93207 7.98294 9.92044 8.00963C9.90881 8.03632 9.90273 8.06497 9.90255 8.09395C9.90237 8.12293 9.9081 8.15165 9.9194 8.17847C9.93071 8.20529 9.94737 8.22969 9.96842 8.25025L10.8201 9.05857C10.8897 9.12099 10.9465 9.19561 10.9876 9.27851C11.0204 9.34134 11.0387 9.4104 11.0411 9.48082C11.0425 9.53572 11.0293 9.59002 11.0029 9.63859C10.9794 9.67983 10.9505 9.7179 10.9167 9.75181L10.6316 10.0284C10.5716 10.0947 10.491 10.1403 10.4019 10.1583C10.3318 10.1682 10.2602 10.1602 10.1943 10.1351C10.1295 10.1105 10.0701 10.0743 10.0191 10.0284C9.97679 9.9906 9.93531 9.95192 9.89474 9.91236L9.01053 9.03908C8.99547 9.02299 8.97719 9.01005 8.9568 9.00106C8.93641 8.99206 8.91434 8.9872 8.89194 8.98677C8.86954 8.98633 8.84729 8.99034 8.82655 8.99853C8.8058 9.00673 8.787 9.01895 8.77129 9.03444L8.689 9.11518C8.65594 9.14838 8.63762 9.19283 8.63798 9.23898C8.63833 9.28514 8.65734 9.32932 8.69091 9.36203L9.50622 10.136C9.58388 10.207 9.64916 10.2898 9.69952 10.381C9.73418 10.444 9.7538 10.5138 9.75694 10.5852C9.75867 10.6407 9.74548 10.6957 9.71866 10.7448C9.69486 10.7855 9.66557 10.823 9.63158 10.8562L9.40574 11.0761C9.19139 11.2605 8.94577 11.2181 8.6689 10.949L7.82297 10.1472C7.80155 10.1262 7.77247 10.1142 7.74202 10.1138C7.71157 10.1135 7.68221 10.1248 7.66029 10.1453L7.54928 10.2325C7.53249 10.2482 7.5192 10.2671 7.51024 10.288C7.50128 10.3089 7.49685 10.3314 7.49721 10.354C7.49756 10.3766 7.50271 10.3989 7.51233 10.4195C7.52195 10.4401 7.53583 10.4586 7.55311 10.4738L8.10813 11.0167C8.18588 11.0837 8.24259 11.1705 8.27177 11.2673C8.28947 11.3364 8.29046 11.4085 8.27464 11.478C8.25821 11.5486 8.22365 11.614 8.17416 11.6682L7.94833 11.8872C7.88272 11.9524 7.79502 11.9922 7.70144 11.9995C7.62762 12.0025 7.55389 11.9918 7.48421 11.968C7.40315 11.9373 7.33 11.8897 7.26986 11.8288L2.68134 7.37975C2.45584 7.16422 2.25559 6.92519 2.08421 6.66702C1.93816 6.44812 1.81932 6.21324 1.73014 5.96728C1.65442 5.75496 1.60683 5.53418 1.58852 5.31023C1.5877 5.30095 1.58696 5.29167 1.58629 5.28239C1.5609 4.93306 1.47599 4.57282 1.22456 4.32898L0.821053 3.93766L0.778491 3.89879C0.355361 3.51235 0.342864 2.85009 0.751115 2.44796L2.53321 0.692608C2.92303 0.308632 3.54907 0.309263 3.93812 0.694024L4.20369 0.956657C4.60235 1.35092 4.59899 1.99586 4.19625 2.38596L4.14737 2.43331L4.13014 2.45187L4.11866 2.46394C3.96225 2.63071 3.84474 2.82823 3.77416 3.04303C3.70472 3.25549 3.68575 3.48043 3.71866 3.70101C3.76682 4.01474 3.92176 4.30383 4.15885 4.52232L4.39043 4.74598L4.41148 4.76547L4.42584 4.77846C4.60404 4.93279 4.81877 5.04209 5.05097 5.09664C5.28317 5.1512 5.52566 5.14933 5.75694 5.09121C6.03325 5.01952 6.28367 4.87497 6.48038 4.67359L7.20828 3.96704C7.39226 3.78846 7.68496 3.78876 7.86856 3.96773L7.91119 4.00928C7.91297 4.01102 7.91452 4.01299 7.91578 4.01514C7.91706 4.0173 7.91862 4.01929 7.92042 4.02104L11.1669 7.17043C11.1679 7.17138 11.1687 7.17249 11.1694 7.1737ZM12.4531 4.79052C12.4529 4.79052 12.4526 4.79074 12.4527 4.791C12.461 4.89896 12.461 5.00738 12.4526 5.11534C12.4343 5.3361 12.3874 5.55374 12.3129 5.76311C12.2263 6.00348 12.1107 6.23307 11.9684 6.44707C11.948 6.47822 11.9272 6.50906 11.9058 6.53958C11.8835 6.57154 11.8381 6.57579 11.8096 6.54915L7.86029 2.71358C7.81814 2.67255 7.76806 2.63998 7.71293 2.61773C7.65779 2.59547 7.59868 2.58397 7.53896 2.58389C7.47924 2.5838 7.42008 2.59513 7.36488 2.61722C7.30967 2.63932 7.2595 2.67174 7.21723 2.71265L5.83828 4.05088C5.75702 4.13857 5.65238 4.20279 5.53589 4.23649C5.45057 4.25896 5.36089 4.26087 5.27464 4.24206L5.26986 4.24113C5.17889 4.22008 5.09492 4.17697 5.02584 4.11584L4.80191 3.89961C4.70702 3.81604 4.64313 3.70451 4.6201 3.58222C4.60536 3.49196 4.61191 3.39963 4.63923 3.31216L4.64211 3.30567C4.67409 3.21118 4.72663 3.12446 4.79617 3.05138L4.79904 3.0486L6.34928 1.54518C6.51222 1.38752 6.70706 1.26428 6.92153 1.18325C7.13912 1.10093 7.3669 1.04664 7.59904 1.02177C7.75663 1.00444 7.91509 0.995761 8.07368 0.995783C8.15411 0.995812 8.23453 0.997978 8.31483 1.00228C8.56545 1.0156 8.81524 1.03975 9.06346 1.07463C9.39008 1.12053 9.72436 1.02656 9.96123 0.797031L10.0818 0.680177C10.4698 0.304259 11.0861 0.304382 11.4739 0.680455L13.2595 2.41218C13.6647 2.80512 13.6646 3.45531 13.2593 3.84812L12.5019 4.58225C12.4865 4.59717 12.4742 4.61525 12.4684 4.63587C12.4541 4.68592 12.449 4.73812 12.4535 4.79005C12.4536 4.7903 12.4534 4.79052 12.4531 4.79052Z" fill="#F56B1F"/>
</svg>
