<svg width="15" height="14" viewBox="0 0 15 14" fill="none" xmlns="http://www.w3.org/2000/svg">
<path fill-rule="evenodd" clip-rule="evenodd" d="M12.5255 9.97516L12.5305 5.17525L9.11428 1.76981C8.08329 0.743398 6.41662 0.743398 5.38571 1.76981L1.97696 5.16696V9.97267C1.9797 11.4262 3.15998 12.6023 4.61347 12.6001H9.88899C11.3415 12.6024 12.5214 11.4276 12.5255 9.97516Z" stroke="white" stroke-width="1.2" stroke-linecap="round" stroke-linejoin="round"/>
<path d="M13.1527 1.84354C13.1527 1.50033 12.8745 1.22211 12.5313 1.22211C12.1881 1.22211 11.9099 1.50033 11.9099 1.84354H13.1527ZM12.5313 5.17525H11.9099C11.9099 5.34038 11.9756 5.49872 12.0926 5.6153L12.5313 5.17525ZM13.4398 6.95842C13.6829 7.20077 14.0763 7.20011 14.3186 6.95709C14.561 6.71399 14.5604 6.32058 14.3173 6.07823L13.4398 6.95842ZM2.41572 5.60702C2.65877 5.36474 2.65937 4.97125 2.41706 4.72819C2.17475 4.48514 1.78128 4.48454 1.53823 4.72685L2.41572 5.60702ZM0.182685 6.07823C-0.0603679 6.32058 -0.0609728 6.71399 0.181343 6.95709C0.42365 7.20011 0.817122 7.20077 1.06017 6.95842L0.182685 6.07823ZM8.28571 12.6001C8.28571 12.9433 8.56394 13.2215 8.90714 13.2215C9.25033 13.2215 9.52856 12.9433 9.52856 12.6001H8.28571ZM4.97143 12.6001C4.97143 12.9433 5.24966 13.2215 5.59285 13.2215C5.93605 13.2215 6.21428 12.9433 6.21428 12.6001H4.97143ZM11.9099 1.84354V5.17525H13.1527V1.84354H11.9099ZM12.0926 5.6153L13.4398 6.95842L14.3173 6.07823L12.97 4.73513L12.0926 5.6153ZM1.53823 4.72685L0.182685 6.07823L1.06017 6.95842L2.41572 5.60702L1.53823 4.72685ZM9.52856 12.6001V11.1252H8.28571V12.6001H9.52856ZM9.52856 11.1252C9.52856 9.86678 8.50843 8.84665 7.25 8.84665V10.0895C7.82204 10.0895 8.28571 10.5532 8.28571 11.1252H9.52856ZM7.25 8.84665C5.99156 8.84665 4.97143 9.86678 4.97143 11.1252H6.21428C6.21428 10.5532 6.67795 10.0895 7.25 10.0895V8.84665ZM4.97143 11.1252V12.6001H6.21428V11.1252H4.97143Z" fill="white"/>
</svg>
