<svg width="31" height="31" viewBox="0 0 31 31" fill="none" xmlns="http://www.w3.org/2000/svg">
<g id="Group 49">
<path id="Vector" d="M15.5 6.30511C16.2255 6.30511 16.8136 6.93243 16.8136 7.70624V17.5142C16.8136 18.288 16.2255 18.9153 15.5 18.9153C14.7745 18.9153 14.1864 18.288 14.1864 17.5142V7.70624C14.1864 6.93243 14.7745 6.30511 15.5 6.30511Z" fill="#D7C16C"/>
<path id="Vector_2" d="M15.7627 24.695C16.9234 24.695 17.8644 23.754 17.8644 22.5933C17.8644 21.4326 16.9234 20.4916 15.7627 20.4916C14.602 20.4916 13.661 21.4326 13.661 22.5933C13.661 23.754 14.602 24.695 15.7627 24.695Z" fill="#D7C16C"/>
<path id="Vector_3" fill-rule="evenodd" clip-rule="evenodd" d="M0 15.5C0 6.93959 6.93959 0 15.5 0C24.0604 0 31 6.93959 31 15.5C31 24.0604 24.0604 31 15.5 31C6.93959 31 0 24.0604 0 15.5ZM15.5 2.81818C8.49603 2.81818 2.81818 8.49603 2.81818 15.5C2.81818 22.504 8.49603 28.1818 15.5 28.1818C22.504 28.1818 28.1818 22.504 28.1818 15.5C28.1818 8.49603 22.504 2.81818 15.5 2.81818Z" fill="#D7C16C"/>
</g>
</svg>
