<svg viewBox="0 0 14 14" fill="none" xmlns="http://www.w3.org/2000/svg">
<g id="Vector">
<path d="M3.26898 8.59121H1.39999C0.629997 8.59121 0 9.1997 0 9.94341V13.3239C0 13.6958 0.314998 14 0.699997 14H3.26898C3.65398 14 3.96898 13.6958 3.96898 13.3239V9.26731C3.96898 8.89545 3.65398 8.59121 3.26898 8.59121Z" fill="#F56B1F"/>
<path d="M7.9311 5.88681H6.06211C5.29209 5.88681 4.66209 6.4953 4.66209 7.23901V13.3239C4.66209 13.6958 4.97709 14 5.36209 14H8.6311C9.0161 14 9.33109 13.6958 9.33109 13.3239V7.23901C9.33109 6.4953 8.7081 5.88681 7.9311 5.88681Z" fill="#F56B1F"/>
<path d="M12.6 10.6195H10.731C10.346 10.6195 10.031 10.9237 10.031 11.2956V13.3239C10.031 13.6958 10.346 14 10.731 14H13.3C13.685 14 14 13.6958 14 13.3239V11.9717C14 11.228 13.37 10.6195 12.6 10.6195Z" fill="#F56B1F"/>
<path d="M9.1066 2.40522C9.3236 2.19563 9.4076 1.94547 9.3376 1.72912C9.2676 1.51277 9.05061 1.35727 8.74261 1.30994L8.07061 1.20177C8.04261 1.20177 7.97961 1.15444 7.96561 1.12739L7.59461 0.41073C7.31461 -0.13691 6.67762 -0.13691 6.39762 0.41073L6.02662 1.12739C6.01962 1.15444 5.95662 1.20177 5.92862 1.20177L5.25659 1.30994C4.94859 1.35727 4.73859 1.51277 4.66159 1.72912C4.59159 1.94547 4.67559 2.19563 4.89259 2.40522L5.41059 2.9123C5.43859 2.93258 5.45959 3.01371 5.45259 3.04075L5.30559 3.66277C5.19359 4.12927 5.37559 4.33886 5.49459 4.42C5.61362 4.50113 5.87262 4.6093 6.29962 4.36591L6.92962 4.00758C6.95762 3.98729 7.04861 3.98729 7.07661 4.00758L7.69961 4.36591C7.89561 4.48084 8.05661 4.51465 8.18261 4.51465C8.32961 4.51465 8.43461 4.46056 8.49761 4.42C8.61661 4.33886 8.79861 4.12927 8.68661 3.66277L8.53961 3.04075C8.53261 3.00695 8.55361 2.93258 8.58161 2.9123L9.1066 2.40522Z" fill="#F56B1F"/>
</g>
</svg>
