<svg width="20" height="23" viewBox="0 0 20 23" fill="none" xmlns="http://www.w3.org/2000/svg">
<path d="M18.6602 18.1581C17.8098 16.6465 16.417 14.9343 14.1496 13.961C12.8528 14.8682 11.2774 15.4024 9.57902 15.4024C7.87971 15.4024 6.3043 14.8683 5.00745 13.961C2.74007 14.9343 1.34726 16.6465 0.497387 18.1581C-0.630556 20.163 0.253776 23 2.20451 23C4.15529 23 9.57906 23 9.57906 23C9.57906 23 15.0023 23 16.9531 23C18.9038 23 19.7881 20.163 18.6602 18.1581Z" fill="#D7C16C"/>
<path d="M9.57895 13.5054C12.9096 13.5054 15.6089 10.8052 15.6089 7.47495V6.03036C15.6089 2.70016 12.9096 0 9.57895 0C6.24777 0 3.5481 2.70016 3.5481 6.0304V7.475C3.5481 10.8052 6.24781 13.5054 9.57895 13.5054Z" fill="#D7C16C"/>
</svg>
