<svg viewBox="0 0 17 17" fill="none" xmlns="http://www.w3.org/2000/svg">
<g id="Vector" filter="url(#filter0_d_1_1561)">
<path d="M12.4357 6.43566H11.6689C11.4114 4.29267 9.7073 2.58858 7.56431 2.33117V1.56434C7.56431 1.25268 7.31164 1 6.99997 1C6.6883 1 6.43563 1.25268 6.43563 1.56434V2.3312C4.29276 2.5887 2.5887 4.29276 2.33126 6.43566H1.56434C1.25268 6.43566 1 6.68833 1 7C1 7.31167 1.25268 7.56434 1.56434 7.56434H2.33126C2.5887 9.70724 4.29279 11.4113 6.43563 11.6688V12.4357C6.43563 12.7473 6.6883 13 6.99997 13C7.31164 13 7.56431 12.7473 7.56431 12.4357V11.6688C9.7073 11.4114 11.4114 9.70727 11.6689 7.56434H12.4357C12.7473 7.56434 13 7.31167 13 7C13 6.68833 12.7473 6.43566 12.4357 6.43566ZM9.84124 7.56434H10.5295C10.2874 9.08405 9.08402 10.2874 7.56428 10.5294V9.84124C7.56428 9.52958 7.31161 9.2769 6.99994 9.2769C6.68827 9.2769 6.4356 9.52958 6.4356 9.84124V10.5294C4.91594 10.2872 3.71272 9.08396 3.47062 7.56431H4.15867C4.47033 7.56431 4.72301 7.31164 4.72301 6.99997C4.72301 6.6883 4.47033 6.43563 4.15867 6.43563H3.47062C3.71272 4.91597 4.91594 3.71272 6.4356 3.47056V4.1587C6.4356 4.47036 6.68827 4.72304 6.99994 4.72304C7.31161 4.72304 7.56428 4.47036 7.56428 4.1587V3.4705C9.08399 3.71257 10.2874 4.91588 10.5295 6.4356H9.84124C9.52958 6.4356 9.2769 6.68827 9.2769 6.99994C9.27693 7.31167 9.52961 7.56434 9.84124 7.56434Z" fill="#F56B1F"/>
</g>
<defs>
<filter id="filter0_d_1_1561" x="0.247067" y="0.247067" width="16.5176" height="16.5176" filterUnits="userSpaceOnUse" color-interpolation-filters="sRGB">
<feFlood flood-opacity="0" result="BackgroundImageFix"/>
<feColorMatrix in="SourceAlpha" type="matrix" values="0 0 0 0 0 0 0 0 0 0 0 0 0 0 0 0 0 0 127 0" result="hardAlpha"/>
<feOffset dx="1.50587" dy="1.50587"/>
<feGaussianBlur stdDeviation="1.1294"/>
<feComposite in2="hardAlpha" operator="out"/>
<feColorMatrix type="matrix" values="0 0 0 0 0 0 0 0 0 0 0 0 0 0 0 0 0 0 0.25 0"/>
<feBlend mode="normal" in2="BackgroundImageFix" result="effect1_dropShadow_1_1561"/>
<feBlend mode="normal" in="SourceGraphic" in2="effect1_dropShadow_1_1561" result="shape"/>
</filter>
</defs>
</svg>
