<svg viewBox="0 0 31 21" fill="none" xmlns="http://www.w3.org/2000/svg">
<g id="Vector" filter="url(#filter0_d_1_1107)">
<path d="M25.9239 11.7362L24.4708 5.61348C23.7348 2.89212 21.2458 1 18.4021 1H8.59784C5.75414 1 3.26522 2.89207 2.52923 5.61348L1.07611 11.7362C0.704135 13.4925 1.72748 15.2448 3.45043 15.8L3.53539 15.827C5.13002 16.3414 6.86976 15.6785 7.70673 14.2387L8.97108 12.3864C9.28856 11.8403 9.87626 11.5035 10.5116 11.5035H16.4885C17.1238 11.5035 17.7115 11.8403 18.029 12.3864L19.2933 14.2387C20.1303 15.6785 21.8704 16.3414 23.4651 15.827L23.5497 15.8C25.2725 15.2448 26.2959 13.4925 25.9239 11.7362ZM10.3284 7.63312H8.29281V9.6503H6.52059V7.63312H4.485V5.87802H6.52059V3.86161H8.29281V5.87802H10.3284V7.63312ZM19.2973 3.4414C19.9138 3.4414 20.4128 3.93587 20.4128 4.54675C20.4128 5.15679 19.9138 5.65127 19.2973 5.65127C18.6815 5.65127 18.1825 5.15679 18.1825 4.54675C18.1825 3.93583 18.6815 3.4414 19.2973 3.4414ZM17.0668 7.86147C16.4511 7.86147 15.9517 7.36656 15.9517 6.75574C15.9517 6.14608 16.4511 5.65122 17.0668 5.65122C17.683 5.65122 18.182 6.14608 18.182 6.75574C18.1821 7.36661 17.683 7.86147 17.0668 7.86147ZM19.2973 10.0709C18.6815 10.0709 18.1825 9.57643 18.1825 8.96638C18.1825 8.35551 18.6815 7.86104 19.2973 7.86104C19.9138 7.86104 20.4128 8.35551 20.4128 8.96638C20.4128 9.57643 19.9138 10.0709 19.2973 10.0709ZM21.5276 7.86147C20.9119 7.86147 20.4128 7.36656 20.4128 6.75574C20.4128 6.14608 20.9119 5.65122 21.5276 5.65122C22.1437 5.65122 22.6432 6.14608 22.6432 6.75574C22.6432 7.36661 22.1437 7.86147 21.5276 7.86147Z" fill="#F56B1F"/>
</g>
<defs>
<filter id="filter0_d_1_1107" x="0" y="0" width="31" height="21" filterUnits="userSpaceOnUse" color-interpolation-filters="sRGB">
<feFlood flood-opacity="0" result="BackgroundImageFix"/>
<feColorMatrix in="SourceAlpha" type="matrix" values="0 0 0 0 0 0 0 0 0 0 0 0 0 0 0 0 0 0 127 0" result="hardAlpha"/>
<feOffset dx="2" dy="2"/>
<feGaussianBlur stdDeviation="1.5"/>
<feComposite in2="hardAlpha" operator="out"/>
<feColorMatrix type="matrix" values="0 0 0 0 0 0 0 0 0 0 0 0 0 0 0 0 0 0 0.25 0"/>
<feBlend mode="normal" in2="BackgroundImageFix" result="effect1_dropShadow_1_1107"/>
<feBlend mode="normal" in="SourceGraphic" in2="effect1_dropShadow_1_1107" result="shape"/>
</filter>
</defs>
</svg>
