<svg width="16" height="15" viewBox="0 0 16 15" fill="none" xmlns="http://www.w3.org/2000/svg">
<path id="Vector" fill-rule="evenodd" clip-rule="evenodd" d="M6.30209 1.66667C4.0009 1.66667 2.13542 3.53215 2.13542 5.83334C2.13542 8.13451 4.0009 10 6.30209 10C7.45293 10 8.49343 9.5346 9.24835 8.7796C10.0033 8.02468 10.4688 6.98418 10.4688 5.83334C10.4688 3.53215 8.60326 1.66667 6.30209 1.66667ZM0.46875 5.83334C0.46875 2.61168 3.08043 0 6.30209 0C9.52376 0 12.1354 2.61168 12.1354 5.83334C12.1354 7.14326 11.7029 8.35326 10.974 9.32676L15.2247 13.5774C15.5501 13.9029 15.5501 14.4305 15.2247 14.7559C14.8993 15.0814 14.3716 15.0814 14.0462 14.7559L9.79551 10.5053C8.82201 11.2342 7.61201 11.6667 6.30209 11.6667C3.08043 11.6667 0.46875 9.05501 0.46875 5.83334Z" fill="white"/>
</svg>
