<svg viewBox="0 0 22 22" fill="none" xmlns="http://www.w3.org/2000/svg">
<g id="Path 16" filter="url(#filter0_d_1_283)">
<path fill-rule="evenodd" clip-rule="evenodd" d="M16.5598 16.5597C16.4203 16.6993 16.2546 16.81 16.0723 16.8855C15.89 16.961 15.6945 16.9999 15.4972 16.9999C15.2998 16.9999 15.1044 16.961 14.9221 16.8855C14.7398 16.81 14.5741 16.6993 14.4346 16.5597L11.7826 13.9077C10.6592 14.6347 9.35006 15.0222 8.012 15.0239C4.13966 15.0239 1 11.8847 1 8.01188C1 4.13907 4.13966 0.999908 8.012 0.999908C11.8848 0.999908 15.024 4.13904 15.024 8.01188C15.0219 9.35005 14.6344 10.6593 13.9078 11.783L16.5598 14.435C16.6994 14.5745 16.8101 14.7401 16.8856 14.9224C16.9611 15.1047 17 15.3 17 15.4973C17 15.6947 16.9611 15.89 16.8856 16.0723C16.8101 16.2546 16.6994 16.4202 16.5598 16.5597ZM8.012 3.00344C7.02139 3.00344 6.05303 3.29719 5.22938 3.84755C4.40572 4.3979 3.76376 5.18014 3.38468 6.09535C3.0056 7.01055 2.90642 8.01762 3.09969 8.98919C3.29296 9.96076 3.76999 10.8532 4.47047 11.5537C5.17094 12.2541 6.0634 12.7311 7.03498 12.9244C8.00655 13.1176 9.01361 13.0184 9.9288 12.6393C10.844 12.2602 11.6262 11.6182 12.1765 10.7945C12.7269 9.97083 13.0206 9.00246 13.0206 8.01185C13.0206 7.35412 12.891 6.70282 12.6393 6.09515C12.3876 5.48748 12.0187 4.93534 11.5536 4.47025C11.0885 4.00517 10.5364 3.63624 9.9287 3.38454C9.32103 3.13285 8.66974 3.0033 8.012 3.00332V3.00344Z" fill="#F56B1F"/>
</g>
<defs>
<filter id="filter0_d_1_283" x="0" y="-9.15527e-05" width="22" height="22" filterUnits="userSpaceOnUse" color-interpolation-filters="sRGB">
<feFlood flood-opacity="0" result="BackgroundImageFix"/>
<feColorMatrix in="SourceAlpha" type="matrix" values="0 0 0 0 0 0 0 0 0 0 0 0 0 0 0 0 0 0 127 0" result="hardAlpha"/>
<feOffset dx="2" dy="2"/>
<feGaussianBlur stdDeviation="1.5"/>
<feComposite in2="hardAlpha" operator="out"/>
<feColorMatrix type="matrix" values="0 0 0 0 0 0 0 0 0 0 0 0 0 0 0 0 0 0 0.25 0"/>
<feBlend mode="normal" in2="BackgroundImageFix" result="effect1_dropShadow_1_283"/>
<feBlend mode="normal" in="SourceGraphic" in2="effect1_dropShadow_1_283" result="shape"/>
</filter>
</defs>
</svg>
