<svg width="16" height="16" viewBox="0 0 16 16" fill="none" xmlns="http://www.w3.org/2000/svg">
<g clip-path="url(#clip0_93_490)">
<path d="M2.66669 8V12.6667C2.66669 13.4031 3.26364 14 4.00002 14H12C12.7364 14 13.3334 13.4031 13.3334 12.6667V8" stroke="#D7C16C" stroke-linecap="round"/>
<path fill-rule="evenodd" clip-rule="evenodd" d="M6 5.33333H10V5.99999C10 7.10459 9.1046 7.99999 8 7.99999C6.8954 7.99999 6 7.10459 6 5.99999V5.33333Z" stroke="#D7C16C" stroke-linecap="round"/>
<path fill-rule="evenodd" clip-rule="evenodd" d="M10 5.33333H13.7037C13.8673 5.33333 14 5.46598 14 5.62962V5.99999C14 7.10459 13.1046 7.99999 12 7.99999C10.8954 7.99999 10 7.10459 10 5.99999V5.33333Z" stroke="#D7C16C" stroke-linecap="round"/>
<path fill-rule="evenodd" clip-rule="evenodd" d="M2 5.62962C2 5.46598 2.13265 5.33333 2.29629 5.33333H6V5.99999C6 7.10459 5.10457 7.99999 4 7.99999C2.89543 7.99999 2 7.10459 2 5.99999V5.62962Z" stroke="#D7C16C" stroke-linecap="round"/>
<path fill-rule="evenodd" clip-rule="evenodd" d="M2.55061 2.27428C2.57919 2.11552 2.71736 2 2.87868 2H13.1213C13.2826 2 13.4208 2.11552 13.4494 2.27428L13.9294 4.94095C13.9662 5.14539 13.8091 5.33333 13.6013 5.33333H2.39868C2.19095 5.33333 2.03381 5.14539 2.07061 4.94095L2.55061 2.27428Z" stroke="#D7C16C" stroke-linecap="round"/>
<path fill-rule="evenodd" clip-rule="evenodd" d="M6 10.6667C6 10.2985 6.29848 10 6.66667 10H9.33333C9.70153 10 10 10.2985 10 10.6667V14H6V10.6667Z" stroke="#D7C16C" stroke-linecap="round"/>
</g>
<defs>
<clipPath id="clip0_93_490">
<rect width="16" height="16" fill="white"/>
</clipPath>
</defs>
</svg>
