<svg width="800" height="800" viewBox="0 0 800 800" fill="none" xmlns="http://www.w3.org/2000/svg">
<g clip-path="url(#clip0_210_90)">
<path d="M684.241 115.747C613.172 42.1875 509.558 0 399.987 0C290.442 0 186.828 42.1875 115.784 115.723C49.3781 184.473 14.6859 276.392 18.0797 374.611L28.4062 505.666C37.8297 638.088 114.709 652.394 147.303 652.394C159.12 652.394 171.57 650.684 184.217 647.412C185.927 659.816 185.78 681.567 185.658 698.488L185.536 722.023C185.316 739.114 184.975 764.992 203.089 783.327C210.584 790.944 224.281 800.002 246.839 800.002H553.162C575.722 800.002 589.394 790.944 596.912 783.352C615.003 764.992 614.686 739.138 614.466 722.023L614.319 698.537C614.22 681.594 614.05 659.817 615.784 647.414C628.553 650.709 640.931 652.395 652.698 652.395C685.291 652.395 762.147 638.089 771.595 505.911L781.85 375.98L781.923 374.612C785.316 276.392 750.622 184.473 684.241 115.747ZM718.689 371.728L708.508 501.172C704.333 559.522 685.534 589.111 652.697 589.111C645.128 589.111 636.656 587.719 627.233 584.911C604.723 578.417 585.216 582.762 571.447 596.63C550.5 617.723 550.719 651.806 551.061 698.973L551.183 722.85C551.231 726.756 551.305 732.519 550.962 736.717H484.166V658.567H433.531V736.719H366.441V658.569H315.83V736.719H249.008C248.691 732.519 248.764 726.758 248.812 722.803L248.934 698.902C249.277 651.783 249.495 617.725 228.548 596.631C214.852 582.812 195.809 578.272 172.494 584.986C163.339 587.72 154.867 589.113 147.298 589.113C114.437 589.113 95.6875 559.522 91.4875 500.928L81.2828 371.728C78.6953 291.089 107.064 215.82 161.287 159.716C220.495 98.4375 307.508 63.2812 399.987 63.2812C492.492 63.2812 579.505 98.4375 638.708 159.717C692.933 215.82 721.325 291.089 718.689 371.728Z" fill="#D7C16C"/>
<path d="M400.012 483.838C384.827 483.838 351.38 556.788 345.277 568.945C339.222 581.103 351.38 599.366 369.617 593.262C387.855 587.208 400.012 571.998 400.012 571.998C400.012 571.998 412.17 587.208 430.408 593.262C448.62 599.366 460.803 581.105 454.725 568.945C448.62 556.788 415.222 483.838 400.012 483.838Z" fill="#D7C16C"/>
<path d="M268.103 286.377C219.836 281.298 176.575 316.358 171.497 364.648L164.953 410.62C159.875 458.936 194.934 502.148 243.2 507.227C291.516 512.305 334.777 477.27 339.831 428.955L346.375 382.983C351.428 334.669 316.419 291.455 268.103 286.377Z" fill="#D7C16C"/>
<path d="M628.503 364.648C623.45 316.358 580.162 281.298 531.897 286.377C483.581 291.455 448.572 334.667 453.625 382.983L460.144 428.955C465.222 477.27 508.484 512.305 556.775 507.227C605.066 502.148 640.125 458.936 635.047 410.62L628.503 364.648Z" fill="#D7C16C"/>
</g>
<defs>
<clipPath id="clip0_210_90">
<rect width="800" height="800" fill="white"/>
</clipPath>
</defs>
</svg>
