<svg viewBox="0 0 18 20" fill="none" xmlns="http://www.w3.org/2000/svg">
<g id="Vector" filter="url(#filter0_d_1_393)">
<path d="M12.8893 7.71111C12.5602 9.93333 12.5602 11.6794 10.1694 12.3968L10.0887 13.9143C10.0638 14.3524 8.98952 15 7.16381 15C7.10792 15 6.93404 15 6.88436 15C5.05244 15 4.00297 14.3524 3.9595 13.9143L3.87877 12.3968C1.42585 11.6794 1.42585 9.92698 1.09673 7.71111C0.860752 6.07302 1.04084 4.49841 1.81087 3.27302C2.68026 1.90794 4.29483 1 6.89057 1C6.93404 1 7.05203 1 7.10171 1C9.69745 1 11.312 1.90794 12.1814 3.27302C12.9639 4.50476 13.1502 6.09841 12.8893 7.71111ZM6.10192 9.08889V7.97143C6.10192 7.50159 5.72311 7.13333 5.28221 7.13333H4.47492C3.65521 7.13333 2.97212 7.83175 2.97212 8.66984V9.49524C2.97212 9.96508 3.35093 10.3333 3.79183 10.3333H4.86614C5.5306 10.3333 6.08329 9.7873 6.08329 9.08889H6.10192ZM7.86553 11.5587L7.35632 10.3714C7.22591 10.0603 6.72912 10.0603 6.60492 10.3714L6.09571 11.5587C5.97772 11.819 6.20127 12.0794 6.47451 12.0794H7.50535C7.79722 12.0857 7.98973 11.8127 7.86553 11.5587ZM11.045 9.50794V8.68254C11.045 7.84445 10.3619 7.14603 9.5422 7.14603H8.73492C8.27538 7.14603 7.91521 7.53333 7.91521 7.98413V9.10159C7.91521 9.78095 8.44926 10.346 9.13235 10.346H10.2067C10.6662 10.346 11.0264 9.95873 11.0264 9.50794H11.045Z" fill="#F56B1F"/>
</g>
<defs>
<filter id="filter0_d_1_393" x="0" y="0" width="18" height="20" filterUnits="userSpaceOnUse" color-interpolation-filters="sRGB">
<feFlood flood-opacity="0" result="BackgroundImageFix"/>
<feColorMatrix in="SourceAlpha" type="matrix" values="0 0 0 0 0 0 0 0 0 0 0 0 0 0 0 0 0 0 127 0" result="hardAlpha"/>
<feOffset dx="2" dy="2"/>
<feGaussianBlur stdDeviation="1.5"/>
<feComposite in2="hardAlpha" operator="out"/>
<feColorMatrix type="matrix" values="0 0 0 0 0 0 0 0 0 0 0 0 0 0 0 0 0 0 0.25 0"/>
<feBlend mode="normal" in2="BackgroundImageFix" result="effect1_dropShadow_1_393"/>
<feBlend mode="normal" in="SourceGraphic" in2="effect1_dropShadow_1_393" result="shape"/>
</filter>
</defs>
</svg>
