<svg viewBox="0 0 18 23" fill="none" xmlns="http://www.w3.org/2000/svg">
<g id="user" filter="url(#filter0_d_1_1350)">
<path fill-rule="evenodd" clip-rule="evenodd" d="M7 11.625C9.71146 11.625 11.9091 9.24606 11.9091 6.3125C11.9091 3.37894 9.71146 1 7 1C4.28855 1 2.09091 3.37894 2.09091 6.3125C2.09091 9.24606 4.28855 11.625 7 11.625ZM11.7471 10.2007C10.6496 11.7105 8.93418 12.6875 7 12.6875C5.06582 12.6875 3.35036 11.7105 2.25291 10.2007C1.49309 10.7808 1 11.6733 1 12.6875V14.8125C1 16.5725 2.46564 18 4.27273 18H9.72727C11.5344 18 13 16.5725 13 14.8125V12.6875C13 11.6733 12.5069 10.7808 11.7471 10.2007Z" fill="#288FF2"/>
</g>
<defs>
<filter id="filter0_d_1_1350" x="0" y="0" width="18" height="23" filterUnits="userSpaceOnUse" color-interpolation-filters="sRGB">
<feFlood flood-opacity="0" result="BackgroundImageFix"/>
<feColorMatrix in="SourceAlpha" type="matrix" values="0 0 0 0 0 0 0 0 0 0 0 0 0 0 0 0 0 0 127 0" result="hardAlpha"/>
<feOffset dx="2" dy="2"/>
<feGaussianBlur stdDeviation="1.5"/>
<feComposite in2="hardAlpha" operator="out"/>
<feColorMatrix type="matrix" values="0 0 0 0 0 0 0 0 0 0 0 0 0 0 0 0 0 0 0.25 0"/>
<feBlend mode="normal" in2="BackgroundImageFix" result="effect1_dropShadow_1_1350"/>
<feBlend mode="normal" in="SourceGraphic" in2="effect1_dropShadow_1_1350" result="shape"/>
</filter>
</defs>
</svg>
