<svg viewBox="0 0 35 35" fill="none" xmlns="http://www.w3.org/2000/svg">
<g id="user-list" filter="url(#filter0_d_1_286)">
<path fill-rule="evenodd" clip-rule="evenodd" d="M10.9688 19.125C15.4737 19.125 19.125 15.0668 19.125 10.0625C19.125 5.05819 15.4737 1 10.9688 1C6.46378 1 2.8125 5.05819 2.8125 10.0625C2.8125 15.0668 6.46378 19.125 10.9688 19.125ZM18.8558 16.6953C17.0325 19.2709 14.1823 20.9375 10.9688 20.9375C7.75519 20.9375 4.90503 19.2709 3.08165 16.6953C1.81925 17.685 1 19.2075 1 20.9375V24.5625C1 27.5649 3.43509 30 6.4375 30H15.5C18.5024 30 20.9375 27.5649 20.9375 24.5625V20.9375C20.9375 19.2075 20.1183 17.685 18.8558 16.6953ZM29.0938 17.3125H23.6562C23.1551 17.3125 22.75 17.7185 22.75 18.2188C22.75 18.7199 23.1551 19.125 23.6562 19.125H29.0938C29.5949 19.125 30 18.7199 30 18.2188C30 17.7185 29.5949 17.3125 29.0938 17.3125ZM29.0938 11.875H21.8438C21.3426 11.875 20.9375 12.2801 20.9375 12.7812C20.9375 13.2824 21.3426 13.6875 21.8438 13.6875H29.0938C29.5949 13.6875 30 13.2824 30 12.7812C30 12.2801 29.5949 11.875 29.0938 11.875ZM21.8438 8.25H29.0938C29.5949 8.25 30 7.84491 30 7.34375C30 6.8435 29.5949 6.4375 29.0938 6.4375H21.8438C21.3426 6.4375 20.9375 6.8435 20.9375 7.34375C20.9375 7.84491 21.3426 8.25 21.8438 8.25ZM29.0938 22.75H23.6562C23.1551 22.75 22.75 23.156 22.75 23.6562C22.75 24.1574 23.1551 24.5625 23.6562 24.5625H29.0938C29.5949 24.5625 30 24.1574 30 23.6562C30 23.156 29.5949 22.75 29.0938 22.75Z" fill="white" fill-opacity="0.25" shape-rendering="crispEdges"/>
</g>
<defs>
<filter id="filter0_d_1_286" x="0" y="0" width="35" height="35" filterUnits="userSpaceOnUse" color-interpolation-filters="sRGB">
<feFlood flood-opacity="0" result="BackgroundImageFix"/>
<feColorMatrix in="SourceAlpha" type="matrix" values="0 0 0 0 0 0 0 0 0 0 0 0 0 0 0 0 0 0 127 0" result="hardAlpha"/>
<feOffset dx="2" dy="2"/>
<feGaussianBlur stdDeviation="1.5"/>
<feComposite in2="hardAlpha" operator="out"/>
<feColorMatrix type="matrix" values="0 0 0 0 0 0 0 0 0 0 0 0 0 0 0 0 0 0 0.25 0"/>
<feBlend mode="normal" in2="BackgroundImageFix" result="effect1_dropShadow_1_286"/>
<feBlend mode="normal" in="SourceGraphic" in2="effect1_dropShadow_1_286" result="shape"/>
</filter>
</defs>
</svg>
