<svg viewBox="0 0 18 17" fill="none" xmlns="http://www.w3.org/2000/svg">
<path id="Vector" fill-rule="evenodd" clip-rule="evenodd" d="M8.06319 9.39447C8.06319 9.91953 8.48268 10.3452 9.00017 10.3452C9.51767 10.3452 9.93716 9.91953 9.93716 9.39447V6.54239C9.93716 6.01734 9.51767 5.5917 9.00017 5.5917C8.48268 5.5917 8.06319 6.01734 8.06319 6.54239V9.39447ZM9.93716 12.2359C9.93716 11.7108 9.51767 11.2852 9.00017 11.2852C8.48268 11.2852 8.06319 11.7108 8.06319 12.2359V12.2465C8.06319 12.7716 8.48268 13.1972 9.00017 13.1972C9.51767 13.1972 9.93716 12.7716 9.93716 12.2465V12.2359ZM6.54279 1.46699C7.61381 -0.488996 10.3863 -0.488996 11.4572 1.46699L17.6423 12.7629C18.6831 14.6639 17.3283 17 15.185 17H2.815C0.671687 17 -0.683098 14.6639 0.357779 12.7629L6.54279 1.46699Z" fill="#F56B1F"/>
</svg>
