<svg width="19" height="16" viewBox="0 0 19 16" fill="none" xmlns="http://www.w3.org/2000/svg">
<path d="M7.29929 6.32503C7.29784 6.33464 7.40993 6.49543 7.5486 6.68361L7.79944 7.02398L7.89208 7.04538L7.98471 7.06678L6.32677 8.29074L4.6692 9.5123L4.65205 9.95835C4.63533 10.3529 4.63759 10.411 4.67022 10.4552C4.70183 10.4981 4.70379 10.5095 4.67889 10.5278C4.66229 10.5401 4.37377 10.7975 4.03675 11.0993C3.34575 11.7174 3.39935 11.68 3.02321 11.8099C2.90531 11.8498 2.77146 11.9058 2.7269 11.9322C2.64883 11.9769 2.40874 12.1987 0.797577 13.7063C0.57409 13.9159 0.389708 14.0944 0.384465 14.1047C0.380606 14.114 0.378498 14.1603 0.379812 14.2085C0.382657 14.279 0.388703 14.2959 0.420529 14.313C0.441067 14.3235 0.706389 14.5763 1.01017 14.8755C1.31395 15.1747 1.6832 15.5367 1.82981 15.6806C1.9778 15.8235 2.11188 15.9446 2.1263 15.9468C2.14312 15.9493 2.20619 15.9306 2.26518 15.9064L2.3766 15.8605L2.67071 15.4282C2.83462 15.1899 3.1792 14.6841 3.4385 14.3029C3.69781 13.9218 3.96163 13.5352 4.02323 13.445C4.08622 13.3538 4.34865 12.9682 4.60796 12.5871C4.86727 12.206 5.15024 11.7903 5.23689 11.6645L5.39316 11.4362L5.46045 11.4464C5.53735 11.4581 5.57464 11.4391 5.86986 11.2429C6.06794 11.1119 6.0876 11.1038 6.12839 11.1591C6.16204 11.2048 6.21469 11.198 6.30768 11.1359C6.35298 11.1047 6.40235 11.0789 6.41612 11.0773C6.42988 11.0757 6.49273 11.0422 6.55666 11.0015L6.67245 10.9269L6.71637 10.9778C6.74157 11.0062 6.78185 11.0811 6.80712 11.1415C6.8482 11.2436 6.86007 11.2626 6.94536 11.3406C7.08388 11.4649 7.19357 11.6253 7.23575 11.7608C7.25585 11.8228 7.31858 12.131 7.37781 12.446C7.43565 12.7621 7.501 13.0854 7.52438 13.1664C7.56576 13.3153 7.64246 13.4744 7.69635 13.5243C7.76183 13.5871 7.76459 13.5851 8.29925 13.2039C8.86297 12.8012 8.86158 12.8023 8.87992 12.6243C8.88749 12.5419 8.88115 12.5188 8.83935 12.4621C8.81182 12.4247 8.74969 12.3723 8.69565 12.3395L8.60229 12.2824L8.46097 11.7545C8.26501 11.0193 8.27776 11.0975 8.33827 10.9739C8.36558 10.9153 8.39579 10.8375 8.40366 10.8018L8.41931 10.7391L8.59934 10.7516L8.78038 10.7655L9.02586 10.5974C9.16277 10.505 9.3291 10.3889 9.39828 10.3379L9.5228 10.2461L9.54901 10.0731L9.57521 9.90003L9.7277 9.79406C9.86672 9.69588 10.0804 9.51067 10.1453 9.43077C10.1721 9.4004 10.1731 9.40178 10.2154 9.47949C10.252 9.54648 10.2659 9.55966 10.2965 9.56061C10.3175 9.5601 10.3399 9.54997 10.3479 9.53766C10.3702 9.50416 10.3071 9.36063 10.18 9.1533C10.0623 8.96462 9.95696 8.77535 9.95914 8.76093C9.95987 8.75613 9.98361 8.75358 10.0128 8.75554C10.053 8.75794 10.1269 8.806 10.3512 8.98011C10.6979 9.24772 10.7793 9.30306 11.0187 9.44258C11.7405 9.86288 12.4517 10.1181 13.2434 10.2392C13.6554 10.3028 13.8458 10.3034 14.4417 10.2486C14.7657 10.219 14.7861 10.2147 14.8122 10.1719C14.8865 10.0468 14.8815 9.86039 14.7848 9.2164C14.7467 8.96479 14.7161 8.72046 14.7179 8.67647L14.7216 8.59469L14.1744 8.59662C13.5765 8.59951 13.3618 8.58052 13.0507 8.50021C12.6937 8.4068 12.4045 8.2954 11.9138 8.0613C11.4622 7.8454 11.2479 7.70232 11.117 7.52762L11.0691 7.46259L11.1175 7.4269L11.1659 7.39121L11.0588 7.24593C10.9997 7.16568 10.9545 7.09861 10.9587 7.09555C10.9629 7.09249 10.9918 7.08827 11.0237 7.08819C11.1362 7.08433 11.2002 7.07558 11.2092 7.06466C11.2137 7.05919 11.2448 7.04914 11.2775 7.04426C11.348 7.03282 11.3657 7.01338 11.5864 6.68419C11.7455 6.44523 11.8379 6.33876 12.0791 6.10978C12.3431 5.85967 12.5345 5.69937 12.8611 5.45873C13.391 5.0682 13.8311 4.6862 13.9522 4.51155C13.9787 4.47499 14.0074 4.41542 14.0149 4.38214C14.0262 4.3396 14.0471 4.30712 14.0845 4.27959C14.1329 4.2439 14.1385 4.23123 14.1332 4.16896L14.1255 4.09774L14.7059 3.67429L15.2853 3.24946L15.327 3.32337L15.3686 3.39729L15.7173 3.14033L16.0646 2.8844L16.0238 2.82905L15.983 2.77371L16.3427 2.5086L16.7025 2.24348L16.7442 2.26824C16.7664 2.2839 16.7896 2.30953 16.7956 2.32643C16.8057 2.35745 16.815 2.35271 16.9285 2.2691C17.0475 2.18141 17.052 2.17595 17.0611 2.10727C17.067 2.06882 17.0748 2.03314 17.0817 2.02804C17.0873 2.02396 17.1144 2.03175 17.1442 2.04609C17.1955 2.07231 17.1969 2.07129 17.3131 1.98564L17.4307 1.89897L17.3848 1.8367L17.3379 1.77306L17.6752 1.52666L18.011 1.28129L17.9916 1.18246C17.9626 1.03303 17.8538 0.891172 17.7216 0.83059L17.624 0.785082L17.2861 1.02769L16.9478 1.2727L16.7296 0.976605C16.6103 0.814722 16.4665 0.628226 16.4124 0.563487L16.3099 0.444715L16.2843 0.50844C16.2597 0.564955 16.2414 0.580614 16.0983 0.673259L15.9403 0.774716L16.0698 0.950435L16.2003 1.12754L16.2687 1.42306C16.3068 1.58495 16.3421 1.7255 16.3482 1.7338C16.3564 1.74487 16.2584 1.82346 16.0066 2.00903L15.6538 2.26905L15.6293 2.23584C15.6059 2.20402 15.6007 2.2057 15.479 2.28683C15.3777 2.35508 15.3305 2.37496 15.2458 2.39041C15.1105 2.4154 14.9038 2.3755 14.7492 2.29307L14.6342 2.23264L14.3896 2.41071C14.2554 2.50962 13.9825 2.7043 13.7834 2.84254C13.441 3.08202 13.4207 3.09491 13.4078 3.06593C13.3974 3.0373 13.3905 3.0424 13.3084 3.11356C13.2357 3.17998 13.2036 3.19725 13.1254 3.21859C12.9589 3.26222 12.251 3.73273 11.2966 4.43389L10.7657 4.82304L10.7322 4.80076C10.712 4.78787 10.6805 4.77695 10.6609 4.77644C10.6293 4.77411 10.5346 4.83107 10.4753 4.8897C10.4653 4.89924 10.3384 4.98205 10.1943 5.07331C10.0039 5.19443 9.91017 5.26137 9.85329 5.32036C9.78812 5.38547 9.76081 5.40346 9.70015 5.42255C9.63089 5.44156 9.61844 5.45073 9.54897 5.53609C9.50695 5.58627 9.41338 5.67658 9.34413 5.73616C9.27247 5.79537 9.21873 5.84992 9.22383 5.85684C9.24218 5.88174 9.41041 5.86666 9.44915 5.83811C9.49481 5.80446 9.61023 5.77277 9.62247 5.78937C9.62757 5.79629 9.57638 5.83402 9.51003 5.87437C9.39672 5.9408 9.38667 5.95034 9.38391 5.99294C9.38114 6.03554 9.36556 6.04916 8.95186 6.35404C8.71526 6.5284 8.51849 6.667 8.51544 6.66285C8.51136 6.65732 8.50648 6.62462 8.50298 6.5909C8.49795 6.53483 8.47355 6.49303 8.24179 6.17276L7.98593 5.81688L7.64389 6.06254C7.45608 6.19881 7.30177 6.3168 7.29929 6.32503ZM8.15643 9.99124C8.19058 9.97674 8.22437 9.96465 8.2302 9.96676C8.23639 9.96647 8.25569 10.0014 8.27252 10.0445C8.3015 10.1128 8.30041 10.12 8.26364 10.1193C8.19074 10.1218 8.03795 10.0999 8.02877 10.0874C8.01653 10.0708 8.07603 10.027 8.15643 9.99124ZM8.81853 9.66129C8.89675 9.72107 8.96936 9.7124 9.02157 9.63549C9.04036 9.60884 9.05878 9.58458 9.05878 9.58458C9.06155 9.58255 9.08675 9.61095 9.11326 9.64692C9.14079 9.68428 9.21471 9.76431 9.27815 9.82431L9.39169 9.93493L9.37662 10.0101L9.36155 10.0852L9.15365 10.2406C9.03881 10.3252 8.88355 10.4332 8.80891 10.4797L8.67273 10.5673L8.48593 10.5426L8.29913 10.518L8.25317 10.4238C8.22782 10.372 8.18922 10.3023 8.16613 10.268C8.14406 10.2352 8.12884 10.2059 8.13438 10.2018C8.13991 10.1977 8.17013 10.201 8.20378 10.2061C8.23604 10.2123 8.32438 10.2133 8.39866 10.2098C8.47294 10.2063 8.59704 10.2067 8.67263 10.2108C8.77918 10.2134 8.82324 10.2065 8.85921 10.18C8.91594 10.1382 8.94142 10.0917 8.93326 10.04C8.92875 10.0049 8.91811 10.0021 8.84267 10.0214C8.67837 10.0592 8.57336 10.0384 8.47103 9.943C8.44955 9.92254 8.42223 9.89997 8.40993 9.89196C8.38975 9.87907 8.41123 9.85897 8.57101 9.74549L8.75568 9.61366L8.81853 9.66129Z" fill="white"/>
</svg>
